<svg xmlns="http://www.w3.org/2000/svg" width="40" height="40" xmlns:v="https://vecta.io/nano"><path d="M34.167 12.528a11.21 11.21 0 0 1-3.142.85c1.138-.667 1.994-1.725 2.407-2.978-1.076.63-2.252 1.07-3.476 1.306a5.51 5.51 0 0 0-4-1.706c-1.44-.012-2.824.55-3.85 1.558s-1.61 2.385-1.62 3.825c-.002.413.045.826.14 1.228-4.384-.205-8.478-2.25-11.278-5.628-.486.82-.743 1.754-.744 2.706a5.37 5.37 0 0 0 2.444 4.483c-.87-.02-1.725-.25-2.488-.672v.067a5.41 5.41 0 0 0 4.389 5.278 5.6 5.6 0 0 1-1.441.189c-.345.001-.69-.033-1.028-.1a5.47 5.47 0 0 0 5.119 3.738 11.09 11.09 0 0 1-6.8 2.306c-.434-.001-.87-.027-1.3-.078a15.48 15.48 0 0 0 8.374 2.433c4.107.065 8.07-1.52 10.997-4.4s4.58-6.815 4.583-10.922c0-.233-.006-.467-.017-.694 1.07-.76 1.993-1.704 2.73-2.79z" fill="#c9c9ca"/></svg>