<svg xmlns="http://www.w3.org/2000/svg" width="1920" height="107"><path d="M19 44h10v10H19zM199 0h6v6h-6z" fill="#c9c9ca"/><path fill="#ffba00" d="M124 83h12v12h-12z"/><path d="M354 100h6v6h-6zm221-18h6v6h-6z" fill="#c9c9ca"/><path fill="#4e5af9" d="M458.443 28.054h16v16h-16z"/><path fill="#ffba00" d="M632.545 41.88h11.533v11.533h-11.533z"/><path d="M797 79h-6v-6h6zm131-31h-6v-6h6zm125.378 31.378h-16v-16h16z" fill="#4e5af9"/><path fill="#c9c9ca" d="M1209 70h6v6h-6z"/><path d="M1565 101h6v6h-6zm-258-79h6v6h-6z" fill="#4e5af9"/><path fill="#c9c9ca" d="M1559 29h6v6h-6z"/><path fill="#ffba00" d="M1420 71h12v12h-12z"/><path d="M1847 73h10v10h-10zm-152-20h6v6h-6z" fill="#c9c9ca"/><path fill="#4e5af9" d="M242 68h6v6h-6z"/><path fill="#ffba00" d="M1889 11h12v12h-12z"/></svg>