<svg xmlns="http://www.w3.org/2000/svg" width="242" height="130"><path d="M46.195 38L39 45.148v18.386l6.25 6.252h14.938v6.38h-7.68v-4.164h-13.5v10.05l6.175 6.224h20.8l6.055-6.05V63.45l-6.276-6.064H52.047v-6.847h7.588v4.718h12.4v-10.2l-6.9-7.06z" fill="#c9c9ca"/><path d="M39.822 45.52v17.69l5.762 5.763h15.428v8.05h-9.345v-4.164H39.834v8.866l5.78 5.846h19.9l5.758-5.762V63.894l-5.89-5.656H51.2v-8.512h9.253v4.72H71.28v-8.92l-6.5-6.672H46.52l-6.7 6.668" fill="#fff"/><path d="M46.86 39.746l-6.2 6.187v16.992l5.274 5.275h15.912v9.716h-11v-4.164H40.67v7.68l5.284 5.365h19.232l5.266-5.278V64.3l-5.408-5.157h-14.67v-10.18h10.92v4.72h9.16v-7.74l-6.015-6.187z" fill="#c9c9ca"/><path d="M58.77 65.876c-.01.017-.02.033-.035.046a.3.3 0 0 0 .035-.046" fill="#a0002a"/><path d="M56.01 38.87a.72.72 0 0 0-.6.268c-.078.1-.12.24-.12.375.004.09.018.182.044.27l-.332.654h-.14a.69.69 0 0 0-.744.456c-.06.117-.09.248-.088.38a2.32 2.32 0 0 0 .244.877l.133.19a1.55 1.55 0 0 0-.822 1.533.64.64 0 0 0 .08.295.63.63 0 0 0 .224.231l-.092.094c-.666.512-1.418.983-1.436 1.6a1.26 1.26 0 0 0 .167.5c-.45.228-.94.645-.934 1.158-.001.02-.001.037 0 .056.052.638.832.892 1.07.954l.2.053.178-.106c.397-.272.85-.45 1.327-.52v.028c.014 1.17-1.642 1.68-1.712 1.7l.083-.02c-1.382.172-2.58 1.035-3.182 2.29a1.43 1.43 0 0 0-.454.955.87.87 0 0 0 .222.575l.057.056.072.037c.754.376 2.26-.48 3.09-1.022l.044-.028.036-.036a.64.64 0 0 1 .416-.229.49.49 0 0 1 .292.177l.087.11.138.056a2.06 2.06 0 0 1 .358.165c-1.03.378-2.035.82-3 1.32l-.153.072-.076.152a3.73 3.73 0 0 1-1.585 1.142c-.65.2-1.167.7-1.386 1.346-.024.103-.036.21-.035.315a1.46 1.46 0 0 0 .318.872l.118.138.178.03a25.42 25.42 0 0 0 4.246-.771l.034-.008.032-.013c.584-.226.767-.145.79-.134l.014.15.082.07a4.09 4.09 0 0 1-.954 1.324l-.088.087-.035.12a1.4 1.4 0 0 1-.833.744l.04-.01c-2.687.67-2.716 1.716-2.66 2.02l.08.44 2.442-.2.12-.1c.15-.127.192-.082.228-.046l.1.1.152.05.34.085c0 .016 0 .02.005.038a3.8 3.8 0 0 1-.132.871h-1.272l-.06.366a.74.74 0 0 1-.375.1c-.58-.242-1.172.383-1.243.453l-.05.05-.068.1a1.95 1.95 0 0 1-.589.35l.083-.03c-.5.126-.648.4-.683.6-.006.038-.01.076-.01.115a.77.77 0 0 0 .308.571c-.4.1-.99.253-.984.8v.04a.59.59 0 0 0 .28.464c.187.116.682.426 4.608-1.187l.04-.017c-.107.11-.224.212-.35.3l-.056.037-.045.052c-.274.274-.616.472-1 .574l.044-.008c-1.59.254-2.122.96-2.3 1.36-.16.308-.152.676.017.978.17.264.2.285 2.008-.04a5.89 5.89 0 0 1-.328.861l-1.44 1.294c-1.692.962-2.707 4.08-2.82 4.437l-.016.052v.053a1.29 1.29 0 0 0 0 .13c-.015.293.127.572.372.732.52.324 1.28-.063 1.583-.243l.113-.068.23-.412a1.78 1.78 0 0 1 1.274-.6c.674-.026 1.308-.322 1.76-.822l.042-.04.03-.05c.04-.077.114-.13.2-.14 1.136.15 1.966-1.084 2.258-1.6.264-.07.485-.008.693.422.16.558.245 1.135.25 1.716v.268l-.098 3.24.045-.06v.05l-.016.854-.093 1.534c-.125.944-.3 1.053-.362 1.094a2.17 2.17 0 0 1-.407.154c-.208.06-.41.137-.606.232a2.49 2.49 0 0 0-1.388 1.617c-.08.243-.22.46-.412.63-.464.295-.464.295-.642.324l-.38.073c-.584.172-1.07.58-1.336 1.13l-.344.866h14.623l-.075-.8c-.074-.685-.38-1.123-1.843-1.608-.384-.083-.726-.3-.966-.61-.47-.5-1.04-.876-1.67-1.132-.587-.6-.944-1.39-1.01-2.227a2.15 2.15 0 0 1-.051-.917v-.025l-.077-2.206c0 .014-.01-1.775-.01-1.775l.03-2.462a2.7 2.7 0 0 0 1.195.374l1.873.077h.032a5.87 5.87 0 0 1 2.325 1.272l.03.024.032.018c.58.332 1.308.665 1.782.285.26-.235.355-.604.236-.935l.018.076c-.473-3.383-2.424-3.938-2.742-4.006-.077-.02-.152-.047-.224-.082a.5.5 0 0 1 .058-.069l-.032.027c.586-.456.828-.913.718-1.36-.164-.665-1.015-.85-1.184-.882l-.08-.015-.08.01a3.26 3.26 0 0 1-1.852-.49c-.89-.68-1.13-1.21-1.132-1.507-.005-.07.01-.14.043-.2l-.013.02.06-.085.015-.064c.605.135 1.177.388 1.683.746l-.056-.043a1.46 1.46 0 0 0 1.846.1l.125-.094.05-.158a2.99 2.99 0 0 1 .621-.615c.297-.18.487-.494.507-.84-.001-.072-.012-.143-.033-.212-.2-.7-1.424-.954-2.455-1.04l-.72-.434c-.718-.305-1.324-.824-1.736-1.487l1.555.15a2.2 2.2 0 0 0 1.3-.053c.233-.098.384-.326.383-.58.001-.012.001-.024 0-.036-.26-.8-.883-1.432-1.68-1.7-.71-.327-1.302-.86-1.7-1.532-.053-.194-.08-.394-.078-.595-.001-.183.01-.366.036-.547a1.64 1.64 0 0 1 .884.541l.164.2.256-.02c.22.016.43.082.62.193l.2.106.208-.067a5.62 5.62 0 0 1 1.461.1c.75.1 1.027.248 1.265-.177l.062-.1.028-.13a2.9 2.9 0 0 0-1.455-2.868l-.163-.08-.038.01a1.96 1.96 0 0 1-.263-.4c-.338-.552-.973-.85-1.614-.755-.2-.146-.417-.235-.655-.26l-.142-.156a1.25 1.25 0 0 0-.05-.208l.255.035c2.342.328 2.64.336 2.9.078.144-.143.225-.338.224-.54-.001-.05-.007-.103-.018-.153-.18-.83-2.06-1.7-3.6-2.282-1.123-.428-1.416-.877-1.474-.99-.005-.042-.047-.1-.047-.14a.2.2 0 0 1 .069-.174c.12-.1.418-.07.712.024l.056.017.058.005c.617.127 1.243-.177 1.526-.74l.06-.164-.057-.166c-.203-.547-.61-.995-1.137-1.248.213-.142.33-.39.3-.645a2.1 2.1 0 0 0-1.013-1.254c.555-.184.013-1.155-.65-1.674l-.2-.153a1.1 1.1 0 0 0 .663-.866c.007-.044.01-.09.01-.134a.6.6 0 0 0-.442-.6 1.53 1.53 0 0 1-.683-.271c.122-.017 0-.68-.08-.8.008-.065.06-.217.06-.283a.64.64 0 0 0-.176-.5c-.14-.115-.32-.17-.5-.15" fill="#fff"/><path d="M57.212 72.887l-.032 2.77.01 1.8.077 2.18c-.052.35-.032.707.06 1.05.192.946.563 2.2 1.268 2.57 1.954.994 1.188 1.266 2.7 1.77 1.555.516 1.466.886 1.516 1.3H49.54a1.72 1.72 0 0 1 1-.866 2.01 2.01 0 0 0 1.181-.461c.6-.38.492-1.684 1.73-2.2.5-.214.85-.275 1.082-.422.166-.105.433-.273.6-1.447.052-.4.094-1.78.113-2.43l.077-1.685-.07.1.05-1.665v-.283c-.013-.65-.114-1.294-.3-1.916-.093-.293-.3-.53-.6-.652a1.05 1.05 0 0 0-.88.024s-.867 1.753-1.938 1.525a.76.76 0 0 0-.611.381s-.814.827-1.426.674c-.654.03-1.266.336-1.683.84l-.172.305s-1.28.765-1.2-.152c0 0 1.043-3.35 2.65-4.2l1.53-1.377s.855-1.73.32-1.808l-1.98.408s.075-1.174 1.986-1.48a3.52 3.52 0 0 0 1.2-.832s1.148-.764.765-1.376c0 0-.382-.23-.917.23 0 0-4.17 1.712-4.207 1.147-.02-.324 1.224-.306 1.377-.7 0 0 0-.84-.536-.457 0 0-.46-.306.152-.46 0 0 .7-.307.842-.612 0 0 .458-.458.842-.306 0 0 .84 0 .916-.46h1.224s.455-1.356.148-1.816l-.612-.153c-.117-.13-.283-.205-.458-.205s-.342.075-.458.205l-1.835.153s-.153-.842 2.294-1.453a1.91 1.91 0 0 0 1.147-1.07s1.53-1.53.994-1.988c0 0-.076-.764-1.453-.23-1.335.334-2.688.6-4.052.766 0 0-.84-.995.917-1.76 0 0 1.452-.6 1.835-1.377.998-.497 2.022-.94 3.068-1.325 0 0 .994-.535-.46-1.07-.168-.234-.438-.373-.726-.373s-.56.14-.726.373c0 0-2 1.3-2.6.994 0 0-.305-.306.306-.917.524-1.13 1.593-1.9 2.83-2.065 0 0 2.465-.746 1.992-2.64 0 0-.567-.334-2.017.534 0 0-1.624-.537.217-1.357l.55-.747s-.562.4-.645-.02c-.042-.2-.058-.5.523-.8.748-.37.57-.705 1.457-.745.07-.108.087-.243.044-.365-.852-.1-1.258-1.174.23-1.826l.152-.63-.643.057s-.54-.97.494-.95a2.73 2.73 0 0 0 .644-1.17s-.264-.4.195-.4c0 0 .3-.136.157.552a2.35 2.35 0 0 1 .185.776s-.2.44.93.7c.12.027.124.826-.64.75 0 0-.25.5.473 1.07 0 0 1.194 1.1.1 1.17 0 0 1.667 1.063 1.188 1.54-.2.2-.854-.083-.914.036-.087.174-.053.26.175.355.2.08 1.388.386 1.717 1.337 0 0-.174.48-1.023.415 0 0-1.605-.6-1.376.863 0 0 .185.736 1.8 1.348 0 0 3.9 1.474 3.222 2.166-.184.185-3.45-.407-4.063-.407l-.076.46s.917-.23.917.612l.375.406s.6 0 .688.306c0 0 .994-.23 1.377.46 0 0 .383.764.687.688.83.495 1.288 1.436 1.163 2.395-.08.13-1.866-.33-2.46-.136a1.95 1.95 0 0 0-.906-.255s-.857-1.04-1.7-.628c-.124.554-.124 1.13 0 1.683a4.17 4.17 0 0 0 1.974 1.844 2.3 2.3 0 0 1 1.389 1.292c.022.3-.826.2-.957.17s-2.483-.25-2.483-.25a1.94 1.94 0 0 0 .135.547c.444 1.168 1.36 1.485 2.852 2.417 0 0 3.136.23 1.836 1.223 0 0-.713.555-.8.86-.375.267-.885.235-1.224-.076 0 0-2.27-1.473-2.423-.478 0 0-.7.932 1.214 2.383a3.8 3.8 0 0 0 2.206.575s1.626.295.25 1.366c0 0-.763.7.383.993 0 0 1.912.308 2.37 3.595 0 0 .3.994-1.3.077 0 0-1.835-1.453-2.676-1.376l-1.836-.077a2.01 2.01 0 0 1-1.161-.455s-.5-.393-.55.27m57.463-9.18c-4.378 0-4.62-3.162-4.62-4.134 0-1.216.243-3.162 3.162-4.135l5.35-1.7v-.73a3.12 3.12 0 0 0-.243-1.7c-.47-1.167-1.672-1.867-2.92-1.7a3.26 3.26 0 0 0-3.162 1.946l-.973-.73c.736-2.3 2.94-3.802 5.35-3.648a5.51 5.51 0 0 1 4.62 1.946c.73.973.73 2.675.73 4.134v6.08c0 1.216.243 1.946 1.216 1.946.486 0 .486 0 .73-.486l.243.973a4.1 4.1 0 0 1-3.4 1.946 2.18 2.18 0 0 1-2.432-1.7 4.33 4.33 0 0 1-3.653 1.692zm3.648-8.27a32.96 32.96 0 0 0-3.405 1.216 2.68 2.68 0 0 0-1.46 2.432c0 .973.243 2.2 2.432 2.2.862-.015 1.704-.268 2.432-.73zM82.827 63v-4.6h.973c-.06.798.202 1.587.73 2.2 1.03.833 2.325 1.265 3.648 1.216q4.378 0 4.378-3.648c0-2.2-1.216-2.92-3.162-4.135l-.243-.243-1.946-1.216c-2.432-1.7-3.9-3.162-3.9-5.837 0-1.46.486-5.837 7.053-5.837a30.35 30.35 0 0 1 5.107.486v4.62h-.487c.06-.798-.202-1.587-.73-2.2-1.06-.75-2.355-1.095-3.648-.973-3.648 0-3.9 1.7-3.9 3.162 0 1.946.973 2.432 2.92 3.9l2.432 1.7c1.946 1.46 3.9 2.675 3.9 6.08 0 5.837-5.35 6.323-7.54 6.323-1.9-.163-3.76-.487-5.594-.97zm42.8-14.592a16.15 16.15 0 0 0 3.162-.243 5.81 5.81 0 0 0 2.189-.73l.243.243v1.216c1.367-.923 2.972-1.43 4.62-1.46 2.92 0 4.62 1.216 5.35 3.648 0 .73.243 2.2.243 2.918v4.62c0 2.675 0 3.4.486 3.9a2.05 2.05 0 0 0 1.46.486v.73c-.973 0-2.918-.243-3.9-.243a17.3 17.3 0 0 0-3.89.243V63a3.52 3.52 0 0 0 1.7-.486c.487-.486.487-1.46.487-3.4V56.45a18.39 18.39 0 0 0-.243-3.648c-.243-1.946-1.216-2.918-3.4-2.918-1.027-.085-2.052.172-2.918.73v8.27c0 2.675 0 3.4.486 3.9a2.61 2.61 0 0 0 1.46.486V64c-1.216 0-2.918-.243-3.9-.243a16.2 16.2 0 0 0-3.891.243v-1.216a1.89 1.89 0 0 0 1.7-.73c.487-.486.487-1.946.487-4.62v-4.386c0-1.946 0-2.675-.243-3.162-.243-.243-.73-.486-1.946-.486v-.973zm19.7 14.35a2.21 2.21 0 0 0 1.7-.73c.486-.486.486-1.946.486-4.62v-7.54h-1.94v-.973c.716-.166 1.383-.5 1.946-.973-.056-1.383.026-2.768.243-4.135.73-3.162 2.675-4.864 6.323-4.864a5.57 5.57 0 0 1 4.135.973v.243l-1.46 2.187h-.486c-.384-1.154-1.46-1.936-2.675-1.946a4.51 4.51 0 0 0-1.7.486c-.73.73-.73 1.7-.73 3.648v3.162h3.648v1.946h-3.65v8.755c0 2.2 0 3.162.243 3.4.486.73 1.946.73 2.432.73v.73c-1.216 0-2.918-.243-4.378-.243-1.464-.063-2.93.02-4.378.243v-.486zm18.24 1.216c-4.864 0-7.783-2.918-7.783-8.026 0-3.9 2.2-8.512 8.026-8.512 4.864 0 7.783 2.918 7.783 8.026.004 3.9-2.185 8.512-8.022 8.512zm.243-14.835c-.798-.06-1.587.202-2.2.73-1.216.973-1.946 2.918-1.946 5.837 0 .973.243 6.323 4.134 6.323a2.97 2.97 0 0 0 2.189-.73c1.216-.973 1.946-2.918 1.946-5.837.005-.973-.238-6.323-4.13-6.323zm9.485-.73a17.23 17.23 0 0 0 3.4-.243 10.95 10.95 0 0 1 1.946-.486l.243.243v1.46a4.39 4.39 0 0 1 3.648-1.7 3.32 3.32 0 0 1 2.675.973v.486l-1.216 2.432h-.73a2.97 2.97 0 0 0-2.675-1.459 3.52 3.52 0 0 0-1.7.486v8.026c0 2.2 0 3.162.243 3.4.486.73 1.7.73 2.432.73v.973c-.973 0-2.918-.243-4.378-.243-1.464-.04-2.928.04-4.378.243v-.973c.973 0 1.46-.243 1.7-.73.73-.486.73-1.7.73-4.378v-4.622c0-1.946 0-2.918-.243-3.162s-.73-.486-1.946-.486v-.973zm22.132-8.755a25.3 25.3 0 0 0 3.648-.486c.973-.243 1.46-.243 1.7-.486l.243.243c-.223 2.1-.304 4.212-.243 6.323v12.9c0 1.946 0 3.162.243 3.4s.73.486 1.946.486v.973c-.973 0-2.2.243-3.4.243-.73.243-1.46.243-1.7.486l-.486-.243v-1.216c-1.293.9-2.8 1.394-4.378 1.46-4.378 0-7.053-2.918-7.053-7.783a13.77 13.77 0 0 1 .73-4.378 7.85 7.85 0 0 1 7.54-4.62c1.216 0 2.432.243 3.162.243v-2.92a10.17 10.17 0 0 0-.243-3.4c-.243-.243-.486-.486-1.7-.486zm-.486 21.888a5.54 5.54 0 0 0 2.675-.73V50.364a4.53 4.53 0 0 0-3.162-.973c-3.162 0-4.62 1.946-4.62 6.323.004 1.947.494 5.838 5.112 5.838zm-86.58.486a5.65 5.65 0 0 1-4.378 1.7q-3.648 0-4.378-2.918a10.9 10.9 0 0 1-.243-2.918v-8.026H97.42v-.73a7.13 7.13 0 0 0 1.946-.973 12.53 12.53 0 0 0 2.918-3.89h.73v3.648h5.35v1.946h-5.35v8.27c0 2.432.486 3.9 2.675 3.9a4.11 4.11 0 0 0 2.189-.486zm75.396 14.84c-.268-.033-.536.056-.73.243-.243.243-.243.243-.243.486a1.84 1.84 0 0 0 .243.973l1.46 3.9c.27.444.436.942.486 1.46l1.7-5.35c.243-.73.243-.73.243-.973s0-.243-.243-.486c-.194-.187-.462-.276-.73-.243v-.486h3.9v.486c-.243 0-.973 0-1.46 1.46l-3.9 10.458c-.486 1.46-1.216 3.4-3.9 3.4a3.63 3.63 0 0 1-2.432-.73v-.243l.973-1.216h.243c.175.643.798 1.06 1.46.973 1.216 0 1.7-.973 2.675-3.4l.243-.487-3.4-8.512v-.243a2.45 2.45 0 0 0-.243-.73c-.243-.487-.486-.487-.973-.487v-.486h4.62zm-35.994-.243a6.72 6.72 0 0 0 2.19-.243 10.9 10.9 0 0 0 1.216-.243h.243v.973a3.24 3.24 0 0 1 2.432-.973 2.21 2.21 0 0 1 1.7.73v.243l-.73 1.46h-.486a1.75 1.75 0 0 0-1.7-.973 2.19 2.19 0 0 0-1.216.243v5.107c0 1.216 0 1.946.243 2.2.243.486 1.216.486 1.7.486v.486H148v-.486a1.86 1.86 0 0 0 1.216-.486c.243-.243.243-1.216.243-2.918V79.3c0-1.216 0-1.7-.243-1.946s-.486-.243-1.216-.487v-.243zm-45.236 9.967q-4.378 0-5.107-2.918a13.87 13.87 0 0 1-.243-3.162v-5.35c0-1.7 0-1.946-.486-2.2-.243 0-.486-.243-.973-.243v-.486h5.107v.486c-.486 0-.73 0-.973.486-.242.244-.242.974-.242 2.676v4.864c0 2.918.243 4.62 3.4 4.62s3.4-1.946 3.4-4.864v-5.35c0-1.7 0-1.946-.486-2.2-.243 0-.73-.243-.973-.243v-.486h4.63v.486c-.486 0-.73 0-.973.486-.243.243-.243.973-.243 2.675v4.135a10.71 10.71 0 0 1-.486 3.891c-.974 1.703-2.676 2.676-5.35 2.676zm19.456-.73a1.86 1.86 0 0 0 1.216-.486c.243-.243.243-1.216.243-2.918V79.55c0-1.216 0-1.946-.243-2.2s-.486-.243-1.216-.487v-.486c.818.018 1.634-.064 2.432-.243.486 0 .73-.243 1.216-.243l.243.243v6.8c0 1.216 0 1.946.243 2.2a1.86 1.86 0 0 0 1.216.486v.486h-5.107v-.243zm2.432-11.43a1.15 1.15 0 0 1-1.216-1.216c0-.73.486-1.216 1.46-1.216a1.15 1.15 0 0 1 1.216 1.216 1.54 1.54 0 0 1-1.459 1.217zm40.372 11.43a1.86 1.86 0 0 0 1.216-.486c.243-.243.243-1.216.243-2.918V79.55c0-1.216 0-1.946-.243-2.2s-.486-.243-1.216-.487v-.486c.818.018 1.634-.064 2.432-.243.487 0 .73-.243 1.216-.243l.243.243v6.8c0 1.216 0 1.946.243 2.2a1.86 1.86 0 0 0 1.216.486v.486h-5.107v-.243zm2.675-11.43a1.15 1.15 0 0 1-1.216-1.216c0-.73.486-1.216 1.46-1.216a1.15 1.15 0 0 1 1.216 1.216 1.54 1.54 0 0 1-1.459 1.217zm-10.944 11.675a8.32 8.32 0 0 0-.243-2.675h.73a1.86 1.86 0 0 0 .486 1.216 2.21 2.21 0 0 0 1.7.73h0c1.216 0 1.7-.486 1.7-1.46 0-.73-.486-.973-1.216-1.46l-1.46-.973a3.13 3.13 0 0 1-1.7-2.675 2.44 2.44 0 0 1 1.459-2.432c.63-.186 1.288-.268 1.946-.243a9.98 9.98 0 0 1 2.675.243v2.675h-.73a1.34 1.34 0 0 0-.486-1.216c-.5-.34-1.096-.5-1.7-.486-.973 0-1.46.486-1.46 1.216s.487.973.973 1.216h0l1.46.73a3.02 3.02 0 0 1 1.946 2.918c0 2.675-2.432 3.162-3.9 3.162a19.81 19.81 0 0 1-2.19-.488zm21.4-.73c-.243.486-.973 1.216-2.675 1.216-1.247.166-2.448-.533-2.918-1.7-.2-.628-.283-1.288-.243-1.946V77.85h-1.216v-.486a5.31 5.31 0 0 0 1.216-.73 10.61 10.61 0 0 0 1.946-2.432h.486v2.2h3.405v1.216h-3.405v5.35c0 1.7.243 2.432 1.7 2.432.53.033 1.054-.14 1.46-.486zm-45.966-9h-4.618v.486s.73 0 .973.487a.85.85 0 0 0 .243.486c0 .243 0 .243.243.243l3.162 8.27.973-.243 3.648-8.026v-.243a1.88 1.88 0 0 1 .243-.73c.243-.487.73-.73.973-.487v-.73H133.9v.486a2.45 2.45 0 0 1 .73.243.85.85 0 0 1 .243.487 1.84 1.84 0 0 1-.243.973l-1.946 4.864a4.11 4.11 0 0 0-.486-1.216l-1.46-3.648a1.84 1.84 0 0 1-.243-.973c0-.243 0-.243.243-.243.243-.243.486-.243.973-.243zm-22.13.492c.658.025 1.315-.057 1.946-.243a2.61 2.61 0 0 0 1.459-.486h.243v.73a4.11 4.11 0 0 1 2.918-.973 3.18 3.18 0 0 1 3.405 2.432c0 .486.243 1.216.243 1.7v2.918c0 1.7 0 2.2.486 2.432.243.243.486.243.973.243v.486h-4.863v-.486c.383-.006.742-.186.977-.488.243-.243.243-.973.487-2.2v-3.9c-.243-1.216-.73-1.946-2.2-1.946-.68-.017-1.353.15-1.946.486v5.35c0 1.7 0 2.2.486 2.432.243.243.486.243.973.243v.486h-4.868v-.486c.486 0 .973-.243.973-.486.243-.243.243-1.216.243-2.918v-2.918c0-1.216 0-1.7-.243-1.946a1.43 1.43 0 0 0-1.216-.482h-.486zm33.076 9.728c-2.918 0-4.62-1.7-4.62-4.864 0-.486.243-5.594 4.864-5.594 1.244-.144 2.464.42 3.162 1.46a6.34 6.34 0 0 1 .73 2.675v.486H140.7v1.2a3.08 3.08 0 0 0 3.4 2.918 7.2 7.2 0 0 0 2.432-.486l.243.486a5.74 5.74 0 0 1-3.886 1.706zm-2.432-6.8h3.9c0-1.216-.243-2.675-1.946-2.675-1.702.24-1.945 1.7-1.945 2.672z" fill="#8f8e91"/></svg>