<svg xmlns="http://www.w3.org/2000/svg" width="242" height="130"><path d="M48.457 75.63a6.1 6.1 0 0 1-1.843-2.083L42 54.113h5.4l1.692 9.194 1.328 7.832h.067l1.46-7.866 1.892-9.16h5.376l1.792 9.426 1.2 7.5h.066l1.295-7.766 1.825-9.16h5.144l-5.776 22.37s-4.453-.216-4.612-.773a4.53 4.53 0 0 1-1.441-2.162c-.42-1.653-1.315-6.7-1.315-6.7l-1.062-6.9h-.066l-1.295 6.9-2.125 9.625c-1.497-.1-2.976-.376-4.398-.85zm35.583-3.1a25.14 25.14 0 0 0 .232 3.95h-4.546l-.3-1.627h-.1a5.84 5.84 0 0 1-4.646 1.99c-1.366.074-2.702-.418-3.695-1.36a4.97 4.97 0 0 1-1.55-3.62c0-4.214 3.784-6.24 9.526-6.205v-.232c0-.863-.465-2.1-2.954-2.1a9.13 9.13 0 0 0-4.48 1.228l-.93-3.252c1.954-.984 4.12-1.474 6.306-1.427 5.4 0 7.136 3.186 7.136 7zm-4.912-3.717c-2.655-.033-4.713.6-4.713 2.555a1.81 1.81 0 0 0 1.991 1.925 2.76 2.76 0 0 0 2.622-1.86 3.64 3.64 0 0 0 .1-.863zm7.234-15.895h5.045v23.564h-5.045zm7.466 12.512l-.132-5.177h4.248l.233 2.2h.1a5.63 5.63 0 0 1 4.912-2.555 4.6 4.6 0 0 1 4.447 2.754h.067c.55-.793 1.264-1.46 2.1-1.958a5.86 5.86 0 0 1 3.087-.8c3.12 0 5.476 2.2 5.476 7.036v9.558h-4.912V67.65c0-2.357-.763-3.718-2.4-3.718a2.47 2.47 0 0 0-2.323 1.759c-.134.42-.2.856-.2 1.295v9.492h-4.916v-9.094c0-2.058-.73-3.452-2.323-3.452a2.57 2.57 0 0 0-2.357 1.825c-.147.404-.214.832-.2 1.26v9.46h-4.913zm40.976 7.1a25.02 25.02 0 0 0 .234 3.95H130.5l-.3-1.627h-.1c-1.167 1.333-2.876 2.066-4.646 2-1.366.074-2.702-.418-3.695-1.36a4.97 4.97 0 0 1-1.55-3.62c0-4.214 3.783-6.24 9.526-6.205v-.232c0-.863-.465-2.1-2.953-2.1a9.13 9.13 0 0 0-4.482 1.228l-.93-3.252c1.954-.984 4.12-1.474 6.306-1.427 5.4 0 7.135 3.186 7.135 7zm-4.9-3.717c-2.655-.033-4.712.6-4.712 2.555a1.81 1.81 0 0 0 1.991 1.925c1.183.007 2.238-.742 2.622-1.86a3.6 3.6 0 0 0 .1-.863zm7.234-3.218l-.133-5.343h4.347l.166 2.987h.132a4.77 4.77 0 0 1 4.382-3.352 5.23 5.23 0 0 1 1.062.066v4.78a5.04 5.04 0 0 0-1.361-.166 3.25 3.25 0 0 0-3.45 2.555c-.07.372-.103.75-.1 1.13v8.23h-5.045zm11.8-5.342V57.2l4.946-1.36v4.414h3.617v3.717h-3.617v5.873c0 1.96.464 2.855 2 2.855a6.4 6.4 0 0 0 1.494-.132l.033 3.816a9.71 9.71 0 0 1-3.286.465 5.26 5.26 0 0 1-3.783-1.427c-.93-.962-1.394-2.523-1.394-4.812v-6.64" fill="#8f8e91"/><path d="M184.497 57.888a1.2 1.2 0 0 1-1.006 1.2 5.24 5.24 0 0 1-.8.1 4.8 4.8 0 0 1-.964-.1 1.2 1.2 0 0 1-1.006-1.2l-.856-10.686c.003-.343.15-.67.406-.898a1.22 1.22 0 0 1 .938-.302h2.8c.34-.036.682.073.94.302a1.21 1.21 0 0 1 .406.898zm5.667 5.616a1.2 1.2 0 0 1-1.547-.245 5.15 5.15 0 0 1-.5-.638 4.79 4.79 0 0 1-.411-.878 1.2 1.2 0 0 1 .516-1.481l8.726-6.228c.296-.175.652-.216.98-.114s.598.338.742.65l1.44 2.4c.206.275.287.624.222.96s-.27.63-.564.8zm-2.1 7.016a1.2 1.2 0 0 1-.512-1.481 5.11 5.11 0 0 1 .329-.741 4.75 4.75 0 0 1 .58-.774 1.2 1.2 0 0 1 1.549-.242l9.6 4.772c.294.178.498.473.562.8s-.017.686-.224.96l-1.443 2.4a1.22 1.22 0 0 1-.743.648c-.328.102-.684.06-.98-.116zm-7.343 2.25a1.2 1.2 0 0 1 1.006-1.2 5.24 5.24 0 0 1 .8-.1 4.79 4.79 0 0 1 .964.1 1.2 1.2 0 0 1 1 1.2l.855 10.686c-.003.343-.15.67-.406.897s-.596.338-.937.303h-2.8c-.34.036-.682-.074-.938-.303s-.403-.554-.406-.897zm-5.684-9.266a1.2 1.2 0 0 0 1.548-.245 5.2 5.2 0 0 0 .5-.638 4.82 4.82 0 0 0 .411-.878 1.2 1.2 0 0 0-.516-1.481l-8.726-6.228c-.296-.175-.652-.216-.98-.114s-.598.338-.742.65l-1.44 2.4a1.22 1.22 0 0 0 .34 1.771zm2.102 7.016a1.2 1.2 0 0 0 .512-1.481 5.11 5.11 0 0 0-.329-.741 4.76 4.76 0 0 0-.582-.774 1.2 1.2 0 0 0-1.548-.242l-9.6 4.772c-.293.18-.497.473-.56.8a1.22 1.22 0 0 0 .224.96l1.443 2.4a1.22 1.22 0 0 0 .743.648c.328.1.684.06.98-.116z" fill="#c9c9ca"/></svg>