<svg xmlns="http://www.w3.org/2000/svg" width="64" height="64"><path d="M32 0c17.673 0 32 14.327 32 32S49.673 64 32 64 0 49.673 0 32 14.327 0 32 0z" fill="#e37400"/><path d="M36.368 20.317v20.84c-.075.93.24 1.848.87 2.537s1.515 1.085 2.447 1.095A3.32 3.32 0 0 0 43 41.158V20.475A3.32 3.32 0 0 0 39.684 17a3.37 3.37 0 0 0-3.316 3.317z" fill="#f9ab00"/><g fill="#fff"><path d="M27.684 30.896V41.16c-.075.93.24 1.848.87 2.537S30.068 44.78 31 44.79a3.32 3.32 0 0 0 3.316-3.632v-10.1A3.32 3.32 0 0 0 31 27.585a3.37 3.37 0 0 0-3.316 3.311z"/><circle cx="22.316" cy="41.475" r="3.316"/></g></svg>