<svg xmlns="http://www.w3.org/2000/svg" width="184.885" height="38.219"><path d="M16.895 8.205c-5.17 1.008-8.897 5.545-8.88 10.812a11.11 11.11 0 0 0 22.01 2.124h8.205c-1.096 9.974-9.698 17.416-19.726 17.065S.413 29.83.017 19.804 7.022 1.142 16.99 0z" fill="#686868"/><g fill="#bababa"><path d="M21.046 0a19.02 19.02 0 0 1 9.943 4.054l-5.792 5.793c-1.243-.87-2.66-1.463-4.15-1.738z" opacity=".75"/><path d="M33.885 6.95a19.13 19.13 0 0 1 4.151 9.943H29.83c-.274-1.492-.867-2.908-1.737-4.15z" opacity=".5"/></g><path d="M53.952 27.307c-.156 0-.312 0-.467-.012a5.86 5.86 0 0 1-5.458-6.238c0-4.1 2.84-6.3 5.966-6.3 2.048.002 3.985.926 5.276 2.516v-3.5a8.93 8.93 0 0 0-5.235-1.624h-.326a8.87 8.87 0 0 0-7.44 13.444 8.87 8.87 0 0 0 7.766 4.291 9 9 0 0 0 5.357-1.745v-3.5a7.18 7.18 0 0 1-5.439 2.638zM69.335 12.17c-5.072 0-8.157 3.9-8.157 8.928 0 6.25 4.26 8.807 8.32 8.807a8.19 8.19 0 0 0 5.6-2.07 10.08 10.08 0 0 0 2.069-2.719l-2.436-1.34c-.407.9-1.002 1.68-1.745 2.314a5.12 5.12 0 0 1-3.45 1.217c-2.922 0-5.316-2.23-5.357-5.722H77.3a11.32 11.32 0 0 0-1.583-6.331 7.54 7.54 0 0 0-6.372-3.085zm-4.957 6.975a5.12 5.12 0 0 1 4.956-4.378 5.04 5.04 0 0 1 4.95 4.383zm23.502-6.977a5.94 5.94 0 0 0-4.829 2.354V12.58H80.13v16.843h2.922v-8.807a7.1 7.1 0 0 1 1.216-4.545c.735-.867 1.828-1.347 2.964-1.3a3.3 3.3 0 0 1 2.76 1.218 4.94 4.94 0 0 1 .77 3.085v10.344h2.922V18.98a7.52 7.52 0 0 0-.974-4.5 5.72 5.72 0 0 0-4.83-2.311zm15.85 15.354c-2.516 0-3.157-2.22-3.157-4.705v-.46h.006V15.25h2.92v-2.678h-2.92V6.485h-2.926v6.088H95.87v2.678h1.785v7.47c0 2.28.508 4.363 1.883 5.672a5.66 5.66 0 0 0 3.959 1.513c.86.004 1.715-.156 2.516-.47l-.4-2.286a4.32 4.32 0 0 1-1.881.373zM109.566 6a2.07 2.07 0 1 0 2.07 2.07 2.08 2.08 0 0 0-2.07-2.07zm-1.46 6.574h2.922v16.842h-2.922zm23.583-.406a5.62 5.62 0 0 0-5.073 2.72 5.05 5.05 0 0 0-4.586-2.72 4.89 4.89 0 0 0-4.18 2.192v-1.78h-2.922v16.84h2.926v-9.17c0-2.03.365-5.48 3.693-5.48 3.084 0 3.044 3.5 3.044 4.667v9.984h2.922v-9.375c0-2.03.365-5.276 3.733-5.276 2.756 0 3 2.516 3 4.424V29.42h2.922V18.743c0-2.394-.487-6.575-5.48-6.575zm16.518.002c-5.073 0-8.157 3.9-8.157 8.928 0 6.25 4.26 8.807 8.32 8.807a8.19 8.19 0 0 0 5.6-2.07 10.07 10.07 0 0 0 2.07-2.72l-2.44-1.336a6.7 6.7 0 0 1-1.745 2.314 5.12 5.12 0 0 1-3.45 1.217c-2.922 0-5.316-2.23-5.358-5.722h13.113a11.32 11.32 0 0 0-1.583-6.331 7.54 7.54 0 0 0-6.368-3.088zm-4.953 6.98a5.12 5.12 0 0 1 4.951-4.383 5.04 5.04 0 0 1 4.952 4.383zm23.493-6.982a5.94 5.94 0 0 0-4.829 2.354V12.58h-2.922v16.843h2.922v-8.807a7.1 7.1 0 0 1 1.218-4.545 3.68 3.68 0 0 1 2.963-1.3 3.3 3.3 0 0 1 2.76 1.218 4.94 4.94 0 0 1 .77 3.085v10.344h2.922V18.98a7.52 7.52 0 0 0-.974-4.5 5.72 5.72 0 0 0-4.831-2.311zm17.74 14.982a4.54 4.54 0 0 1-1.885.368c-2.514 0-3.15-2.215-3.15-4.7v-7.564h2.918V12.58h-2.918v-6.1h-2.923v6.1h-1.788v2.68h1.788v7.46c0 2.285.5 4.37 1.878 5.68a5.65 5.65 0 0 0 3.963 1.506 6.9 6.9 0 0 0 2.518-.468z"/></svg>