<svg xmlns="http://www.w3.org/2000/svg" width="64" height="64"><circle cx="32" cy="32" r="32" fill="#fff"/><path d="M30.348 19.04L18.57 23.913a.79.79 0 0 0 .011 1.463l11.827 4.69a4.39 4.39 0 0 0 3.236 0l11.826-4.69a.79.79 0 0 0 .011-1.463L33.704 19.04a4.39 4.39 0 0 0-3.357 0" fill="#fecc2f"/><path d="M33.075 32.632v11.714a.79.79 0 0 0 1.08.734l13.18-5.116a.79.79 0 0 0 .5-.734V27.512a.79.79 0 0 0-1.08-.734l-13.183 5.116a.79.79 0 0 0-.5.734" fill="#31c2f2"/><path d="M29.997 33.232l-4.312 2.08-8.254 3.957c-.252.12-.546.105-.785-.038s-.392-.395-.407-.673v-11c.007-.204.1-.395.253-.53a.89.89 0 0 1 .2-.15.84.84 0 0 1 .718-.055l12.522 4.96a.79.79 0 0 1 .066 1.444" fill="#ee314a"/><path d="M29.997 33.232l-3.912 1.89-9.593-8.09a.89.89 0 0 1 .2-.15.84.84 0 0 1 .718-.055l12.522 4.96a.79.79 0 0 1 .066 1.444" fill="#b22537"/></svg>