<svg xmlns="http://www.w3.org/2000/svg" width="64" height="64"><path d="M32 0c17.673 0 32 14.327 32 32S49.673 64 32 64 0 49.673 0 32 14.327 0 32 0z" fill="#fff"/><path d="M44 46.472a1.93 1.93 0 0 1-1.93 1.93H21.93a1.93 1.93 0 0 1-1.93-1.93V16.938a1.93 1.93 0 0 1 1.93-1.93h12.95l9.12 9.34V46.47z" fill="#23a566"/><path d="M35.885 24.113L44 31.866l-.024-7.528h-7.183a1.92 1.92 0 0 1-.9-.225z" fill="#1c8f5a"/><path d="M44 24.338h-7.21a1.93 1.93 0 0 1-1.93-1.93V15l9.137 9.338z" fill="#8ed1b1"/><path d="M38.24 42.225H25.76v-10.8H38.24v10.8zm-5.473-9.266v1.93h3.925v-1.93zm0 3.088v1.8h3.925v-1.8zm0 2.96v1.673h3.925v-1.673zm-1.544 1.673v-1.673H27.3v1.673zm0-2.83v-1.8H27.3v1.8zm0-2.96v-1.93H27.3v1.93z" fill="#fff" fill-rule="evenodd"/></svg>