<svg xmlns="http://www.w3.org/2000/svg" width="242" height="130"><g fill="#8f8e91" fill-rule="evenodd"><path d="M82.672 55.85V50.1h6.1v5.75zm9.943 23.002V59.205h6.07v19.647zM52.996 50.1h6.07v28.753h-6.07V50.1zm19.812 28.753V50.1h6.07v28.753zm-9.905-9.105V50.1h6.07v19.648zm29.67-13.898V50.1h16.013v5.75zM128.227 50v6.922h-1.657l.108-4.932.02-.7-.06.246-.178.735-1.3 4.647h-1.5l-1.255-4.45-.3-1.236.06 1.323.1 4.364h-1.677V50h2.53l1.06 3.883.245 1.107.187-.853L125.716 50zm1.323 3.255a1.42 1.42 0 0 1 .54-1.137 2.63 2.63 0 0 1 1.677-.451c.627 0 2.146.147 2.146 1.47v2.98c0 .55.03.628.148.8h-1.48v-.47a2.41 2.41 0 0 1-1.57.607c-.434.034-.862-.115-1.18-.4s-.498-.712-.496-1.147c.032-.662.457-1.24 1.078-1.47a13.34 13.34 0 0 1 2.021-.471V53.3c-.02-.235-.04-.628-.578-.628-.667 0-.755.412-.8.6zm1.9 1.54c-.255.1-.648.246-.648.638a.55.55 0 0 0 .569.52.99.99 0 0 0 .521-.167c.5-.314.52-.784.53-1.313l-.97.323zm4.1.4a2.19 2.19 0 0 0 1.49.706c.363 0 .912-.118.912-.5.001-.13-.08-.247-.2-.294a3.25 3.25 0 0 0-.872-.2 5.9 5.9 0 0 1-.687-.157 1.93 1.93 0 0 1-.853-.442 1.38 1.38 0 0 1-.382-.96c0-.844.725-1.716 2.156-1.716a3.75 3.75 0 0 1 2.286.765l-.93.863c-.36-.307-.812-.486-1.285-.5-.588 0-.725.236-.725.382 0 .294.323.353.813.442 1.03.186 2.226.46 2.226 1.677s-1.215 1.794-2.422 1.794c-.928.025-1.825-.333-2.48-1l.95-.863zm5.1 0a2.19 2.19 0 0 0 1.5.706c.363 0 .912-.118.912-.5.001-.13-.08-.247-.2-.294a3.25 3.25 0 0 0-.873-.2 5.91 5.91 0 0 1-.686-.157 1.93 1.93 0 0 1-.853-.442 1.38 1.38 0 0 1-.383-.961c0-.844.725-1.716 2.158-1.716a3.75 3.75 0 0 1 2.285.765l-.932.863c-.36-.307-.812-.486-1.285-.5-.588 0-.725.236-.725.382 0 .294.324.353.813.442 1.03.186 2.226.46 2.226 1.677s-1.215 1.794-2.422 1.794c-.928.025-1.825-.333-2.48-1l.95-.863zm4.823-1.94c-.006-.442.193-.862.54-1.137a2.63 2.63 0 0 1 1.677-.451c.627 0 2.147.147 2.147 1.47v2.98c0 .55.03.628.147.8h-1.48v-.47a2.41 2.41 0 0 1-1.569.607 1.58 1.58 0 0 1-1.18-.4c-.318-.286-.5-.713-.496-1.148.032-.662.457-1.24 1.08-1.47a13.07 13.07 0 0 1 2.02-.47V53.3c-.02-.235-.04-.628-.58-.628-.666 0-.755.412-.794.6zm1.913 1.54c-.256.1-.648.246-.648.638a.55.55 0 0 0 .57.52.99.99 0 0 0 .52-.167c.5-.314.52-.784.53-1.313l-.97.323zm8.296.922a2.94 2.94 0 0 1-.8.912 2.54 2.54 0 0 1-1.47.46 2.48 2.48 0 0 1-1.87-.77c-.486-.512-.73-1.205-.67-1.907-.07-.716.172-1.428.664-1.954s1.186-.814 1.905-.792a2.45 2.45 0 0 1 2.187 1.226l-1.118.637c-.1-.217-.24-.403-.432-.538a1 1 0 0 0-.569-.177c-.814 0-1.1.93-1.1 1.55 0 .677.334 1.53 1.138 1.53a1.01 1.01 0 0 0 .765-.353 1.1 1.1 0 0 0 .226-.411l1.137.588zM157.44 50v2.354a1.96 1.96 0 0 1 1.471-.677c.394-.008.778.12 1.088.363.413.395.6.964.53 1.53v3.363h-1.5v-2.677c.02-.263-.005-.528-.07-.784a.71.71 0 0 0-.706-.51c-.24-.002-.468.107-.618.294a1.99 1.99 0 0 0-.2 1.127v2.55h-1.5V50zm7.47 1.814h1.5v5.118h-1.5v-.5a1.39 1.39 0 0 1-.511.4c-.3.155-.633.235-.97.235a1.56 1.56 0 0 1-1.3-.539c-.28-.45-.4-.985-.313-1.5v-3.216h1.52v3.175c-.025.2.016.422.118.607a.75.75 0 0 0 .6.255c.182.005.362-.04.52-.127.248-.153.383-.437.343-.726V51.8zm3.125 3.392a2.19 2.19 0 0 0 1.5.706c.363 0 .912-.118.912-.5.001-.13-.08-.247-.2-.294a3.23 3.23 0 0 0-.872-.2 5.89 5.89 0 0 1-.686-.157 1.92 1.92 0 0 1-.853-.442 1.38 1.38 0 0 1-.383-.961c0-.844.726-1.716 2.157-1.716a3.75 3.75 0 0 1 2.286.765l-.932.863a2.07 2.07 0 0 0-1.285-.5c-.588 0-.725.236-.725.382 0 .294.324.353.814.442 1.03.186 2.226.46 2.226 1.677s-1.216 1.794-2.422 1.794a3.37 3.37 0 0 1-2.481-.99l.95-.863zm9.633.422c-.173.28-.38.537-.617.766-.53.478-1.22.737-1.932.725-.7.044-1.403-.223-1.9-.732s-.748-1.208-.688-1.916a2.56 2.56 0 0 1 2.628-2.823 2.48 2.48 0 0 1 1.842.736 3.42 3.42 0 0 1 .726 2.294h-3.657a1.15 1.15 0 0 0 .296.9c.223.243.54.38.87.374.58.008 1.1-.354 1.295-.9l1.137.578zm-1.5-1.892a1.21 1.21 0 0 0-.284-.726c-.2-.185-.463-.287-.736-.284a1.04 1.04 0 0 0-.764.333 1.36 1.36 0 0 0-.3.677zm2.618-3.403h1.5v1.6h1v.92h-1v2.305c-.01.314-.01.58.392.58l.54-.02v1.176a4.76 4.76 0 0 1-.794.079 1.56 1.56 0 0 1-1.412-.5 1.97 1.97 0 0 1-.216-1.157v-2.47h-.745v-.93h.745V50.33z"/><path d="M181.668 50.333h1.5v1.6h1v.92h-1v2.305c-.01.314-.01.58.392.58l.54-.02v1.176a4.77 4.77 0 0 1-.8.079c-.525.084-1.057-.104-1.412-.5a1.98 1.98 0 0 1-.215-1.157v-2.47h-.745v-.93h.745V50.33zm3.55 4.873a2.19 2.19 0 0 0 1.5.706c.363 0 .913-.118.913-.5.001-.13-.08-.247-.2-.294a3.22 3.22 0 0 0-.872-.2 5.84 5.84 0 0 1-.687-.157 1.93 1.93 0 0 1-.853-.442 1.38 1.38 0 0 1-.382-.961c0-.844.725-1.716 2.156-1.716a3.75 3.75 0 0 1 2.286.765l-.932.863a2.07 2.07 0 0 0-1.284-.5c-.588 0-.725.236-.725.382 0 .294.323.353.813.442 1.03.186 2.226.46 2.226 1.677s-1.215 1.794-2.422 1.794c-.928.025-1.825-.333-2.48-1l.952-.863zm-62.853 5.702v6.922h-1.728v-6.922zm2.893 2.266c.138-.17.312-.306.5-.4a2.52 2.52 0 0 1 .93-.186 2 2 0 0 1 .913.206c.54.284.676.745.676 1.54v3.5h-1.5V64.95c.025-.257.002-.517-.07-.765-.12-.26-.4-.416-.676-.393-.794 0-.794.638-.794 1.275v2.765h-1.512v-5.1h1.52v.452zm4.646 2.93a2.19 2.19 0 0 0 1.492.707c.363 0 .912-.12.912-.5.001-.13-.08-.247-.2-.294a3.28 3.28 0 0 0-.872-.2c-.232-.04-.46-.1-.686-.157-.318-.072-.612-.224-.854-.442a1.38 1.38 0 0 1-.382-.96c0-.843.725-1.715 2.157-1.715.825-.004 1.628.265 2.285.765l-.93.862a2.07 2.07 0 0 0-1.285-.5c-.588 0-.726.235-.726.383 0 .294.324.352.813.44 1.03.187 2.226.46 2.226 1.677s-1.216 1.794-2.422 1.794a3.37 3.37 0 0 1-2.48-.991l.95-.863zm5.03-4.875h1.5v1.6h1v.92h-1v2.305c-.01.314-.01.58.392.58l.54-.02v1.177a4.86 4.86 0 0 1-.794.078c-.525.084-1.057-.104-1.412-.5a1.98 1.98 0 0 1-.216-1.157v-2.47h-.745v-.922h.745v-1.6zm3.306-.33h1.5v1.166h-1.5V60.9zm0 1.8h1.5v5.13h-1.5V62.7zm3.028-1.47h1.5v1.6h1v.92h-1v2.305c-.01.314-.01.58.392.58l.54-.02v1.177a4.85 4.85 0 0 1-.794.078c-.525.084-1.058-.104-1.413-.5-.187-.355-.263-.758-.216-1.157v-2.47h-.745v-.922h.745v-1.6zm6.344 1.482h1.5v5.12h-1.5v-.5c-.136.172-.3.3-.5.4a2.1 2.1 0 0 1-.97.235 1.56 1.56 0 0 1-1.3-.538 2.24 2.24 0 0 1-.314-1.511V62.7h1.52v3.177c-.025.2.016.423.118.608a.75.75 0 0 0 .6.255 1.01 1.01 0 0 0 .52-.128c.248-.152.383-.437.343-.726V62.7zm3.05-1.482h1.5v1.6h1v.92h-1v2.305c-.01.314-.01.58.393.58l.54-.02v1.177a4.84 4.84 0 0 1-.794.078c-.525.084-1.057-.104-1.412-.5a1.98 1.98 0 0 1-.216-1.157v-2.47h-.745v-.922h.745v-1.6zm8.07 5.297a4.03 4.03 0 0 1-.618.765c-.53.478-1.22.737-1.932.725a2.46 2.46 0 0 1-1.9-.73c-.497-.507-.748-1.208-.7-1.916a2.56 2.56 0 0 1 2.628-2.823 2.47 2.47 0 0 1 1.843.734c.5.652.77 1.468.725 2.295h-3.657a1.15 1.15 0 0 0 .296.9c.223.243.54.38.87.374.58.008 1.1-.354 1.295-.9l1.137.58zm-1.5-1.893a1.22 1.22 0 0 0-.284-.726c-.2-.185-.463-.287-.735-.284a1.04 1.04 0 0 0-.765.332 1.36 1.36 0 0 0-.3.677zm10.236.633a2.75 2.75 0 1 1-2.549-2.706 2.56 2.56 0 0 1 2.549 2.706zm-3.726-1a1.86 1.86 0 0 0-.256 1c0 .814.393 1.53 1.236 1.53.814 0 1.216-.656 1.216-1.46a1.73 1.73 0 0 0-.422-1.285 1.1 1.1 0 0 0-.882-.285 1.02 1.02 0 0 0-.893.5zm4.952-2.065a1.48 1.48 0 0 1 .215-.872c.33-.37.818-.564 1.314-.52a6.79 6.79 0 0 1 .9.09v1.127h-.363c-.57 0-.6.117-.588.8h1v.92h-1v4.08h-1.5v-4.08h-.8v-.92h.814V62.2zm-49.952 9.702h5.334v1.373h-1.795v5.56h-1.735v-5.56h-1.8v-1.373zm10.09 5.628a4.03 4.03 0 0 1-.618.765 2.81 2.81 0 0 1-1.932.726 2.45 2.45 0 0 1-1.9-.73c-.497-.507-.75-1.207-.7-1.916a2.56 2.56 0 0 1 2.628-2.824c.7-.02 1.358.245 1.844.736.5.652.768 1.466.725 2.293h-3.658a1.15 1.15 0 0 0 .296.9c.223.243.54.38.872.374.58.008 1.1-.354 1.294-.9l1.137.578zm-1.5-1.892a1.22 1.22 0 0 0-.284-.725 1.06 1.06 0 0 0-.736-.285 1.04 1.04 0 0 0-.765.333 1.35 1.35 0 0 0-.3.677zm6.903 2a2.92 2.92 0 0 1-.8.913 2.55 2.55 0 0 1-1.471.46c-.704.02-1.384-.26-1.87-.77a2.46 2.46 0 0 1-.67-1.907 2.5 2.5 0 0 1 2.569-2.745c.9-.024 1.74.447 2.187 1.226l-1.117.637a1.25 1.25 0 0 0-.432-.539 1 1 0 0 0-.569-.177c-.813 0-1.088.932-1.088 1.55 0 .677.333 1.53 1.137 1.53a1.01 1.01 0 0 0 .765-.353 1.08 1.08 0 0 0 .225-.412l1.137.588zm1.748-5.726v2.353c.37-.426.906-.672 1.47-.676a1.72 1.72 0 0 1 1.089.363c.412.395.6.964.53 1.53v3.363h-1.5V76.16a2.47 2.47 0 0 0-.068-.784.71.71 0 0 0-.706-.511.78.78 0 0 0-.617.3 1.98 1.98 0 0 0-.2 1.127v2.55h-1.5V71.9zm5.952 2.274a1.47 1.47 0 0 1 .509-.4 2.49 2.49 0 0 1 .932-.187c.316-.007.63.064.912.206.54.285.676.745.676 1.54v3.5h-1.5v-2.88a2.01 2.01 0 0 0-.07-.764c-.122-.26-.4-.416-.676-.393-.8 0-.8.638-.8 1.275v2.764h-1.5v-5.112h1.52v.45zm9.53 2.1a2.75 2.75 0 1 1-2.549-2.706 2.56 2.56 0 0 1 2.549 2.706zm-3.725-1a1.85 1.85 0 0 0-.255 1c0 .814.392 1.53 1.236 1.53.813 0 1.215-.657 1.215-1.46a1.73 1.73 0 0 0-.422-1.285 1.1 1.1 0 0 0-.882-.284 1.02 1.02 0 0 0-.892.5zm6.216-3.355v6.923h-1.5v-6.923zm6.503 4.355a2.75 2.75 0 1 1-2.55-2.706 2.56 2.56 0 0 1 2.55 2.706zm-3.726-1a1.85 1.85 0 0 0-.256 1c0 .814.393 1.53 1.237 1.53.813 0 1.215-.657 1.215-1.46a1.73 1.73 0 0 0-.422-1.285 1.1 1.1 0 0 0-.882-.284 1.02 1.02 0 0 0-.892.5zm7.814 2.892a2.18 2.18 0 0 1-1.354.432 2.08 2.08 0 0 1-1.167-.334 2.37 2.37 0 0 1-.952-2.117 2.24 2.24 0 0 1 2.177-2.511 1.78 1.78 0 0 1 1.373.56v-.48h1.412v4.92c.083.655-.223 1.3-.785 1.647a3.67 3.67 0 0 1-1.745.393 2.78 2.78 0 0 1-1.961-.638c-.293-.328-.435-.763-.393-1.2h1.56a.76.76 0 0 0 .442.735 1.03 1.03 0 0 0 .48.1c.913 0 .913-.54.913-.96v-.55zm-1.913-2.03c0 .43.03 1.324.96 1.324.765 0 .94-.6.94-1.324.02-.343-.044-.687-.186-1a.9.9 0 0 0-.824-.373c-.716.03-.892.648-.892 1.373zm8.963-2.4l-1.805 5.53a2.53 2.53 0 0 1-.48.932 1.31 1.31 0 0 1-1.088.412h-1.1v-1.2h.53c.246-.01.628-.01.628-.373a1.4 1.4 0 0 0-.068-.363l-1.53-4.942h1.608l.843 3.667.844-3.667z"/></g><path d="M82.723 78.825V59.177h6.07v19.647z" fill="#c9c9ca" fill-rule="evenodd"/></svg>