<svg xmlns="http://www.w3.org/2000/svg" width="64" height="64"><path d="M32 0c17.673 0 32 14.327 32 32S49.673 64 32 64 0 49.673 0 32 14.327 0 32 0z" fill="#fff"/><path d="M34.164 20.1a3.41 3.41 0 0 0-1.015.15 1.71 1.71 0 0 1 .99 1.806c-.1.756-.705 1.348-1.46 1.452s-1.5-.304-1.8-1a3.43 3.43 0 1 0 3.285-2.407zm-8.588 3.405a1.71 1.71 0 0 1-1.67-1.36 1.72 1.72 0 0 1 .98-1.92c-1.503-.468-3.13.15-3.947 1.495s-.6 3.075.5 4.2 2.838 1.332 4.188.523 1.976-2.433 1.516-3.94a1.69 1.69 0 0 1-1.567 1zm9.444-7.875a11.99 11.99 0 0 0-12.038 0A11.9 11.9 0 0 0 17 14.033v12c0 13.255 10.745 24 24 24v-36a11.9 11.9 0 0 0-5.981 1.587zm-.88 13.046a5.12 5.12 0 0 1-2.744-.807l-2.407 2.393-2.393-2.407c-1.952 1.224-4.48 1-6.188-.547s-2.177-4.043-1.15-6.105 3.302-3.2 5.566-2.76 3.965 2.315 4.163 4.6l.022-.032.023.032c.256-2.77 2.668-4.835 5.445-4.66s4.912 2.523 4.82 5.304-2.376 4.985-5.158 4.976z"/></svg>