<svg xmlns="http://www.w3.org/2000/svg" width="64" height="64"><path d="M32 0c17.673 0 32 14.327 32 32S49.673 64 32 64 0 49.673 0 32 14.327 0 32 0z" fill="#0079bf"/><path d="M42.5 46h-21a3.5 3.5 0 0 1-3.5-3.5v-21a3.5 3.5 0 0 1 3.5-3.5h21a3.5 3.5 0 0 1 3.5 3.5v21a3.5 3.5 0 0 1-3.5 3.5zM23.32 21.64a1.68 1.68 0 0 0-1.68 1.68V39.2a1.68 1.68 0 0 0 1.68 1.68h5.18a1.68 1.68 0 0 0 1.679-1.68V23.32a1.68 1.68 0 0 0-1.679-1.68zm12.18 0a1.68 1.68 0 0 0-1.68 1.68v8.89a1.68 1.68 0 0 0 1.68 1.68h5.18a1.68 1.68 0 0 0 1.68-1.68v-8.89a1.68 1.68 0 0 0-1.68-1.68z" fill="#fff" stroke="rgba(0,0,0,0)" stroke-miterlimit="10"/></svg>