<svg xmlns="http://www.w3.org/2000/svg" width="242" height="130" fill-rule="evenodd"><path d="M145.425 76.447c-6.318 4.478-13.788 9.165-21.8 14.1l-.31.173a.25.25 0 0 0 .258.427l.02-.012.278-.14 22.5-12.117c.034-.034.07-.034.14-.07a9.69 9.69 0 0 1-1.084-2.363zm41.382-33.5c-9.93-10.97-73.842-1.1-101.03 4.826l-.622.14c-.092.004-.173.06-.212.142s-.028.18.028.254.148.108.238.092h.016l.622-.14c22.5-3.992 69.33-9.547 79.43.45 3.09 3.055 2.326 6.978-1.215 11.6 1.97 1.313 3.37 3.322 3.923 5.624 13.9-9.278 23.23-18.096 18.824-22.99z" fill="#c9c9ca"/><g fill="#8f8e91"><path d="M149.452 73.566c.14 3.853 2.57 7.013 5.763 7.013 6.18 0 8.784-7.568 8.61-12.637-.14-3.853-2.638-7.013-5.8-7.013-5.346 0-8.748 7.533-8.575 12.637zm-3.263-.207c-.243-6.6 4.93-13.3 12.428-13.3 5 0 8.293 3.333 8.47 8.436.243 6.946-4.583 13.3-12.43 13.3-5 0-8.3-3.334-8.47-8.437zm-70.927-1.737c-.336.126-.683.22-1.037.278-.415.1-1.215.243-2.326.415-.575.055-1.13.23-1.632.518a1.1 1.1 0 0 0-.518.8c-.083.323.06.66.347.83.458.244.976.353 1.493.313a4.9 4.9 0 0 0 1.562-.243 4.06 4.06 0 0 0 1.284-.659c.243-.222.433-.495.556-.8.03-.236.132-.722.27-1.45zm6.536-4.06c-.034.6-.14 1.146-.278 2.048l-1.122 6.184a1.14 1.14 0 0 0 .622 1.284l-.034.243h-6.314l-.074-1.562a12.16 12.16 0 0 1-3.021 1.279c-.986.26-2.002.387-3.02.38-2.048 0-3.194-.207-3.992-.9a2.52 2.52 0 0 1-1.181-2.222c.058-.677.325-1.32.763-1.84a5.2 5.2 0 0 1 1.671-1.182c.807-.354 1.66-.588 2.535-.695 1.11-.173 2.674-.347 4.756-.518a8.78 8.78 0 0 0 2.083-.451c.45-.173.6-.347.66-.695.1-.622-.07-1.007-.933-1.18-2.257-.45-6.53.278-8.714.83l1.18-3.228a58.54 58.54 0 0 1 8.471-.695c4.514-.034 5.97 1.25 5.937 2.916zm18.26 9.755l2.187-12.36h6.04l-2.19 12.36zm2.53-15.207c.173-1.007 1.77-1.84 3.575-1.84s3.09.83 2.916 1.84-1.8 1.84-3.575 1.84c-1.807.001-3.13-.832-2.92-1.84zm27.148 9.548c-.336.126-.683.22-1.037.278-.415.1-1.215.243-2.36.415-.575.055-1.13.23-1.632.518-.265.194-.45.48-.518.8a.8.8 0 0 0 .347.829c.47.247 1 .355 1.527.31a4.9 4.9 0 0 0 1.562-.243 4.06 4.06 0 0 0 1.284-.659 1.79 1.79 0 0 0 .518-.8q.1-.365.31-1.46zm6.492-4.062a15.51 15.51 0 0 1-.311 2.048l-1.076 6.18a1.14 1.14 0 0 0 .622 1.284l-.034.207h-6.323l-.034-1.562a13.4 13.4 0 0 1-3.021 1.284 10.26 10.26 0 0 1-3.021.381c-2.048 0-3.194-.207-3.992-.9a2.52 2.52 0 0 1-1.181-2.222c.058-.678.325-1.32.764-1.84a5.2 5.2 0 0 1 1.666-1.18 10.22 10.22 0 0 1 2.535-.726c1.11-.173 2.674-.347 4.756-.518.7-.065 1.388-.218 2.05-.456.45-.173.622-.347.695-.726.1-.622-.1-1.007-.933-1.18-2.29-.45-6.53.278-8.714.83l1.18-3.222c2.803-.437 5.634-.67 8.47-.695 4.478.07 5.937 1.354 5.9 3.02zm-73.673 5.28c-1.64.37-3.318.558-5 .556-2.882 0-5.173-1.423-5.068-4.062.1-1.735 2.152-5.45 7.43-5.45 1.655-.042 3.285.405 4.687 1.284l.764-4.27c-1.894-.764-3.93-1.108-5.97-1.01-6.91.07-13.54 3.194-14.34 9.582-.83 6.492 7.082 8.123 10.588 8.086 2.013 0 4.13-.1 6.1-.278zm49.055-7.982l.415-2.5 6.318-1.39-.66 3.89h3.09l-.6 2.5h-2.986l-1.8 9.93s-6.076-.034-6.1 0l1.8-9.894h-2.3l.45-2.5h2.36zm30.76 12.427h-6.18l3.09-17.22 6.006.173zm-50.305-9.445a3.5 3.5 0 0 0-2.152.726 3.15 3.15 0 0 0-1.181 2.118 2.81 2.81 0 0 0 .347 2.326c.483.512 1.172.78 1.874.726.526.012 1.048-.095 1.528-.31.474-.228.88-.575 1.18-1.007.345-.484.57-1.044.66-1.632.22-.753.066-1.567-.415-2.187-.462-.525-1.142-.808-1.84-.764zM81.06 81.586l2.95-16.56h5.312l-.415 2.118a4.87 4.87 0 0 1 2.222-1.562 9.07 9.07 0 0 1 3.437-.726c1.124-.097 2.253.118 3.263.622.984.494 1.75 1.334 2.152 2.36.394 1.077.5 2.24.278 3.367a7.22 7.22 0 0 1-2.986 4.826 7.87 7.87 0 0 1-5.138 1.493c-.63.012-1.26-.058-1.874-.207a4.39 4.39 0 0 1-1.215-.486c-.365-.266-.702-.567-1.007-.9l-.98 5.658zM190.698 69.4c-.034-1.007-.518-1.666-1.562-1.666-2.465 0-5.1 4.86-5.554 6.8 4.023.005 7.182-2.426 7.116-5.134zm.518 7.6l.486.31a7.6 7.6 0 0 1-6.561 4.444 4.29 4.29 0 0 1-4.413-4.16v-.353c-.173-5.277 4.756-10.207 8.818-10.207 1.735 0 3.367.764 3.437 2.638.14 4.2-5.763 5.485-9.65 5.6-.144.507-.19 1.037-.14 1.562a3.11 3.11 0 0 0 2.984 3.231q.157.006.314 0a6.57 6.57 0 0 0 4.725-3.053z"/><path d="M166.983 69.262a11.78 11.78 0 0 1 1.389-.139c.45 0 .868.07.868.518 0 .278-.45 2.152-.556 2.57l-.933 4.166-1.146 4.9h2.43l1.354-6.56c4.166-4.305 5.763-5.73 6.738-5.73a.71.71 0 0 1 .764.652c.003.037.003.075 0 .112a11.9 11.9 0 0 1-.622 2.986l-1.39 4.8c-.306.884-.48 1.808-.518 2.743-.02.388.118.768.38 1.056s.627.46 1.015.48a1.4 1.4 0 0 0 .237-.007c1.77 0 3.055-1.84 4.166-3.645l-.31-.6c-.45.726-1.493 2.326-2.326 2.326-.278 0-.518-.173-.518-.622a6.42 6.42 0 0 1 .382-1.944l1.528-5.624c.33-1 .528-2.038.6-3.09a1.44 1.44 0 0 0-1.339-1.533 1.42 1.42 0 0 0-.257.005c-1.6 0-3.714 1.146-8.2 6.318h-.07l.556-2.5c.31-1.39.6-2.812.9-3.784a43.09 43.09 0 0 1-5.138 1.459l.034.695z"/></g><path d="M193.368 64.78a2.15 2.15 0 0 1 2.144-2.152h.044c1.185.02 2.13.99 2.12 2.176s-.98 2.137-2.165 2.13-2.142-.97-2.14-2.154zm2.187 1.8a1.79 1.79 0 0 0 1.354-3.013 1.79 1.79 0 0 0-3.088 1.173v.035a1.7 1.7 0 0 0 1.582 1.8h.153zm-.486-.556h-.38v-2.463h.933c.6 0 .868.207.868.695 0 .45-.278.622-.66.695l.695 1.076h-.415l-.665-1.077h-.415v1.076zm.45-1.39c.31 0 .6-.034.6-.415 0-.31-.278-.347-.556-.347h-.518v.764z" fill="#b8b7c1"/></svg>