<svg xmlns="http://www.w3.org/2000/svg" width="64" height="64"><path d="M32 0c17.673 0 32 14.327 32 32S49.673 64 32 64 0 49.673 0 32 14.327 0 32 0z" fill="#25c16f"/><path d="M41.465 19H30.952c-7.717.06-13.944 6.33-13.952 14.047v.016c.01 7.704 6.26 13.943 13.965 13.936h.08a13.95 13.95 0 0 0 13.955-13.952v-10.58a3.5 3.5 0 0 0-3.534-3.467zM37.365 36a2.1 2.1 0 0 1-1.639 2.067v.16a2.56 2.56 0 0 1-2.545 2.545h-1.974a.35.35 0 0 1-.334-.334c0-.16.175-.24.334-.24h1.958a2 2 0 0 0 1.973-1.973v-.08h-1.64V33.13h2.482v-1.4a4.98 4.98 0 0 0-9.943 0v1.4h2.45v5.01h-1.814a2.18 2.18 0 0 1-2.132-2.132v-4.363a6.41 6.41 0 0 1 6.411-6.411 6.33 6.33 0 0 1 6.413 6.495z" fill="#fff"/></svg>