<svg xmlns="http://www.w3.org/2000/svg" width="242" height="130" fill="#8f8e91"><path d="M185.846 58.115c0-.56-.553-.662-.95-.662h-.88v2.273h.6v-.9h.18l.406.9h.664l-.484-.995a.63.63 0 0 0 .463-.615m-1 .334h-.22v-.6h.18c.2 0 .43.037.43.312 0 .244-.21.29-.39.29"/><path d="M184.84 56.568a2.08 2.08 0 0 0-2.106 2.065c.025 1.145.96 2.06 2.106 2.06s2.08-.915 2.106-2.06a2.05 2.05 0 0 0-.614-1.476c-.396-.39-.932-.6-1.486-.6m0 3.756c-.93-.018-1.672-.784-1.66-1.715s.774-1.677 1.705-1.67 1.682.764 1.68 1.695a1.71 1.71 0 0 1-1.731 1.693m-3.958 1.518c0-3.655-2.707-5.272-6.276-5.272h-7.3v17.135H172v-6.592h.336l4.28 6.592h5.7l-5.386-7.02a4.66 4.66 0 0 0 3.949-4.842m-7.684 2.408H172v-4.268h1.344c1.543 0 2.848.268 2.848 2.135s-1.442 2.133-2.985 2.133M152.62 56.57l-6.312 17.137h4.853l1.03-3.154h6.272l1.033 3.154h4.85l-6.3-17.137zm.688 10.575l1.955-5.983h.13l1.955 5.983zm-21.278 6.562h11.45v-3.77h-6.75v-2.963h6.467v-3.768h-6.466v-2.86h6.75v-3.774h-11.45zm-13.308-6.07h3.7c-.2 1.978-1.6 2.978-3.65 2.978-3.1 0-4.633-2.7-4.633-5.36 0-2.615 1.328-5.406 4.425-5.406 1.75-.026 3.322 1.07 3.9 2.724l4.458-1.77c-1.558-3.2-4.434-4.8-8.148-4.8-5.824 0-9.522 3.668-9.522 9.23 0 5.385 3.812 9.04 9.492 9.04a8.63 8.63 0 0 0 7.315-3.361c1.6-2.135 1.795-4.27 1.845-6.77h-9.18zm-25.295-7.29h4.544v13.36h4.775v-13.36h4.55V56.57h-13.87zm-14.655 13.36h11.45v-3.77h-6.746v-2.963h6.464v-3.768h-6.464v-2.86h6.746v-3.774h-11.45zM68.52 67.05h-.05l-7.773-10.48h-4.7V73.7h4.7V63.207h.048l7.773 10.5h4.7V56.57h-4.7z"/></svg>