<svg xmlns="http://www.w3.org/2000/svg" width="64" height="64"><path d="M32 0c17.673 0 32 14.327 32 32S49.673 64 32 64 0 49.673 0 32 14.327 0 32 0z" fill="#fff"/><path d="M43.783 18.768c-.026-.154-.152-.27-.307-.286-.122-.02-2.8-.2-2.8-.2l-2.045-2.045a.86.86 0 0 0-.757-.1c-.02 0-.41.123-1.043.327-.593-1.78-1.7-3.415-3.62-3.415h-.164a2.38 2.38 0 0 0-1.8-1.043c-4.478.02-6.6 5.6-7.28 8.445l-3.13.96c-.96.307-1 .327-1.125 1.247l-2.638 20.346 19.774 3.7 10.716-2.31c-.001-.024-3.763-25.44-3.783-25.626zm-8.036-1.963c-.49.164-1.063.327-1.677.51v-.368a8.15 8.15 0 0 0-.409-2.7c1.002.144 1.672 1.27 2.085 2.557zm-3.292-2.33a8.52 8.52 0 0 1 .45 3.006v.184l-3.456 1.063c.674-2.535 1.92-3.782 3.005-4.253zm-1.33-1.247c.204.004.403.068.572.184-1.432.674-2.965 2.372-3.62 5.766l-2.74.838c.776-2.576 2.576-6.788 5.786-6.788z" fill="#95bf47"/><path d="M43.475 18.483c-.123-.02-2.8-.2-2.8-.2l-2.045-2.045a.4.4 0 0 0-.286-.123l-1.493 30.59 10.716-2.31-3.784-25.6c-.022-.16-.148-.287-.308-.312z" fill="#5e8e3e"/><path d="M33.31 24.094l-1.33 3.926a6.16 6.16 0 0 0-2.576-.614c-2.085 0-2.188 1.31-2.188 1.636 0 1.8 4.683 2.474 4.683 6.687 0 3.313-2.106 5.44-4.928 5.44a6.87 6.87 0 0 1-5.133-2.105l.9-3.006a6.47 6.47 0 0 0 3.292 1.534 1.34 1.34 0 0 0 1.389-1.284v-.065c0-2.352-3.844-2.454-3.844-6.3 0-3.23 2.332-6.38 7.014-6.38.936-.04 1.868.142 2.72.53z" fill="#fff"/></svg>