<svg xmlns="http://www.w3.org/2000/svg" width="242" height="130"><path d="M167.253 12L74 46.013l93.333-16.47V12z" fill="#c9c9ca"/><path d="M119.523 56.12l-5.74 11-5.707-11H96.9l11.773 20.4v13.32h10.08V76.518l11.8-20.4zM84.7 76.518h12.2V69.44H84.7v-5.56h13.473l-4.46-7.76h-19.12v33.716h26.97v-7.76H84.7zm51.5 40.2h1.488v-8.474l-1.488.744zm-35.47-8.33h-1.457v1.487h1.457zm-1.457 8.354h1.457v-6h-1.457zm12.636-4.192v2.35a1.25 1.25 0 0 1-1.039.594c-.506 0-1.13-.327-1.13-1.874 0-1.366.625-1.664 1.13-1.664a1.19 1.19 0 0 1 1.039.594m0-1.4a1.82 1.82 0 0 0-1.308-.566c-1.458 0-2.35 1.19-2.35 3.093 0 1.992.864 3.182 2.32 3.182.5 0 .996-.216 1.338-.594v.148c0 .655 0 1.547-1.9 1.576h-.06l.505 1.19h.03c1.962-.03 2.913-1.01 2.913-3v-5.44H111.9zm-8.354 2.26c0-.952.387-1.457 1.13-1.457s1.07.476 1.07 1.457v3.33h1.487v-3.388c0-1.813-.743-2.735-2.2-2.735a1.91 1.91 0 0 0-1.486.625v-.505h-1.488v6h1.487zm-5.44-2.675H96.42l-1.19 1.546c-.2.238-.4.486-.565.743v-4.787l-1.487.744v7.73h1.487v-1.78l.772-.982 1.28 2.766h1.635L96.5 112.7zm29.822 4.727c-.743 0-1.22-.684-1.22-1.725 0-1.07.476-1.754 1.22-1.754s1.22.684 1.22 1.754c0 1.04-.476 1.725-1.22 1.725m0-4.877c-1.306-.18-2.587.47-3.214 1.63s-.47 2.587.393 3.582 2.255 1.352 3.49.893 2.06-1.635 2.065-2.953a2.88 2.88 0 0 0-2.736-3.152m-5.025 2.35l-.3 1.516-.356-1.516-.625-2.2h-1.275l-.626 2.2-.356 1.516a14.72 14.72 0 0 0-.3-1.487l-.536-2.23h-1.543l1.695 5.946v.03h1.28l.684-2.438.327-1.338c.06.327.207.862.327 1.308l.655 2.468h1.28l1.695-5.975h-1.458zm12.578-1.962c-.315-.24-.703-.366-1.1-.357-.514-.028-1.007.208-1.308.625v-.505h-1.488v6h1.487v-3.27c0-.952.327-1.4 1.04-1.4a1.93 1.93 0 0 1 .981.327zm-50.547 4.49c-.744 0-1.22-.684-1.22-1.725 0-1.07.476-1.754 1.22-1.754s1.22.684 1.22 1.754c0 1.04-.477 1.725-1.22 1.725m0-4.877c-1.307-.18-2.588.47-3.217 1.63s-.472 2.588.393 3.584 2.256 1.352 3.493.894 2.06-1.636 2.066-2.955a2.88 2.88 0 0 0-2.735-3.152m-5.025 2.35l-.328 1.516-.356-1.516-.625-2.2h-1.25l-.623 2.2c-.12.416-.268 1.07-.357 1.516-.074-.5-.174-.997-.3-1.487l-.566-2.23H74l1.7 5.946v.03h1.28l.654-2.438c.118-.357.267-1.1.327-1.338l.327 1.308.684 2.468h1.248l1.7-5.975h-1.468zm12.577-1.962c-.315-.24-.703-.367-1.1-.357a1.6 1.6 0 0 0-1.337.625v-.505H88.57v6h1.487v-3.27c0-.952.357-1.4 1.07-1.4.35.018.7.13.98.327zm48.883 4.52c-.536 0-1.13-.327-1.13-1.874 0-1.366.594-1.664 1.1-1.664a1.25 1.25 0 0 1 1.071.594v2.35c-.224.362-.616.585-1.04.594m1.04-4.34c-.352-.358-.837-.553-1.34-.536-1.456 0-2.347 1.16-2.347 3.062 0 1.992.86 3.182 2.32 3.182.52.002 1.015-.213 1.368-.594v.475h1.457v-8.5l-1.457.744zM101.74 97.924h-1.486V99.4h1.486zm-1.486 8.327h1.486v-5.977h-1.486zm-10.317-8.327H88.48V99.4h1.457zm67.258 2.586c-.315-.245-.7-.38-1.1-.387a1.63 1.63 0 0 0-1.337.654v-.505h-1.488v5.98h1.486V103c0-.95.327-1.4 1.07-1.4.353.004.696.118.98.327zm-14.808 4.192c-.27.16-.577.252-.892.268-.445 0-.654-.268-.654-.8v-2.528h1.277v-1.368h-1.277v-2.3l-1.487.743v1.546h-.922v1.368h.922v2.9c-.05.462.096.923.4 1.273s.742.557 1.206.57c.434-.001.86-.104 1.248-.3zm2.706-3.062h1.337v-1.368h-1.338v-2.288l-1.486.743v1.546h-.923v1.368h.923v2.9a1.65 1.65 0 0 0 1.6 1.843c.425 0 .843-.103 1.22-.3l.178-1.4a1.84 1.84 0 0 1-.892.268c-.446 0-.625-.268-.625-.8zm3.568.982a1.15 1.15 0 0 1 1.1-1.22 1.13 1.13 0 0 1 1.131 1.22zm2.5 1.9c-.318.313-.743.493-1.19.506-.356.02-.704-.11-.96-.358s-.392-.595-.38-.95h3.687v-.445c0-1.9-.98-3.152-2.5-3.152a2.86 2.86 0 0 0-2.707 3.152 2.85 2.85 0 0 0 4.965 2.17zm-16.8-1.9a1.17 1.17 0 0 1 1.131-1.22c.772 0 1.07.625 1.13 1.22zm2.5 1.9a1.71 1.71 0 0 1-1.189.506c-.355.017-.7-.114-.954-.362s-.392-.592-.383-.947h3.687c0-.118.03-.3.03-.445 0-1.9-1.01-3.152-2.528-3.152-1.546 0-2.675 1.338-2.675 3.152-.125 1.223.553 2.387 1.678 2.882s2.44.207 3.258-.712zm-17.425-.268c0-.5.357-.83 1.01-.83.407-.01.81.094 1.16.3v.8c-.247.405-.686.652-1.16.654a.9.9 0 0 1-1.011-.922m-.445-2.527c.467-.28 1.002-.423 1.546-.416.684 0 1.07.3 1.07.862v.416a3 3 0 0 0-1.279-.3c-1.1 0-2.38.534-2.38 1.96 0 .866.522 1.647 1.322 1.98s1.72.15 2.335-.46v.476h1.483V102.2c0-1.28-.922-2.08-2.44-2.08-.783-.001-1.552.204-2.23.594zm-6.066.357v2.348a1.3 1.3 0 0 1-1.041.6c-.536 0-1.13-.328-1.13-1.874 0-1.368.594-1.665 1.1-1.665a1.25 1.25 0 0 1 1.07.6m0-1.4c-.353-.36-.834-.563-1.338-.565-1.457 0-2.348 1.19-2.348 3.063 0 2.022.862 3.21 2.32 3.21a1.87 1.87 0 0 0 1.368-.6v.148c0 .654 0 1.546-1.932 1.576h-.06l.534 1.16h.03c1.963-.03 2.914-1 2.914-2.973v-5.44h-1.5zm16.562.8c.534 0 1.1.446 1.1 1.665q0 1.874-1.07 1.874c-.43-.027-.828-.232-1.1-.566v-2.348a1.25 1.25 0 0 1 1.071-.625m.267-1.368a2 2 0 0 0-1.338.565v-2.767l-1.457.743v7.584h1.457v-.446a1.87 1.87 0 0 0 1.368.6c1.487 0 2.32-1.16 2.32-3.183 0-1.9-.892-3.09-2.348-3.09m-33.336 4.9c-.506 0-1.13-.328-1.13-1.874 0-1.368.594-1.665 1.1-1.665a1.25 1.25 0 0 1 1.071.6v2.348c-.217.37-.612.598-1.04.6m1.04-4.342a1.78 1.78 0 0 0-1.339-.565c-1.456 0-2.347 1.19-2.347 3.09 0 1.993.86 3.183 2.318 3.183a1.92 1.92 0 0 0 1.369-.6v.446h1.486v-8.477l-1.486.743zm-6.184 5.553h1.486v-8.475l-1.486.743zm-1.338-5.977H88.48v5.977h1.457zm14.6 2.677c0-.952.415-1.458 1.16-1.458.714 0 1.07.476 1.07 1.458v3.3h1.486v-3.39c0-1.785-.772-2.736-2.2-2.736a2 2 0 0 0-1.516.654v-.505h-1.457v5.976h1.457zM84.23 106.4a1.79 1.79 0 0 0 1.427-.625v.476h1.486v-5.977h-1.485v3.3c0 .982-.387 1.458-1.1 1.458-.773 0-1.13-.476-1.13-1.458v-3.3H81.97v3.39c0 1.01.3 2.736 2.26 2.736m-6.185-5.2h-1.933v-1.755h1.843c.743 0 1.1.3 1.1.892 0 .387-.178.864-1.01.864m0 3.687h-1.932v-2.35h1.932q1.25 0 1.25 1.16c.026.334-.1.66-.342.892s-.575.34-.907.3m2.884-1.25c.01-.8-.476-1.52-1.22-1.813a1.85 1.85 0 0 0 .921-1.636c0-1.338-.92-2.14-2.557-2.14h-3.478v8.202h3.45c1.814 0 2.884-.98 2.884-2.617" fill="#8f8e91"/></svg>