<svg xmlns="http://www.w3.org/2000/svg" width="64" height="64"><path d="M32 0c17.673 0 32 14.327 32 32S49.673 64 32 64 0 49.673 0 32 14.327 0 32 0z" fill="#fd7a59"/><path d="M38.818 27.993v-3.94c1.052-.504 1.722-1.567 1.723-2.733v-.09a3.02 3.02 0 0 0-2.986-3.029h-.09a3.02 3.02 0 0 0-2.986 3.029v.09c.001 1.167.67 2.23 1.723 2.734v3.94c-1.478.23-2.867.853-4.024 1.8l-10.66-8.415c.076-.278.116-.565.12-.853a3.37 3.37 0 0 0-3.396-3.323 3.37 3.37 0 0 0-3.339 3.38 3.37 3.37 0 0 0 3.364 3.356c.584-.003 1.156-.16 1.66-.457l10.486 8.278a8.72 8.72 0 0 0 .13 9.716l-3.19 3.236a2.7 2.7 0 0 0-.791-.13c-1.24-.038-2.364.73-2.78 1.9s-.025 2.474.964 3.226 2.35.778 3.366.065 1.457-2 1.088-3.186l3.154-3.2a8.39 8.39 0 0 0 5.155 1.775c4.47-.066 8.15-3.53 8.5-7.986s-2.775-8.437-7.183-9.18zm-1.31 12.955a4.43 4.43 0 0 1-3.218-7.538 4.43 4.43 0 0 1 7.583 3.11 4.4 4.4 0 0 1-4.365 4.428z" fill="#fff" fill-rule="evenodd"/></svg>