<svg viewBox="0 0 22 19" fill="none" xmlns="http://www.w3.org/2000/svg"><path fill-rule="evenodd" clip-rule="evenodd" d="M3.25 7.49898C3.25 5.77979 4.11031 4.51199 5.51361 3.63667C6.95037 2.74049 8.93535 2.28247 10.9857 2.31187C13.0346 2.34126 15.0306 2.85595 16.4805 3.7743C17.909 4.67909 18.75 5.92512 18.75 7.49997V8.49997H20.75V7.49997C20.75 5.07481 19.4035 3.25822 17.5507 2.0847C15.7194 0.924739 13.3404 0.345437 11.0143 0.312077C8.68965 0.278736 6.29963 0.789216 4.45514 1.93972C2.57719 3.1111 1.25 4.96817 1.25 7.49898V8.49898H3.25V7.49898ZM0.75 8.5C0.611929 8.5 0.5 8.61193 0.5 8.75V12.25C0.5 12.3881 0.611929 12.5 0.75 12.5H3.75C3.88807 12.5 4 12.3881 4 12.25V8.75C4 8.61193 3.88807 8.5 3.75 8.5H0.75ZM18 8.75C18 8.61193 18.1119 8.5 18.25 8.5H21.25C21.3881 8.5 21.5 8.61193 21.5 8.75V12.25C21.5 12.3881 21.3881 12.5 21.25 12.5H20.8649L20.1367 14.3635C19.9868 14.747 19.6171 14.9995 19.2053 14.9995H18.7274V15H17.7274H16.7274H16.7021C15.548 16.9457 13.4263 18.25 11 18.25C7.34111 18.25 4.375 15.2839 4.375 11.625C4.375 7.96611 7.34111 5 11 5C14.6589 5 17.625 7.96611 17.625 11.625C17.625 12.0965 17.5758 12.5564 17.4821 13H17.7274H17.9941L17.9942 12.9995H18.5224L18.7176 12.5H18.25C18.1119 12.5 18 12.3881 18 12.25V8.75ZM15.4172 13C15.5522 12.5656 15.625 12.1038 15.625 11.625C15.625 9.07068 13.5543 7 11 7C8.44568 7 6.375 9.07068 6.375 11.625C6.375 14.1793 8.44568 16.25 11 16.25C12.2231 16.25 13.3352 15.7753 14.1623 15H13.0684H12.0684H11.0684V13H12.0684H13.0684H15.4172Z" fill="#201F24"></path></svg>