<svg xmlns="http://www.w3.org/2000/svg" width="280" height="130"><path d="M62.902 51.17c-.612-1.013-1.717-1.622-2.9-1.6a4.1 4.1 0 0 0-3.579 2.206 3.75 3.75 0 0 0-.417 1.406l-.39 4.432 2.19.032c5.54 0 5.55-4.464 5.55-4.464a3.2 3.2 0 0 0-.453-2.012zm8.432 9.366a3.36 3.36 0 0 0-1.487-.332H48.262a3.78 3.78 0 0 0-2.1.615c-1.063.65-1.762 1.76-1.89 3-.15 1.416.637 2.766 1.944 3.332.442.2.92.288 1.4.287h7.13l-.624 7.007a3.4 3.4 0 0 0 .16 1.413 3.3 3.3 0 0 0 3.187 2.211 4.1 4.1 0 0 0 3.526-2.128 3.63 3.63 0 0 0 .468-1.5l.623-7.006h7.123a4 4 0 0 0 1.453-.283 4.07 4.07 0 0 0 2.54-3.34c.14-1.38-.61-2.696-1.868-3.277m30.422 2.516c3-1.747 4.7-4.666 5.06-8.7.31-3.532-.76-6.277-3.19-8.157-2.53-1.888-5.624-2.864-8.78-2.77H83.48c-.026 0-.05 0-.074.006-.768.01-1.518.232-2.166.645a4.41 4.41 0 0 0-1.045.913 3.93 3.93 0 0 0-1 2.274l-3.032 34.132c-.092.873.163 1.746.71 2.432a3.46 3.46 0 0 0 .766.76 3.6 3.6 0 0 0 2.049.643c.028 0 .047.01.08.01h13.508c3.596.07 7.132-.933 10.155-2.883a10.99 10.99 0 0 0 4.989-8.638 10.59 10.59 0 0 0-1.638-7.179 9.29 9.29 0 0 0-5.03-3.489zM86.3 50.086h6.838c1.553-.078 3.083.404 4.3 1.36 1.065.93 1.572 2.347 1.34 3.743-.02 1.618-.745 3.146-1.983 4.187a6.88 6.88 0 0 1-4.255 1.33h-7.2zm11.82 27.1c-1.703.98-3.65 1.462-5.613 1.387h-8.743l.943-10.655h9.047c2.41 0 4.245.155 5.32 1.1a4.23 4.23 0 0 1 1.413 3.866c-.02 1.74-.908 3.353-2.366 4.302zm27.02-20.988c-2.75.005-5.478.517-8.043 1.51-2.434.96-3.73 2.174-3.857 3.61a2.48 2.48 0 0 0 .63 1.987c.504.53 1.213.82 1.945.79a9.6 9.6 0 0 0 3.251-.987 13.03 13.03 0 0 1 4.897-1.063 4 4 0 0 1 3.394 1.3 5.21 5.21 0 0 1 .67 3.6l-.013.15c-5.13.436-8.8 1.106-11.217 2.045-3.862 1.49-5.974 3.99-6.277 7.413a7.01 7.01 0 0 0 2.4 6.362 10.22 10.22 0 0 0 6.787 2.277 18 18 0 0 0 7.434-1.447c.636.98 1.758 1.532 2.922 1.44a3.96 3.96 0 0 0 2.664-1.028 3.7 3.7 0 0 0 1.3-2.515l1.3-14.7c.287-3.22-.3-5.76-1.745-7.553-1.753-2.12-4.6-3.19-8.45-3.19m1.88 22.106c-1.508.81-3.19 1.242-4.9 1.262a6.2 6.2 0 0 1-3.432-.872c-.787-.467-1.215-1.362-1.085-2.268.245-2.723 5.394-3.674 9.938-3.98l-.517 5.855m25.828-22.1c-2.067.002-4.12.343-6.077 1.01l.91-10.183a3.2 3.2 0 0 0-.213-1.494c-.492-1.3-1.743-2.13-3.123-2.1a4.04 4.04 0 0 0-3.17 1.583c-.463.574-.742 1.275-.8 2.01l-2.99 33.613c-.18.933.033 1.9.6 2.67s1.41 1.275 2.353 1.394c2.205.357 4.438.516 6.672.477 5.95 0 10.617-1.668 13.87-4.95 2.508-2.57 4.005-5.96 4.215-9.545.385-4.355-.538-7.88-2.736-10.485-2.255-2.66-5.45-4-9.5-4m2.623 19.9c-1.764 1.936-4.18 2.885-7.387 2.885-1.32 0-2.4-.047-3.236-.12l1.366-15.35c1.522-.66 3.164-1 4.823-1 1.9-.086 3.74.684 5.013 2.1 1.352 1.717 1.935 3.916 1.613 6.077a9.1 9.1 0 0 1-2.191 5.415m27.25-19.9a18.82 18.82 0 0 0-6.068 1.011l.9-10.183c.045-.5-.023-1.006-.2-1.477-.486-1.303-1.742-2.157-3.133-2.13-1.246.01-2.417.6-3.17 1.59-.46.572-.74 1.27-.8 2l-2.988 33.623c-.184.933.028 1.9.584 2.67s1.408 1.275 2.352 1.394a37.66 37.66 0 0 0 6.679.477c5.94 0 10.61-1.668 13.866-4.95 2.5-2.57 4.007-5.96 4.217-9.545.385-4.355-.532-7.88-2.745-10.485-2.25-2.66-5.453-4-9.5-4m2.63 19.9a9.42 9.42 0 0 1-7.389 2.885c-1.32 0-2.4-.047-3.234-.12l1.364-15.35c1.522-.66 3.164-1 4.823-1a6.33 6.33 0 0 1 5.006 2.1 7.9 7.9 0 0 1 1.617 6.077 9.11 9.11 0 0 1-2.187 5.415m27.29-19.9a15.06 15.06 0 0 0-10.738 4 15.4 15.4 0 0 0-4.817 10.145c-.383 4.32.617 7.872 2.977 10.55 2.426 2.845 6.057 4.29 10.774 4.29a22.24 22.24 0 0 0 8.549-1.638c2.18-.926 3.35-2.11 3.477-3.543.1-.765-.134-1.534-.62-2.132-.66-.845-1.784-1.18-2.8-.836-.28.068-.548.173-.8.31a6.28 6.28 0 0 1-.711.349l-.89.4c-1.656.73-3.445 1.113-5.255 1.123a6.84 6.84 0 0 1-5.745-2.432 6.93 6.93 0 0 1-1.438-3.847h16.3a3.8 3.8 0 0 0 2.83-1.145c.73-.758 1.168-1.75 1.236-2.8.424-3.234-.54-6.497-2.65-8.983-2.35-2.528-5.6-3.813-9.68-3.813m-7.583 11.408c.288-1.313.935-2.52 1.868-3.49a7.11 7.11 0 0 1 5.243-1.911c1.7-.117 3.342.54 4.49 1.787a5.63 5.63 0 0 1 1.215 3.613h-12.815m32.334-20.594a3.21 3.21 0 0 0-.445-2.009 3.3 3.3 0 0 0-2.889-1.585c-1.5.022-2.868.864-3.562 2.194-.23.434-.37.9-.413 1.4l-3.074 34.62a3.4 3.4 0 0 0 .16 1.4c.47 1.344 1.75 2.232 3.174 2.2a4.09 4.09 0 0 0 3.511-2.113 3.67 3.67 0 0 0 .462-1.485l3.076-34.622" fill="#ff790f" fill-rule="evenodd"/></svg>