<svg xmlns="http://www.w3.org/2000/svg" width="280" height="130" fill="#00a9ce"><path d="M104.787 54.62a16.46 16.46 0 0 0-11.638 28.098 16.46 16.46 0 0 0 28.097-11.64 16.51 16.51 0 0 0-16.459-16.458zm8.024 16.25a7.83 7.83 0 0 1-11.846 7.108 7.83 7.83 0 0 1-3.79-7.108 7.83 7.83 0 0 1 11.846-7.108 7.83 7.83 0 0 1 3.79 7.108zm49.58-15.636c-.164-.158-.39-.234-.617-.206h-6.583c-.442.03-.793.38-.823.823v29.834c-.033.227.044.456.206.617s.39.238.617.206h6.583c.442-.03.793-.38.823-.823v-29.83c.028-.226-.048-.453-.206-.617zm-3.91-4.115c2.49-.022 4.504-2.035 4.526-4.526.024-1.207-.445-2.372-1.3-3.226s-2.02-1.322-3.227-1.297c-2.49.022-4.504 2.035-4.526 4.526-.025 1.208.444 2.373 1.298 3.228s2.02 1.323 3.228 1.298zm-8.846-8.432h-24.07c-.442.03-.793.38-.823.823v42.175c-.033.227.044.456.206.617s.39.238.617.206h6.584c.442-.03.793-.38.823-.823V68.61h14.812c.227.033.456-.044.617-.206s.238-.39.206-.617v-6.17c-.03-.442-.38-.793-.823-.823h-14.812V50.505h16.664c.227.033.456-.044.617-.206s.238-.39.206-.617V43.5c-.03-.442-.38-.793-.823-.823zM72.9 60.997c-6.583-2.88-8.64-4.115-8.64-6.583 0-3.292 3.086-4.32 5.966-4.32 3.086 0 6.378 1.646 6.378 6.172-.024.17.033.34.155.462s.293.18.462.155h7.2c.206-.206.41-.41.41-.617 0-8.23-5.966-14.196-14.607-14.196s-14.2 4.938-14.2 12.344c0 8.846 6.583 11.52 12.96 14l.41.206c5.966 2.263 8.024 3.292 8.024 6.172 0 3.91-4.115 4.526-6.378 4.526-4.32 0-7.612-3.086-7.612-7.2v-.41c.024-.17-.033-.34-.155-.462s-.293-.18-.462-.155h-7.2c-.332.02-.597.285-.617.617v.617c0 9.052 6.583 15.224 15.84 15.224 8.846 0 14.813-5.143 14.813-12.55.2-7.613-3.7-10.287-12.75-13.99zM225.758 85.27a2.06 2.06 0 0 1-2.057 2.057 2.06 2.06 0 0 1-2.057-2.057 2.06 2.06 0 0 1 2.057-2.057c.555-.033 1.098.173 1.49.566s.6.936.566 1.49zm-3.7 0c0 .91.737 1.646 1.646 1.646s1.646-.737 1.646-1.646-.737-1.646-1.646-1.646c-.448-.042-.892.118-1.21.436s-.48.762-.438 1.2zm2.47-.41c0 .206-.206.41-.41.617l.41.823h-.617l-.41-.823h-.206v.823h-.41v-2.054h.823c.407 0 .818.206.818.617zm-1.03-.206v.617h.206a.72.72 0 0 0 .411-.206c0-.206-.206-.206-.41-.206h-.206zm-8.438-40.73c1.368-.013 2.683.525 3.65 1.493s1.504 2.283 1.5 3.65c0 2.84-2.303 5.143-5.143 5.143s-5.143-2.303-5.143-5.143c-.013-1.368.524-2.684 1.49-3.652s2.283-1.505 3.652-1.49m0-1.852a7.29 7.29 0 0 0-7.2 7.2 7.2 7.2 0 0 0 14.4 0 7.29 7.29 0 0 0-7.196-7.2z"/><circle cx="215.048" cy="64.683" r="7.201"/><circle cx="215.038" cy="80.113" r="7.201"/><path d="M199.63 59.557c1.363.04 2.67.55 3.7 1.443a4.96 4.96 0 0 1 1.44 3.7c.014 1.368-.523 2.684-1.5 3.65s-2.282 1.506-3.65 1.493c-1.362-.04-2.67-.548-3.7-1.44a4.96 4.96 0 0 1-1.44-3.7 4.97 4.97 0 0 1 5.14-5.147m0-2.057a7.29 7.29 0 0 0-7.2 7.2 7.2 7.2 0 1 0 14.4 0 7.29 7.29 0 0 0-7.2-7.2z"/><circle cx="184.152" cy="64.643" r="7.201"/><circle cx="199.613" cy="49.22" r="7.201"/><circle cx="184.171" cy="49.201" r="7.201"/><circle cx="199.576" cy="80.104" r="7.201"/><path d="M184.2 74.987c1.362.04 2.67.548 3.7 1.44a4.96 4.96 0 0 1 1.44 3.7c0 2.84-2.303 5.144-5.144 5.144s-5.143-2.303-5.143-5.144a4.97 4.97 0 0 1 5.147-5.14m0-2.057a7.2 7.2 0 0 0 0 14.4 7.2 7.2 0 0 0 7.2-7.2 7.29 7.29 0 0 0-7.2-7.2z"/></svg>