<svg xmlns="http://www.w3.org/2000/svg" width="280" height="130"><path d="M159.723 41.162l-4.665 37.522-.945 4.64.38.012c5-.062 8.563-4.457 9.234-10l2.69-21.54c.814-6.562-3.1-10.635-6.694-10.635zm65.957 20.2l-3.455 10.9c-.09-.844-2.435-18.91-2.435-18.91-5.462 0-8.383 3.88-9.925 8l-4.216 10.93c-.018-.792-.6-10.827-.6-10.827a8.91 8.91 0 0 0-8.666-8.095l4.486 27.37c5.73-.018 8.8-3.893 10.418-8.01l3.572-9.3c.036.386 2.467 17.313 2.467 17.313 5.736 0 8.83-3.628 10.5-7.6l8.05-19.774c-5.675.005-8.655 3.876-10.195 8zM185.857 66.6c-.33 3.353-1.81 8.42-5.85 8.42-4.057 0-3.48-5.944-3.087-8.765.42-3.025 2.12-7.306 5.736-7.306 3.266-.005 3.576 3.862 3.202 7.652zm-2.588-13.724c-6.386 0-12.406 4.7-14.256 12.094s.96 16.12 10.348 16.12 14.782-9.1 14.782-16.653-5.1-11.567-10.875-11.567zm-28.762.476h-5.54l.027-.3c.376-3.618 1.244-5.518 4.05-5.808 1.915-.2 2.78-1.194 2.983-2.27l.693-3.828c-11.115-.064-14.6 4.734-15.5 12.028l-.02.166h-.1c-1.805 0-3.786 2.044-4.132 4.64l-.122.956h3.7l-3.1 25.686-.94 4.616.38.013c5.2-.2 8.53-4.3 9.267-10.25l2.422-20.066h1.725c1.7 0 3.7-1.7 4.067-4.553zM126.28 66.825c-.82 4.83-3.505 8.086-6.105 8.086-1.344.107-2.68-.307-3.726-1.157.488-4.222.813-6.812 1.767-9.04s3.206-5.79 5.564-5.79c2.292 0 3.32 3.075 2.5 7.9zm.727-14.105c-3.525 0-6.242 1.916-8.53 4.746v-.02L120.5 41c-4.694 0-8.53 4.086-9.258 10.15l-3.57 29.363c2.707 0 5.575-.785 7.126-2.777a7.89 7.89 0 0 0 6.495 3.2c7.916 0 13.356-9.2 13.356-17.84.004-7.886-3.832-10.377-7.652-10.377zM73.3 61.352l-3.454 10.9c-.088-.844-2.435-18.91-2.435-18.91-5.462 0-8.384 3.88-9.924 8l-4.217 10.93c-.018-.792-.6-10.827-.6-10.827a8.91 8.91 0 0 0-8.666-8.095l4.487 27.37c5.73-.018 8.8-3.893 10.417-8.01l3.573-9.3c.035.386 2.466 17.313 2.466 17.313 5.736 0 8.83-3.628 10.5-7.6l8.05-19.774c-5.677.005-8.66 3.876-10.196 8zm25.257-.92c-.1 1.063-.53 2.9-8.077 3.9 1.592-5.65 4.626-6.07 6.03-6.07.57-.025 1.123.2 1.515.613s.585.98.53 1.547zm7.39-.576c0-3.447-3.34-7.1-9.133-7.1-6.508 0-13.647 4.764-14.75 14.283-1.115 9.625 4.877 13.877 10.9 13.877s9.188-2.345 12.406-5.5a5.5 5.5 0 0 0-7.04-1.53c-1.14.63-2.428.94-3.73.9-2.333 0-4.7-1.055-4.7-5.385 14.905-1.434 16.04-6.108 16.04-9.555z" fill="#201f24"/></svg>