<svg xmlns="http://www.w3.org/2000/svg" width="280" height="130" fill-rule="evenodd"><path d="M62.896 70.506l1.176 6.033a14.66 14.66 0 0 0 5.993 1.458c5.053 0 8.853-3.415 8.853-8.037 0-8.775-11.986-6.306-11.986-13.4a4.16 4.16 0 0 1 4.308-4.427c3.643 0 4.78 2.78 5.445 5.13l.98-.118-.705-5.366c-1.214-.235-2.312-.98-4.82-.98-5.248 0-8.226 3.407-8.226 7.363 0 7.952 11.83 6.15 11.83 13.356 0 3.1-1.92 5.133-4.935 5.133-4.23 0-6.268-4.428-6.894-6.306l-1.02.155zM87.573 59.46c-1.916.637-3.865 1.173-5.837 1.606v.7c2.624.313 2.7.353 2.7 2.742v9.245c0 2.233-.235 2.43-2.86 2.664v.94h8.853v-.94c-2.664-.235-2.86-.43-2.86-2.664V63.69a7.34 7.34 0 0 1 4.465-1.881c2.742 0 3.565 1.84 3.565 4.152v7.8c0 2.233-.235 2.428-2.86 2.664v.94h8.857v-.94c-2.664-.235-2.86-.43-2.86-2.664v-8.93a8.9 8.9 0 0 0-.079-1.1 6.79 6.79 0 0 1 4.387-1.919c2.976 0 3.72 2 3.72 4.31v7.638c0 2.233-.234 2.428-2.86 2.664v.94h8.853v-.94c-2.664-.236-2.86-.43-2.86-2.664v-8.93c0-3.135-1.8-5.29-5.053-5.29-2.468 0-4.858 1.96-6.464 3.095a4.77 4.77 0 0 0-4.545-3.095c-2.624 0-4.857 2.037-6.268 2.9V59.46zm32.906 0a57.55 57.55 0 0 1-5.837 1.606v.7c2.624.313 2.7.353 2.7 2.742v9.245c0 2.233-.235 2.43-2.86 2.664v.94h8.853v-.94c-2.664-.235-2.86-.43-2.86-2.664v-14.3zm-1.567-9.362c-1.178.035-2.106 1.015-2.077 2.193a2.11 2.11 0 0 0 2.077 2.155 2.08 2.08 0 0 0 2.075-2.155c.02-.568-.188-1.12-.578-1.532s-.93-.65-1.5-.66zm6.738 9.95l-1.176 1.1.157.43h2.938v11.44c0 3.21 1.372 4.862 3.956 4.862a3.11 3.11 0 0 0 1.176-.312l3.29-1.65-.39-.9a4.92 4.92 0 0 1-2.39.783c-1.058 0-2.508-.586-2.508-3.68V61.58H135a1.42 1.42 0 0 0 .509-.98c-.007-.2-.077-.39-.2-.548h-4.623V54.88h-.55l-2.586 2.664v2.508zM142.886 49c-1.916.637-3.864 1.173-5.837 1.606v.7c2.624.313 2.7.353 2.7 2.742v19.7c0 2.233-.234 2.428-2.86 2.664v.94h8.853v-.94c-2.664-.235-2.86-.43-2.86-2.664V63.562a5.54 5.54 0 0 1 4.112-1.841c2.938 0 3.957 1.88 3.957 4.78v7.247c0 2.233-.235 2.428-2.86 2.664v.94h8.853v-.94c-2.664-.235-2.86-.43-2.86-2.664v-8.46c0-3.33-1.764-5.76-5.523-5.76a8.54 8.54 0 0 0-5.681 2.82V48.99zm16.1 23.035c-.014 1.463.143 2.922.47 4.348 1.365.963 2.993 1.484 4.663 1.493 3.014 0 6.422-1.808 6.422-5.49 0-2.7-1.92-4.23-4.857-5.446-1.723-.7-3.446-1.84-3.446-3.485a2.56 2.56 0 0 1 2.624-2.7c1.526 0 2.78.9 3.994 3.564l.98-.235c-.173-1.306-.474-2.593-.9-3.84a8.19 8.19 0 0 0-3.369-.7c-3.448 0-5.955 2.4-5.955 5.25 0 2.624 2.233 4 4.818 5.172 2.193.98 3.1 2.116 3.1 3.72a2.78 2.78 0 0 1-2.821 2.979c-2.35 0-4.152-2.548-4.78-4.857l-.94.236zm23.5 4.62c-3.446 0-5.64-3.878-5.64-8.93 0-4.23 2-6.973 4.7-6.973 3.643 0 5.562 4.114 5.562 8.54 0 5.406-2.112 7.364-4.622 7.364zm-.43 1.22c4.036 0 8.7-3.217 8.7-9.445.085-2.356-.803-4.643-2.455-6.325s-3.923-2.61-6.28-2.57c-3.643 0-8.814 2.938-8.814 9.637a8.7 8.7 0 0 0 8.854 8.7zm17.5-18.455a57.51 57.51 0 0 1-5.836 1.606v.705c2.624.313 2.7.353 2.7 2.742v9.285c0 2.233-.236 2.43-2.86 2.664v.94h8.853v-.94c-2.664-.235-2.86-.43-2.86-2.664V63.69c1.17-1.116 2.696-1.783 4.31-1.88 2.98 0 3.722 2 3.722 4.31v7.638c0 2.233-.235 2.43-2.86 2.664v.94h8.853v-.94c-2.664-.235-2.86-.43-2.86-2.664v-8.892c0-3.135-1.8-5.328-5.092-5.328-1.92 0-4.23 1.528-6.074 2.938V59.42zm21.78.04a57.53 57.53 0 0 1-5.836 1.606v.7c2.624.313 2.7.353 2.7 2.742v9.245c0 2.233-.235 2.43-2.86 2.664v.94h8.853v-.94c-2.664-.235-2.86-.43-2.86-2.664v-14.3zm-1.566-9.362c-1.178.035-2.106 1.015-2.077 2.193a2.11 2.11 0 0 0 2.077 2.155c.564-.002 1.102-.232 1.493-.64s.6-.953.58-1.516c.02-.567-.187-1.12-.578-1.532s-.93-.65-1.497-.66zm22.17 25.815l-.355-.9a4.74 4.74 0 0 1-1.723.509c-.586 0-1.1-.667-1.1-2.155v-8.97c0-2.743-1.372-4.858-4.7-4.858-2.23.467-4.328 1.417-6.15 2.782-.86.665-1.37 1.136-1.37 1.723 0 .705 1.1 1.333 1.724 1.333a.96.96 0 0 0 .94-.743c.47-1.725 1.253-3.37 3.21-3.37 2.116 0 3.29 1.332 3.29 3.8v1.37a48.9 48.9 0 0 1-6.424 2.786c-2.074.86-3.057 2.193-3.057 4.035a4.77 4.77 0 0 0 4.779 4.627c.862 0 3.017-1.532 4.7-2.63.148 1.232 1.007 2.262 2.193 2.63zm-6.23-1.8a7.06 7.06 0 0 1-3.488 1.529c-.768-.04-1.485-.394-1.982-.98s-.73-1.352-.642-2.115a3.18 3.18 0 0 1 2.077-3.017c1.253-.667 2.624-1.214 4.035-1.8v6.383zm13.7-14.688a57.6 57.6 0 0 1-5.836 1.606v.705c2.624.313 2.7.353 2.7 2.742v9.285c0 2.233-.236 2.43-2.86 2.664v.94h8.853v-.94c-2.664-.235-2.86-.43-2.86-2.664V63.69c1.17-1.116 2.696-1.783 4.31-1.88 2.976 0 3.722 2 3.722 4.31v7.638c0 2.233-.235 2.43-2.86 2.664v.94h8.853v-.94c-2.667-.235-2.86-.43-2.86-2.664v-8.892c0-3.135-1.8-5.328-5.095-5.328-1.92 0-4.23 1.528-6.07 2.938V59.42z"/><path d="M36.595 78.176c7.598-3.148 11.205-11.86 8.057-19.456s-11.86-11.205-19.456-8.058S13.99 62.52 17.138 70.118a14.89 14.89 0 0 0 19.457 8.058z" fill="#00a1c6"/><path d="M41.27 67.9a3.61 3.61 0 0 0-3.092-1.932v-.005l7.423-1.548-7.423-1.545a6.01 6.01 0 0 1 3.685-1.375 2.5 2.5 0 0 0 2.145-3.559c0 0-.27 2.414-3.316 1.608-1.245-.39-2.603-.076-3.55.82h0l4.156-6.344-6.342 4.156a6.01 6.01 0 0 1 1.634-3.579 2.5 2.5 0 0 0-1-4.033s1.517 1.9-1.206 3.48a3.6 3.6 0 0 0-1.931 3.091h0l-1.546-7.423-1.546 7.423c-.86-1.04-1.344-2.337-1.376-3.685a2.5 2.5 0 0 0-3.558-2.146s2.413.27 1.608 3.314a3.6 3.6 0 0 0 .821 3.553h0l-6.344-4.156 4.157 6.344a6 6 0 0 1-3.582-1.632 2.5 2.5 0 0 0-4.033 1s1.9-1.517 3.483 1.208a3.6 3.6 0 0 0 3.094 1.93v.005l-7.423 1.545 7.423 1.547c-1.04.86-2.338 1.344-3.686 1.377a2.5 2.5 0 0 0-2.145 3.557c0 0 .27-2.413 3.315-1.607a3.6 3.6 0 0 0 3.554-.824v.005l-4.155 6.342 6.34-4.155a6 6 0 0 1-1.632 3.581 2.5 2.5 0 0 0 1 4.033s-1.517-1.9 1.206-3.483a3.6 3.6 0 0 0 1.931-3.093l1.553 7.422 1.546-7.422a6.02 6.02 0 0 1 1.377 3.687 2.5 2.5 0 0 0 3.559 2.144c0 0-2.414-.266-1.6-3.315a3.6 3.6 0 0 0-.821-3.553l6.35 4.155-2.194-3.348-1.977-3a6 6 0 0 1 3.579 1.632 2.5 2.5 0 0 0 4.033-1s-1.9 1.52-3.485-1.2z" fill="#f6d43c"/></svg>