<svg xmlns="http://www.w3.org/2000/svg" width="280" height="130"><path d="M50.6 33L42 41.543v21.974l7.47 7.472h17.856v7.63h-9.18v-4.976h-16.13v12.013l7.38 7.438h24.847l7.236-7.23V63.415l-7.5-7.248h-16.39v-8.183h9.068v5.64h14.82V41.437L73.227 33z" fill="#960026"/><path d="M42.983 41.988v21.14l6.886 6.887h18.438v9.62H57.14V74.66H42.995v10.6l6.907 6.987h23.8l6.882-6.887v-21.4l-7.04-6.76H56.585V47.018h11.06v5.638h12.94V41.993L72.8 34.02H50.988l-8 7.97" fill="#fff"/><path d="M51.393 35.086l-7.41 7.395V62.79l6.3 6.3h19.02V80.7H56.148v-4.977h-12.15v9.18l6.316 6.412H73.3l6.294-6.308V64.42l-6.47-6.167h-17.53V46.09h13.052v5.64h10.947v-9.25l-7.19-7.395z" fill="#960026"/><path d="M65.63 66.316c-.01.02-.025.04-.042.055a.36.36 0 0 0 .042-.055" fill="#a0002a"/><path d="M62.332 34.04a.86.86 0 0 0-.722.32c-.093.13-.144.287-.145.448.004.11.022.217.052.322l-.4.782h-.166c-.388-.053-.76.175-.89.545a.95.95 0 0 0-.105.454c.027.365.126.72.292 1.048l.16.226c-.672.353-1.06 1.078-.983 1.833a.77.77 0 0 0 .1.353.75.75 0 0 0 .268.276l-.11.112c-.8.61-1.695 1.174-1.716 1.915a1.51 1.51 0 0 0 .2.6c-.54.277-1.123.776-1.116 1.388-.001.022-.001.045 0 .067.062.763.994 1.066 1.278 1.14l.24.063.213-.127c.475-.325 1.017-.537 1.586-.62v.033c.016 1.4-1.962 2.008-2.046 2.035l.1-.024c-1.65.206-3.082 1.238-3.8 2.738a1.71 1.71 0 0 0-.543 1.142c.001.254.095.498.265.687l.068.068.086.044c.9.45 2.7-.573 3.695-1.222l.052-.033.043-.043c.125-.152.304-.25.5-.274.138.026.262.1.35.21l.1.133.165.067c.15.053.292.12.428.2-1.23.45-2.434.978-3.6 1.578l-.183.086-.1.182a4.46 4.46 0 0 1-1.895 1.365c-.78.24-1.395.838-1.657 1.61-.03.123-.043.25-.042.376.01.38.143.745.38 1.042l.14.165.213.035a30.4 30.4 0 0 0 5.075-.922l.04-.01.038-.015c.7-.27.917-.174.943-.16l.017.178.1.084a4.89 4.89 0 0 1-1.14 1.582l-.105.1-.042.143c-.195.423-.557.745-1 .9l.046-.013c-3.21.8-3.245 2.05-3.18 2.415l.1.527 2.92-.244.145-.124c.178-.152.23-.1.272-.055l.116.12.18.06.406.1c0 .02.006.025.006.046-.012.352-.065.7-.158 1.04h-1.52l-.072.437c-.136.08-.29.12-.448.12-.693-.3-1.4.458-1.485.542l-.058.06-.08.122a2.33 2.33 0 0 1-.7.418l.1-.034c-.6.15-.775.472-.817.717a.81.81 0 0 0-.011.138.92.92 0 0 0 .368.682c-.473.12-1.184.3-1.176.944v.05a.7.7 0 0 0 .334.555c.223.14.815.51 5.507-1.418l.047-.02a2.84 2.84 0 0 1-.418.354l-.067.044-.053.062c-.328.328-.736.564-1.184.686l.053-.01c-1.9.3-2.537 1.15-2.748 1.626-.19.368-.182.807.02 1.168.2.315.245.34 2.4-.047a7 7 0 0 1-.392 1.029l-1.72 1.546c-2.023 1.15-3.235 4.875-3.37 5.3l-.02.063-.006.063c-.003.052-.003.103 0 .155-.018.35.152.683.445.875.62.387 1.53-.075 1.89-.3l.135-.08.276-.493a2.13 2.13 0 0 1 1.522-.713 3 3 0 0 0 2.1-.983l.05-.05.036-.06a.32.32 0 0 1 .239-.169c1.358.18 2.35-1.3 2.7-1.9.316-.083.58-.01.83.5.193.667.294 1.357.3 2.05v.32l-.118 3.873.054-.073v.06l-.03 1.037-.11 1.833c-.15 1.128-.356 1.26-.433 1.308a2.58 2.58 0 0 1-.486.184c-.25.07-.49.164-.724.277a2.98 2.98 0 0 0-1.659 1.933 1.72 1.72 0 0 1-.493.753c-.555.352-.555.352-.767.387l-.456.087c-.7.204-1.28.695-1.6 1.35l-.412 1.035h17.477l-.09-.96c-.088-.82-.453-1.342-2.2-1.922-.458-.1-.867-.357-1.154-.728a5.79 5.79 0 0 0-2-1.352c-.49-.25-.93-1.312-1.205-2.662a2.57 2.57 0 0 1-.061-1.1v-.03l-.092-2.636c0 .017-.012-2.12-.012-2.12l.035-2.942a3.23 3.23 0 0 0 1.428.447l2.24.092h.038c1.03.288 1.98.808 2.778 1.52l.035.028.04.022c.695.4 1.563.794 2.13.34.312-.28.424-.722.282-1.117l.02.1c-.565-4.043-2.9-4.706-3.277-4.788a1.44 1.44 0 0 1-.268-.1.58.58 0 0 1 .07-.083l-.038.032c.7-.545.99-1.09.86-1.624-.2-.8-1.213-1.018-1.415-1.055l-.094-.018-.094.014a3.9 3.9 0 0 1-2.214-.586c-1.063-.813-1.35-1.445-1.353-1.8-.004-.08.014-.162.052-.233l-.016.022.072-.1.018-.076a5.6 5.6 0 0 1 2.012.892l-.067-.052c.613.56 1.536.6 2.207.12l.15-.112.06-.188a3.57 3.57 0 0 1 .742-.735 1.26 1.26 0 0 0 .606-1.005c-.002-.086-.015-.17-.04-.253-.25-.84-1.7-1.14-2.934-1.243L67.515 63c-.855-.368-1.576-1-2.065-1.782l1.858.18c.513.136 1.054.113 1.554-.064a.75.75 0 0 0 .458-.692c.001-.014.001-.03 0-.043a3.17 3.17 0 0 0-2.008-2.038c-.848-.4-1.557-1.028-2.034-1.83-.063-.232-.094-.47-.093-.71a4.61 4.61 0 0 1 .043-.654 1.96 1.96 0 0 1 1.057.647l.2.234.306-.023c.262.02.516.098.742.23l.227.127.25-.08a6.71 6.71 0 0 1 1.747.121c.9.13 1.228.3 1.512-.21l.075-.117.033-.157a3.46 3.46 0 0 0-1.739-3.427l-.194-.094-.045.01a2.34 2.34 0 0 1-.315-.473 1.93 1.93 0 0 0-1.929-.9c-.227-.174-.498-.282-.783-.3l-.17-.186a1.47 1.47 0 0 0-.059-.249l.3.042c2.8.392 3.155.4 3.463.093.22-.215.313-.53.246-.83-.216-.994-2.46-2.032-4.307-2.728-1.342-.512-1.692-1.05-1.762-1.182-.006-.05-.056-.123-.056-.166-.008-.078.023-.155.082-.207.143-.122.5-.084.85.028l.067.02.07.006c.738.15 1.485-.21 1.823-.884l.07-.2-.068-.2a2.7 2.7 0 0 0-1.354-1.5c.255-.17.394-.466.36-.77-.187-.64-.623-1.18-1.2-1.5.663-.22.015-1.38-.776-2l-.242-.182a1.32 1.32 0 0 0 .792-1.035c.01-.053.013-.106.012-.16a.71.71 0 0 0-.528-.717 1.83 1.83 0 0 1-.817-.324c.146-.02 0-.813-.095-.96.01-.077.072-.26.07-.34a.76.76 0 0 0-.21-.6c-.168-.138-.384-.203-.6-.18" fill="#fff"/><path d="M63.774 74.695l-.04 3.31.012 2.138.092 2.6c-.063.418-.038.845.07 1.254.23 1.13.672 2.64 1.515 3.07 2.335 1.188 1.42 1.513 3.232 2.114 1.858.617 1.752 1.06 1.812 1.55H54.6c.246-.49.678-.864 1.2-1.035a2.4 2.4 0 0 0 1.412-.551c.712-.453.588-2.013 2.067-2.642.6-.256 1.015-.33 1.293-.5.2-.126.518-.326.7-1.73.062-.467.113-2.128.135-2.906l.09-2.014-.085.115.06-2v-.34a8.59 8.59 0 0 0-.356-2.29 1.26 1.26 0 0 0-1.758-.75s-1.036 2.1-2.316 1.822a.91.91 0 0 0-.73.455s-.973.99-1.7.806a2.78 2.78 0 0 0-2.011 1.005l-.2.365s-1.53.914-1.44-.182c0 0 1.247-4 3.167-5.01l1.828-1.645s1.022-2.07.382-2.16l-2.365.487s.09-1.4 2.373-1.77a4.21 4.21 0 0 0 1.439-.994c0 0 1.372-.912.915-1.644 0 0-.457-.274-1.1.273 0 0-4.983 2.047-5.028 1.37-.025-.387 1.463-.366 1.646-.824 0 0 0-1-.64-.547 0 0-.55-.366.182-.548 0 0 .823-.367 1.006-.73 0 0 .548-.548 1.006-.366 0 0 1.005 0 1.1-.548h1.462s.543-1.62.177-2.17l-.73-.183c-.14-.158-.34-.248-.55-.248s-.41.1-.55.248l-2.194.183s-.183-1.006 2.742-1.737c.62-.2 1.118-.676 1.37-1.28 0 0 1.827-1.828 1.187-2.376 0 0-.1-.914-1.736-.275a42 42 0 0 1-4.843.915c0 0-1.006-1.19 1.1-2.1 0 0 1.736-.73 2.193-1.646 1.193-.594 2.417-1.123 3.667-1.583 0 0 1.188-.64-.55-1.28a1.07 1.07 0 0 0-1.736 0s-2.377 1.553-3.108 1.187c0 0-.365-.365.366-1.1a4.32 4.32 0 0 1 3.381-2.468s2.946-.89 2.38-3.155c0 0-.678-.4-2.41.64 0 0-1.94-.642.26-1.62l.658-.893s-.67.475-.77-.024c-.05-.25-.07-.6.626-.946.894-.44.683-.843 1.74-.9a.5.5 0 0 0 .052-.436c-1.018-.12-1.5-1.4.276-2.182l.18-.752-.77.068s-.644-1.16.59-1.137a3.26 3.26 0 0 0 .77-1.4s-.315-.5.233-.5c0 0 .37-.163.188.66.132.292.207.607.22.927 0 0-.227.525 1.112.832.143.033.148.987-.767.9 0 0-.3.6.565 1.28 0 0 1.427 1.326.133 1.4 0 0 1.992 1.27 1.42 1.842-.25.25-1.02-.1-1.093.043-.1.208-.063.31.21.425.23.1 1.66.46 2.052 1.6 0 0-.208.574-1.223.5 0 0-1.918-.706-1.645 1.03 0 0 .22.88 2.14 1.61 0 0 4.672 1.762 3.85 2.59-.22.22-4.123-.487-4.855-.487l-.09.55s1.1-.275 1.1.73l.448.486s.73 0 .822.366c0 0 1.188-.274 1.645.55 0 0 .457.913.822.822a2.9 2.9 0 0 1 1.389 2.862c-.1.156-2.23-.395-2.94-.162-.33-.19-.702-.293-1.082-.305 0 0-1.024-1.242-2.027-.75a4.61 4.61 0 0 0 0 2.011c.52.975 1.35 1.748 2.36 2.2a2.75 2.75 0 0 1 1.66 1.544c.027.354-.987.24-1.143.2s-2.968-.3-2.968-.3c.022.224.076.444.16.653.53 1.4 1.626 1.775 3.408 2.89 0 0 3.748.274 2.194 1.462 0 0-.852.664-.943 1.03-.448.318-1.058.28-1.463-.09 0 0-2.713-1.76-2.9-.57 0 0-.834 1.113 1.45 2.85a4.54 4.54 0 0 0 2.636.687c0 0 1.943.353.3 1.632 0 0-.912.823.458 1.188 0 0 2.285.367 2.834 4.3 0 0 .364 1.19-1.556.092 0 0-2.193-1.737-3.2-1.645l-2.194-.09a2.4 2.4 0 0 1-1.387-.544s-.6-.47-.657.324" fill="#005d41"/><path d="M132.458 63.763c-5.232 0-5.523-3.78-5.523-4.94 0-1.453.3-3.78 3.78-4.942l6.395-2.035v-.872a3.75 3.75 0 0 0-.29-2.035c-.58-1.453-1.744-2.035-3.488-2.035-1.62-.1-3.127.838-3.78 2.325l-1.163-.872a6.29 6.29 0 0 1 6.395-4.36 6.59 6.59 0 0 1 5.523 2.325c.872 1.163.872 3.2.872 4.94v7.267c0 1.453.3 2.325 1.453 2.325.58 0 .58 0 .872-.58l.3 1.163c-.873 1.416-2.406 2.292-4.07 2.325-1.453 0-2.616-.58-2.907-2.035a5.18 5.18 0 0 1-4.36 2.037zm4.36-9.883c-1.382.4-2.74.895-4.07 1.453a3.2 3.2 0 0 0-1.744 2.907c0 1.163.3 2.616 2.907 2.616a5.61 5.61 0 0 0 2.907-.872zm-42.438 9v-5.52h1.163a3.55 3.55 0 0 0 .872 2.616 6.54 6.54 0 0 0 4.36 1.453q5.232 0 5.232-4.36c0-2.616-1.453-3.488-3.78-4.942l-.3-.3-2.326-1.453c-2.907-2.035-4.65-3.78-4.65-6.976 0-1.744.58-6.976 8.43-6.976a36.28 36.28 0 0 1 6.1.581v5.523h-.58a3.55 3.55 0 0 0-.872-2.616c-.872-.872-2.616-1.163-4.36-1.163-4.36 0-4.65 2.035-4.65 3.78 0 2.326 1.163 2.907 3.488 4.65l2.907 2.035c2.325 1.744 4.65 3.2 4.65 7.267 0 6.976-6.395 7.557-9 7.557a39.7 39.7 0 0 1-6.681-1.163zm51.157-17.44a19.3 19.3 0 0 0 3.779-.291 6.96 6.96 0 0 0 2.616-.872l.3.3v1.453a10.19 10.19 0 0 1 5.523-1.744c3.488 0 5.523 1.453 6.395 4.36 0 .872.3 2.616.3 3.488v5.523c0 3.2 0 4.07.58 4.65.484.412 1.1.62 1.744.58v.872c-1.163 0-3.488-.3-4.65-.3-1.556-.08-3.117.02-4.65.3v-.872a4.2 4.2 0 0 0 2.035-.581c.582-.58.582-1.744.582-4.07v-3.2a22.1 22.1 0 0 0-.29-4.36c-.3-2.325-1.453-3.488-4.07-3.488a5.59 5.59 0 0 0-3.488.872v9.883c0 3.2 0 4.07.58 4.65a3.08 3.08 0 0 0 1.744.58v.872c-1.453 0-3.488-.3-4.65-.3a19.36 19.36 0 0 0-4.651.291V62.6c.784.084 1.555-.247 2.035-.872.582-.58.582-2.325.582-5.523V50.97c0-2.325 0-3.2-.3-3.78-.3-.3-.872-.58-2.325-.58v-1.163zM169.08 62.6a2.64 2.64 0 0 0 2.035-.872c.58-.58.58-2.325.58-5.523v-9h-2.324V46.03c.856-.2 1.653-.597 2.325-1.163a25.04 25.04 0 0 1 .291-4.942c.872-3.78 3.2-5.813 7.557-5.813a6.66 6.66 0 0 1 4.942 1.163v.3l-1.744 2.616h-.58a3.4 3.4 0 0 0-3.2-2.325 5.39 5.39 0 0 0-2.035.581c-.872.872-.872 2.035-.872 4.36v3.78h4.36v2.325h-4.36V57.37c0 2.616 0 3.78.3 4.07.58.872 2.325.872 2.907.872v.872c-1.453 0-3.488-.3-5.232-.3a26.78 26.78 0 0 0-5.232.29v-.58zm21.8 1.453c-5.813 0-9.3-3.488-9.3-9.592 0-4.65 2.616-10.173 9.592-10.173 5.813 0 9.3 3.488 9.3 9.592.002 4.65-2.614 10.173-9.592 10.173zm.3-17.73a3.55 3.55 0 0 0-2.616.872c-1.453 1.163-2.325 3.488-2.325 6.976 0 1.163.3 7.557 4.94 7.557a3.55 3.55 0 0 0 2.616-.872c1.453-1.163 2.326-3.488 2.326-6.976.001-1.162-.3-7.556-4.94-7.556zm11.336-.872c1.363.038 2.726-.06 4.07-.3.756-.264 1.535-.46 2.326-.58l.3.3v1.744a5.25 5.25 0 0 1 4.36-2.035 3.97 3.97 0 0 1 3.2 1.163v.58L215.3 49.23h-.872c-.664-1.127-1.893-1.797-3.2-1.744a4.2 4.2 0 0 0-2.035.581v9.592c0 2.616 0 3.78.3 4.07.58.872 2.035.872 2.907.872v1.163c-1.163 0-3.488-.3-5.232-.3a31.59 31.59 0 0 0-5.232.291V62.6c1.163 0 1.744-.3 2.035-.872.872-.58.872-2.035.872-5.232V50.97c0-2.325 0-3.488-.3-3.78s-.872-.58-2.325-.58v-1.163zm26.45-10.464a30.46 30.46 0 0 0 4.36-.58c1.163-.3 1.744-.3 2.035-.58l.3.3a56.22 56.22 0 0 0-.291 7.557V57.08c0 2.325 0 3.78.3 4.07s.872.58 2.325.58v1.163c-1.163 0-2.616.3-4.07.3-.872.3-1.744.3-2.035.58l-.58-.3V62.02a9.96 9.96 0 0 1-5.232 1.744c-5.232 0-8.43-3.488-8.43-9.3a16.46 16.46 0 0 1 .872-5.232c1.453-3.488 4.942-5.523 9-5.523 1.453 0 2.907.3 3.78.3V40.5c0-2.325 0-3.488-.3-4.07-.3-.3-.58-.58-2.035-.58zm-.578 26.16a6.63 6.63 0 0 0 3.2-.872v-12.5a5.42 5.42 0 0 0-3.78-1.163c-3.78 0-5.523 2.325-5.523 7.557-.004 2.327.577 6.978 6.102 6.978zm-103.478.58a6.76 6.76 0 0 1-5.232 2.035q-4.36 0-5.232-3.488a13.03 13.03 0 0 1-.291-3.488v-9.592h-2.327v-.872a8.52 8.52 0 0 0 2.326-1.163 14.98 14.98 0 0 0 3.488-4.651h.872v4.36h6.394v2.325h-6.395v9.883c0 2.907.58 4.65 3.2 4.65.9.052 1.815-.15 2.616-.58zm90.108 17.73c-.32-.04-.64.067-.872.3-.3.3-.3.3-.3.58a2.2 2.2 0 0 0 .291 1.163l1.744 4.65a4.13 4.13 0 0 1 .581 1.744l2.035-6.395c.3-.872.3-.872.3-1.163s0-.3-.3-.58c-.232-.224-.552-.33-.872-.3v-.58h4.655v.58c-.3 0-1.163 0-1.744 1.744l-4.65 12.5c-.58 1.744-1.453 4.07-4.65 4.07a4.34 4.34 0 0 1-2.907-.872v-.3l1.163-1.453h.3c.2.77.954 1.266 1.744 1.163 1.453 0 2.035-1.163 3.2-4.07l.3-.582-4.076-10.174v-.3a2.93 2.93 0 0 0-.291-.872c-.3-.582-.58-.582-1.163-.582v-.58h5.523zm-43.02-.3a8.05 8.05 0 0 0 2.616-.29 12.59 12.59 0 0 0 1.453-.291h.3v1.163a3.87 3.87 0 0 1 2.907-1.163 2.64 2.64 0 0 1 2.035.872v.3l-.872 1.744h-.58a2.09 2.09 0 0 0-2.035-1.163 2.62 2.62 0 0 0-1.453.291v6.1c0 1.453 0 2.325.3 2.616.3.58 1.453.58 2.035.58v.58h-6.397v-.58a2.22 2.22 0 0 0 1.453-.581c.3-.3.3-1.453.3-3.488V82.36c0-1.453 0-2.035-.3-2.325s-.58-.3-1.453-.582v-.3zm-54.064 11.918q-5.232 0-6.1-3.488a16.52 16.52 0 0 1-.29-3.78v-6.395c0-2.035 0-2.325-.58-2.616-.3 0-.58-.3-1.163-.3v-.58h6.1v.58c-.58 0-.872 0-1.163.58-.3.3-.3 1.163-.3 3.2v5.816c0 3.488.3 5.523 4.07 5.523s4.074-2.33 4.074-5.818v-6.395c0-2.035 0-2.325-.58-2.616-.3 0-.872-.3-1.163-.3v-.58h5.523v.58c-.58 0-.872 0-1.163.58-.3.3-.3 1.163-.3 3.2v4.942a12.8 12.8 0 0 1-.581 4.651c-1.166 2.032-3.2 3.195-6.398 3.195zm23.254-.872a2.22 2.22 0 0 0 1.453-.581c.3-.3.3-1.453.3-3.488v-3.488c0-1.453 0-2.325-.3-2.616s-.58-.3-1.453-.582v-.58a12.04 12.04 0 0 0 2.907-.291c.58 0 .872-.3 1.453-.3l.3.3v8.14c0 1.453 0 2.325.3 2.616a2.22 2.22 0 0 0 1.453.581v.58h-6.1v-.3zm2.907-13.66a1.37 1.37 0 0 1-1.053-.4c-.277-.278-.423-.66-.4-1.053 0-.872.58-1.453 1.744-1.453a1.37 1.37 0 0 1 1.053.4c.277.278.423.66.4 1.053a1.84 1.84 0 0 1-1.745 1.453zm48.25 13.66a2.22 2.22 0 0 0 1.453-.581c.3-.3.3-1.453.3-3.488v-3.488c0-1.453 0-2.325-.3-2.616s-.58-.3-1.453-.582v-.58a12.04 12.04 0 0 0 2.907-.291c.582 0 .872-.3 1.454-.3l.3.3v8.14c0 1.453 0 2.325.3 2.616a2.22 2.22 0 0 0 1.453.581v.58h-6.1v-.3zm3.2-13.66a1.37 1.37 0 0 1-1.053-.4c-.277-.278-.423-.66-.4-1.053 0-.872.58-1.453 1.744-1.453.392-.024.776.12 1.054.4s.424.66.4 1.054a1.84 1.84 0 0 1-1.748 1.453zm-13.08 13.952a9.94 9.94 0 0 0-.291-3.2h.872a2.22 2.22 0 0 0 .581 1.453 2.64 2.64 0 0 0 2.035.872h0c1.453 0 2.035-.58 2.035-1.744 0-.872-.58-1.163-1.453-1.744L184.5 84.98c-1.208-.62-1.987-1.843-2.035-3.2a2.92 2.92 0 0 1 1.744-2.907 7.23 7.23 0 0 1 2.326-.29 11.96 11.96 0 0 1 3.2.29v3.2h-.872a1.6 1.6 0 0 0-.581-1.453 3.39 3.39 0 0 0-2.035-.581c-1.163 0-1.744.58-1.744 1.453s.582 1.163 1.163 1.453h0l1.744.872a3.61 3.61 0 0 1 2.325 3.488c0 3.2-2.907 3.78-4.65 3.78-.884-.143-1.76-.336-2.622-.578zm25.58-.872c-.3.58-1.163 1.453-3.2 1.453-1.744 0-2.907-.58-3.488-2.035a6.4 6.4 0 0 1-.291-2.325v-6.1h-1.453v-.58c.52-.224 1-.518 1.453-.872a12.68 12.68 0 0 0 2.325-2.907h.58v2.616h4.07v1.454h-4.07v6.395c0 2.035.3 2.907 2.035 2.907a2.46 2.46 0 0 0 1.744-.58zm-54.94-10.755h-5.523v.58s.872 0 1.163.582a1.01 1.01 0 0 0 .29.58c0 .3 0 .3.3.3l3.78 9.882 1.163-.3 4.36-9.592v-.3a2.25 2.25 0 0 1 .291-.872c.3-.582.872-.872 1.163-.582v-.872h-4.653v.58a2.93 2.93 0 0 1 .872.291 1.01 1.01 0 0 1 .29.582 2.2 2.2 0 0 1-.291 1.163l-2.325 5.813a4.91 4.91 0 0 0-.581-1.453l-1.745-4.358a2.2 2.2 0 0 1-.291-1.163c0-.3 0-.3.3-.3.3-.3.58-.3 1.163-.3zm-26.45.58c.786.03 1.57-.068 2.325-.3a3.12 3.12 0 0 0 1.744-.58h.3v.872c.968-.824 2.22-1.24 3.488-1.163a3.8 3.8 0 0 1 4.07 2.907c0 .58.3 1.453.3 2.035v3.488c0 2.035 0 2.616.58 2.907.3.3.58.3 1.163.3v.58h-5.82v-.58a1.51 1.51 0 0 0 1.163-.581c.3-.3.3-1.163.582-2.616v-4.65c-.3-1.453-.872-2.325-2.616-2.325a4.5 4.5 0 0 0-2.325.581v6.395c0 2.035 0 2.616.58 2.907.3.3.58.3 1.163.3v.58h-5.8v-.58c.58 0 1.163-.3 1.163-.58.3-.3.3-1.453.3-3.488V82.37c0-1.453 0-2.035-.3-2.325-.362-.418-.903-.635-1.453-.582h-.58zm39.534 11.627c-3.488 0-5.523-2.035-5.523-5.813 0-.58.3-6.685 5.813-6.685 1.744 0 3.2.58 3.78 1.744a7.58 7.58 0 0 1 .872 3.2v.58h-7.557v1.453a3.68 3.68 0 0 0 4.069 3.488 8.6 8.6 0 0 0 2.907-.581l.3.58a6.86 6.86 0 0 1-4.651 2.032zm-2.907-8.14h4.65c0-1.453-.3-3.2-2.325-3.2-2.038.294-2.33 2.038-2.33 3.2z" fill="#960026"/></svg>