<svg xmlns="http://www.w3.org/2000/svg" width="48" height="48"><g fill="#4e5af9"><path d="M24 8c-4.54 0-8.8 1.768-12.02 4.98A16.85 16.85 0 0 0 7 25c0 4.54 1.768 8.8 4.98 12.02A16.85 16.85 0 0 0 24 42c4.54 0 8.8-1.768 12.02-4.98A16.85 16.85 0 0 0 41 25c0-4.54-1.768-8.8-4.98-12.02A16.85 16.85 0 0 0 24 8m0-1c9.94 0 18 8.06 18 18s-8.06 18-18 18S6 34.94 6 25 14.06 7 24 7zM11.75 19h25v13h-25z"/><circle cx="36.5" cy="25.5" r="2.5"/><circle cx="12.1" cy="25.5" r="2.5"/></g><path d="M24.5 0v20.818" fill="none" stroke="#4e5af9"/><circle cx="24.5" cy="2.5" r="2.5" fill="#4e5af9"/><g fill="#fff"><circle cx="29.5" cy="25.5" r="2.5"/><circle cx="19.5" cy="25.5" r="2.5"/></g><path d="M36.955 13L12.06 37.895" fill="none" stroke="#4e5af9"/></svg>