<svg width="48" height="48" viewBox="0 0 48 48" fill="none" xmlns="http://www.w3.org/2000/svg">
<path fill-rule="evenodd" clip-rule="evenodd" d="M28 18H0V38H5L5.00041 42L11 38H28V18ZM15.5448 26.5221L13.9993 23.3911L12.4552 26.5221L9 27.0242L11.5 29.4611L10.9097 32.9023L14 31.2777L17.0903 32.9023L16.5 29.4611L19 27.0242L15.5448 26.5221Z" fill="#4E5AF9"/>
<path fill-rule="evenodd" clip-rule="evenodd" d="M47 26H43L42.9997 28.7982L42.9996 30L41.9997 29.3333L37 26H21H20V25V7V6H21H47H48V7V25V26H47ZM42 25.9999L41.9998 28.1315L37.5547 25.168L37.3028 25H37H21V7H47V25H43H42.0001L42 25.9999ZM34 11.874C31.7909 11.874 30 13.6649 30 15.874C30 18.0832 31.7909 19.874 34 19.874C36.2091 19.874 38 18.0832 38 15.874C38 13.6649 36.2091 11.874 34 11.874Z" fill="#4E5AF9"/>
</svg>
