<svg xmlns="http://www.w3.org/2000/svg" width="48" height="48"><path d="M24 12c6.627 0 12 5.373 12 12s-5.373 12-12 12-12-5.373-12-12 5.373-12 12-12zm0-5c-4.54 0-8.8 1.768-12.02 4.98A16.85 16.85 0 0 0 7 24c0 4.54 1.768 8.8 4.98 12.02A16.85 16.85 0 0 0 24 41c4.54 0 8.8-1.768 12.02-4.98A16.85 16.85 0 0 0 41 24c0-4.54-1.768-8.8-4.98-12.02A16.85 16.85 0 0 0 24 7m0-1c9.94 0 18 8.06 18 18s-8.06 18-18 18S6 33.94 6 24 14.06 6 24 6z" fill="#4e5af9"/><path fill="none" stroke="#4e5af9" d="M36.374 11.625l-24.75 24.75"/><text fill="#fff" font-size="16" font-family="FuturaPT-Book, Futura PT"><tspan x="19.5" y="29">$</tspan></text></svg>