<svg xmlns="http://www.w3.org/2000/svg" width="48" height="48"><path d="M41.5 17.613h-35" fill="none" stroke="#4e5af9"/><path d="M11.5 17.98a12.6 12.6 0 0 1 4.132-9.285c2.055-1.93 5.06.952 8.368.952 3.148 0 6.024-3 8.412-.912A12.33 12.33 0 0 1 36.5 17.98zM10 20h28l-1 9H11z" fill="#4e5af9"/><path d="M22.806 24.68a3.5 3.5 0 1 1-6.467-2.679zm2.194 0a3.5 3.5 0 1 0 6.467-2.679z" fill="#fff"/><path d="M36.5 27.482c0 6.904-5.596 12.5-12.5 12.5s-12.5-5.596-12.5-12.5" fill="none" stroke="#4e5af9"/></svg>