<svg width="48" height="48" viewBox="0 0 48 48" fill="none" xmlns="http://www.w3.org/2000/svg">
<rect x="3" y="26" width="18" height="18" fill="#4E5AF9"/>
<rect x="25.999" y="25" width="20" height="20" rx="10" fill="#4E5AF9"/>
<path fill-rule="evenodd" clip-rule="evenodd" d="M24.4994 10.5H29.9994C33.5892 10.5 36.4994 13.4101 36.4994 17V21.7929L38.8278 19.4645C39.0231 19.2692 39.3396 19.2692 39.5349 19.4645C39.7302 19.6597 39.7302 19.9763 39.5349 20.1716L36.3529 23.3536C36.1577 23.5488 35.8411 23.5488 35.6458 23.3536L32.4638 20.1716C32.2686 19.9763 32.2686 19.6597 32.4638 19.4645C32.6591 19.2692 32.9757 19.2692 33.1709 19.4645L35.4994 21.7929V17C35.4994 13.9624 33.0369 11.5 29.9994 11.5H23.9994H17.9994C14.9618 11.5 12.4994 13.9624 12.4994 17V21.7929L14.8278 19.4645C15.0231 19.2692 15.3396 19.2692 15.5349 19.4645C15.7302 19.6597 15.7302 19.9763 15.5349 20.1716L12.3529 23.3536C12.1577 23.5488 11.8411 23.5488 11.6458 23.3536L8.46383 20.1716C8.26857 19.9763 8.26857 19.6597 8.46383 19.4645C8.65909 19.2692 8.97567 19.2692 9.17094 19.4645L11.4994 21.7929V17C11.4994 13.4101 14.4095 10.5 17.9994 10.5H23.4994V3H24.4994V10.5Z" fill="#4E5AF9"/>
</svg>
