<svg xmlns="http://www.w3.org/2000/svg" width="48" height="48" fill="none" xmlns:v="https://vecta.io/nano"><path d="M24 4a20 20 0 0 1 18.478 12.346 20 20 0 0 1-4.336 21.796 20 20 0 0 1-21.796 4.336A20 20 0 0 1 4 24 20 20 0 0 1 24 4h0z" fill="#4e5af9"/><path d="M29.304 16.957c-.435-.84-1.101-1.623-1.855-2.145-.87-.609-1.652-.754-2.203-.812v-2.522h-1.739V14c-2.493.232-4.522 2.174-4.522 4.927 0 1.217.319 2.203 1.333 3.16.986.928 2.406 1.565 3.188 1.884v7.942c-.638-.029-1.478-.261-2.261-1.073-.58-.58-1.015-1.449-1.159-2.464l-2.087.58c.261 1.188.899 2.522 1.797 3.42a5.63 5.63 0 0 0 3.71 1.565v2.58h1.739v-2.696C28.348 33.333 30 30.609 30 28c0-1.362-.435-2.551-1.362-3.507-.812-.841-1.971-1.478-3.391-2.029v-6.435c.319.058.754.174 1.246.609.406.348.841.928 1.101 1.449l1.71-1.131zm-4.058 7.826c.435.174 1.188.58 1.623 1.015s.928 1.159.928 2.29c0 1.565-.928 3.275-2.551 3.71v-7.015zm-1.739-3.101c-.58-.232-1.246-.638-1.652-1.044-.551-.551-.725-1.101-.725-1.739 0-1.362.812-2.609 2.377-2.87v5.652z" fill="#fff"/></svg>