<svg width="48" height="48" viewBox="0 0 48 48" fill="none" xmlns="http://www.w3.org/2000/svg">
<path d="M4 4H44V44H4V4Z" fill="#4E5AF9"/>
<path fill-rule="evenodd" clip-rule="evenodd" d="M43 5H5V43H43V5ZM4 4V44H44V4H4Z" fill="#4E5AF9"/>
<path d="M21.8677 17.6601H15.3077L13.9477 24.8801C14.6077 24.5201 15.5477 24.1801 16.6677 24.1801C18.0677 24.1801 18.7277 24.7401 18.8877 24.8801C19.2077 25.1601 19.5677 25.6401 19.5677 26.4401C19.5677 27.2201 19.2077 27.8001 18.7877 28.1201C18.3077 28.5001 17.5877 28.6601 16.8877 28.6601C16.0877 28.6601 15.4277 28.4401 14.8677 28.0801C14.4477 27.8201 13.9477 27.3801 13.5877 26.9801L12.8877 29.8401C14.5677 31.1401 16.0677 31.3001 17.3277 31.3001C18.6877 31.3001 20.1477 31.1001 21.3677 29.9001C21.9877 29.2801 22.7277 28.1801 22.7277 26.4601C22.7277 24.8801 22.1077 23.8401 21.5077 23.2401C20.7677 22.4801 19.6077 21.9401 18.1077 21.9401C17.7677 21.9401 17.3477 21.9801 17.0077 22.0401L17.3677 20.2601H21.8677V17.6601Z" fill="white"/>
<path d="M35.4799 24.3401C35.4799 22.0401 34.8599 20.0001 33.5599 18.7401C32.7799 17.9801 31.6199 17.3601 29.9799 17.3601C28.3799 17.3601 27.2399 17.9601 26.4399 18.7401C25.1399 20.0001 24.5199 22.0401 24.5199 24.3401C24.5199 26.6201 25.1399 28.6401 26.4399 29.9201C27.2399 30.7001 28.3799 31.3001 29.9799 31.3001C31.6199 31.3001 32.7799 30.6801 33.5599 29.9201C34.8599 28.6401 35.4799 26.6201 35.4799 24.3401ZM29.9999 20.0001C30.5199 20.0001 30.8799 20.1601 31.2399 20.5001C32.2199 21.4601 32.3599 23.3801 32.3599 24.3201C32.3599 25.3601 32.1799 27.2401 31.2399 28.1601C30.8799 28.5001 30.5199 28.6601 29.9999 28.6601C29.4799 28.6601 29.1199 28.5001 28.7599 28.1601C27.8199 27.2401 27.6399 25.3601 27.6399 24.3201C27.6399 23.3801 27.7799 21.4601 28.7599 20.5001C29.1199 20.1601 29.4799 20.0001 29.9999 20.0001Z" fill="white"/>
</svg>
