<svg width="48" height="48" viewBox="0 0 48 48" fill="none" xmlns="http://www.w3.org/2000/svg">
<path fill-rule="evenodd" clip-rule="evenodd" d="M24 44C35.0457 44 44 35.0457 44 24C44 12.9543 35.0457 4 24 4C12.9543 4 4 12.9543 4 24C4 35.0457 12.9543 44 24 44ZM32.8891 10.6965C30.2579 8.93838 27.1645 8 24 8C19.7565 8 15.6869 9.68571 12.6863 12.6863C9.68571 15.6869 8 19.7565 8 24C8 27.1645 8.93838 30.2579 10.6965 32.8891C12.4546 35.5203 14.9534 37.5711 17.8771 38.7821C20.8007 39.9931 24.0177 40.3099 27.1214 39.6926C30.2251 39.0752 33.0761 37.5513 35.3137 35.3137C37.5513 33.0761 39.0752 30.2251 39.6926 27.1214C40.3099 24.0177 39.9931 20.8007 38.7821 17.8771C37.5711 14.9534 35.5203 12.4546 32.8891 10.6965ZM24 36C30.6274 36 36 30.6274 36 24C36 17.3726 30.6274 12 24 12C17.3726 12 12 17.3726 12 24C12 30.6274 17.3726 36 24 36ZM28.4446 17.3483C27.129 16.4693 25.5822 16.0001 24 16.0001C21.8783 16.0001 19.8434 16.843 18.3431 18.3432C16.8429 19.8435 16 21.8784 16 24.0001C16 25.5823 16.4692 27.1291 17.3482 28.4447C18.2273 29.7603 19.4767 30.7856 20.9385 31.3911C22.4003 31.9966 24.0089 32.1551 25.5607 31.8464C27.1126 31.5377 28.538 30.7758 29.6569 29.6569C30.7757 28.5381 31.5376 27.1127 31.8463 25.5608C32.155 24.009 31.9965 22.4004 31.391 20.9386C30.7855 19.4768 29.7602 18.2274 28.4446 17.3483ZM24 28C26.2091 28 28 26.2091 28 24C28 21.7909 26.2091 20 24 20C21.7909 20 20 21.7909 20 24C20 26.2091 21.7909 28 24 28Z" fill="#4E5AF9"/>
</svg>
