<svg xmlns="http://www.w3.org/2000/svg" width="48" height="48"><path d="M23.5 1.103v23.9" fill="none" stroke="#4e5af9"/><g fill="#4e5af9"><path d="M24 8c-4.54 0-8.8 1.768-12.02 4.98S7 20.46 7 25s1.768 8.8 4.98 12.02S19.46 42 24 42s8.8-1.768 12.02-4.98S41 29.54 41 25s-1.768-8.8-4.98-12.02S28.54 8 24 8m0-1c9.94 0 18 8.06 18 18s-8.06 18-18 18S6 34.94 6 25 14.06 7 24 7z"/><path d="M24 7v18h18c0 9.94-8.06 18-18 18S6 34.94 6 25 14.06 7 24 7z"/></g><path d="M47.143 25.13H23.63" fill="none" stroke="#4e5af9"/></svg>