<svg xmlns="http://www.w3.org/2000/svg" width="48" height="48" xmlns:v="https://vecta.io/nano"><circle cx="20" cy="24" r="18.5" fill="none" stroke="#4e5af9"/><circle cx="36" cy="24" r="11" fill="#4e5af9"/><path d="M36.5 23.5A5.5 5.5 0 0 1 42 29H31a5.5 5.5 0 0 1 5.5-5.5zm0-5.5c1.35 0 2.444 1.094 2.444 2.444s-1.094 2.444-2.444 2.444-2.444-1.094-2.444-2.444S35.15 18 36.5 18z" fill="#fff"/><path d="M21.63 18.273c-1.872-1.698-4.728-1.698-6.6 0L15 18.3l-.03-.026c-1.872-1.698-4.728-1.698-6.6 0a4.66 4.66 0 0 0 0 6.6l.03.027 6.6 6.6 6.63-6.627a4.66 4.66 0 0 0 .001-6.6z" fill="#4e5af9"/></svg>