<svg xmlns="http://www.w3.org/2000/svg" width="48" height="48" fill="none" xmlns:v="https://vecta.io/nano"><g clip-path="url(#A)" fill="#4e5af9"><path d="M23 24a18 18 0 0 1 18 18H5a18 18 0 0 1 18-18h0zm0-17.301a7.01 7.01 0 0 0-7 7 7.01 7.01 0 0 0 7 7 7.01 7.01 0 0 0 7-7 7.01 7.01 0 0 0-7-7zm0-1a8 8 0 1 1 0 16 8 8 0 1 1 0-16zm14.054 9.893l1.529 3.097 3.418.497-2.473 2.411.584 3.404-3.057-1.607L33.997 25l.584-3.404-2.473-2.411 3.418-.497 1.527-3.097z"/></g><defs><clipPath id="A"><path fill="#fff" d="M0 0h48v48H0z"/></clipPath></defs></svg>