<svg xmlns="http://www.w3.org/2000/svg" width="48" height="48" xmlns:v="https://vecta.io/nano"><g fill="none" stroke="#4e5af9"><path d="M19 27.785l14.97-15"/><path d="M28.49 12.785H34v5.53"/><circle cx="29.213" cy="17.998" r="14.5"/></g><g fill="#4e5af9" stroke="#4e5af9"><circle cx="18" cy="29.785" r="15" stroke="none"/><circle cx="18" cy="29.785" r="14.5" fill="none"/></g><g fill="#fff"><path d="M16.954 24.65c-2.435.475-4.19 2.61-4.182 5.092a5.23 5.23 0 0 0 10.363 1H27a9.03 9.03 0 0 1-17.993-.633 9.03 9.03 0 0 1 7.993-9.324z"/><path d="M18.91 20.785c1.712.173 3.337.836 4.682 1.91l-2.728 2.724c-.585-.4-1.25-.69-1.954-.818z" opacity=".75"/><path d="M24.954 24.058a9.01 9.01 0 0 1 1.954 4.683h-3.863c-.13-.703-.408-1.37-.818-1.955z" opacity=".5"/></g></svg>