<svg width="48" height="48" viewBox="0 0 48 48" fill="none" xmlns="http://www.w3.org/2000/svg">
<circle cx="24" cy="24" r="21.5" stroke="#4E5AF9"/>
<path d="M39.1094 8.84302L8.79678 39.1556" stroke="#4E5AF9"/>
<rect x="11" y="14" width="26" height="20" rx="2" fill="#4E5AF9"/>
<path d="M20.5 28.931H27.5V27.3112H24.0145L25.6777 25.5033C26.4298 24.6934 27.4277 23.6232 27.4277 22.1335C27.4277 20.6004 26.2707 19.0674 24.0289 19.0674C22.1198 19.0674 20.7314 20.3256 20.6446 22.2926H22.5826C22.6116 21.4682 23.1322 20.6872 24.1157 20.6872C24.9256 20.6872 25.5475 21.2802 25.5475 22.148C25.5475 22.712 25.2438 23.305 24.9835 23.6955C24.6364 24.2161 23.5083 25.5033 23.3347 25.7058L20.5 28.931Z" fill="white"/>
<line x1="31" y1="12" x2="31" y2="14" stroke="#4E5AF9" stroke-width="2" stroke-linecap="round"/>
<line x1="17" y1="11.9548" x2="17" y2="13.9548" stroke="#4E5AF9" stroke-width="2" stroke-linecap="round"/>
</svg>
