<svg xmlns="http://www.w3.org/2000/svg" width="48" height="48"><g fill="none" stroke="#4e5af9" stroke-miterlimit="10"><path d="M24 6c9.94 0 18 8.06 18 18s-8.06 18-18 18"/><path d="M24 6c4.97 0 9 8.06 9 18s-4.03 18-9 18"/><path d="M24 6v36"/><path d="M24 6c-4.97 0-9 8.06-9 18s4.03 18 9 18"/><path d="M24 42c-9.94 0-18-8.06-18-18S14.06 6 24 6m18 18H6.148"/><path d="M8.36 15.068H39.5M39.64 33H8.508"/></g><path d="M24 0a8 8 0 0 1 8 8c0 4.418-8 16-8 16s-8-11.582-8-16a8 8 0 0 1 8-8z" fill="#4e5af9"/><circle cx="24" cy="8" r="3" fill="#fff"/></svg>