<svg xmlns="http://www.w3.org/2000/svg" width="242" height="113"><defs><linearGradient id="A" x1=".029" y1=".031" x2="1" y2=".969"><stop offset="0" stop-color="#21dbaa"/><stop offset=".042" stop-color="#21dbaa"/><stop offset=".358" stop-color="#00b4ef"/><stop offset=".433" stop-color="#01a7ec"/><stop offset=".568" stop-color="#0487e4"/><stop offset=".68" stop-color="#0768dd"/><stop offset=".965" stop-color="#5f1ae5"/><stop offset="1" stop-color="#5f1ae5"/></linearGradient></defs><path d="M99.382 61.16c-.75 0-.9-.553-.9-1.507v-9.5c0-3.246-1.83-5.178-4.9-5.178-3.662 0-5.326 2.816-5.356 5.608v.115h2.455v-.116c-.035-.938.302-1.85.94-2.54.488-.5 1.16-.78 1.86-.773 1.466 0 2.342 1.144 2.342 3.06v.9L92.9 52.607c-3.313 1.55-5.485 2.8-5.485 6.08 0 2.87 1.806 4.8 4.494 4.8a5.37 5.37 0 0 0 4.117-2.128c.297 1.292 1.475 2.188 2.8 2.128a4.02 4.02 0 0 0 1.512-.312l.07-.03v-2.32l-.166.092a1.55 1.55 0 0 1-.86.24zm-3.558-7.583v5.538a4.28 4.28 0 0 1-3.329 2.146 2.3 2.3 0 0 1-2.428-2.174 2.21 2.21 0 0 1 .009-.371c0-2.2 1.914-3.355 3.58-4.126zm17.22-13.897h-2.587l-.1 5.652h-2.363v2.414h2.366V59.42c0 2.62 1.228 4.064 3.456 4.064a5.32 5.32 0 0 0 2.638-.749l.058-.032V60.27l-.186.15a3 3 0 0 1-1.853.734c-1.183 0-1.43-.985-1.43-1.8V47.75h3.8v-2.414h-3.8zM81.927 58.958c-1.012 1.468-2.176 2.276-3.28 2.276-1.447 0-1.962-1.42-1.962-2.746V45.33h-2.66v13.282c0 3.1 1.4 4.875 3.837 4.875 1.634-.01 3.164-.802 4.117-2.13l.045 1.8h2.56V45.33h-2.66zM68.185 46.95a3.75 3.75 0 0 0-3.465-1.948c-1.55.03-2.992.804-3.872 2.08C59.622 48.725 59 51.138 59 54.257c0 6.825 2.758 9.256 5.34 9.256a4.33 4.33 0 0 0 3.532-1.665v14.155h2.687V45.33h-2.3zm-.3 2.463v9.752c-.47 1.156-1.577 1.925-2.824 1.96-2.2 0-3.3-2.32-3.3-6.9 0-4.4 1.253-6.92 3.437-6.92a2.9 2.9 0 0 1 2.698 2.108zM102.564 37h2.658v26.16h-2.658zm26.954 8.332h2.658V63.16h-2.658zm.025-5.676h2.633v3.087h-2.633zm-7.38 7.757l-.134-2.08h-2.523v17.855h2.66V50.335c1.205-2.446 2.763-2.784 4.258-2.785l.63.05V45h-.722c-1.895.001-2.938.593-4.168 2.412zm31.764 5.157l-.068.093.053-.1c-1.67-.86-2.85-1.587-2.85-3.1a2.12 2.12 0 0 1 2.05-2.181 2.14 2.14 0 0 1 .242.007 2.33 2.33 0 0 1 1.788.737 3.26 3.26 0 0 1 .682 2.516l-.012.125h2.463l.006-.108a5.54 5.54 0 0 0-1.362-4.152c-.93-.945-2.212-1.458-3.537-1.415a4.55 4.55 0 0 0-4.875 4.621c0 2.965 2.377 4.236 4.1 5.165s3.36 1.823 3.36 3.673c.048 1.438-1.08 2.643-2.518 2.7h-.18c-1.7 0-2.926-1.43-2.976-3.48v-.112h-2.483v.117c.083 3.6 2.17 5.834 5.457 5.834a4.94 4.94 0 0 0 5.25-4.607c.01-.2.01-.38 0-.572.003-3.327-2.443-4.624-4.6-5.764zm-10.377 4.993a4.54 4.54 0 0 1-.989 2.931 2.1 2.1 0 0 1-1.581.658c-2.047 0-3.128-2.384-3.128-6.894 0-4.488 1.12-6.96 3.153-6.96.555-.012 1.1.2 1.473.612a4.24 4.24 0 0 1 .94 2.72h2.517c.074-1.583-.453-3.135-1.476-4.345a4.45 4.45 0 0 0-3.352-1.306c-3.813 0-5.9 3.287-5.9 9.256s2.036 9.26 5.735 9.26c2.98 0 4.842-2.2 5.077-5.926zm18.75 4.167a.69.69 0 0 0 .083-.343.58.58 0 0 0-.166-.442.7.7 0 0 0-.5-.161h-.948v1.9h.47v-.676h.36l.32.68h.53l-.406-.738a.5.5 0 0 0 .257-.219zm-.47-.15a.54.54 0 0 1-.258.049h-.333v-.484h.333c.1-.006.18.015.258.06.064.046.098.122.1.2.01.073-.027.144-.1.18z"/><path d="M163.106 61.042a1.6 1.6 0 0 0-.36-.533c-.155-.15-.338-.267-.538-.346a1.87 1.87 0 0 0-1.34 0c-.2.08-.384.196-.54.346a1.61 1.61 0 0 0-.36.533 1.9 1.9 0 0 0 0 1.382 1.59 1.59 0 0 0 .9.89 1.87 1.87 0 0 0 1.34 0 1.6 1.6 0 0 0 .9-.89 1.9 1.9 0 0 0-.002-1.382zm-.328 1.248a1.34 1.34 0 0 1-.285.435 1.2 1.2 0 0 1-.424.281c-.336.132-.7.132-1.046 0a1.2 1.2 0 0 1-.424-.281 1.34 1.34 0 0 1-.285-.435c-.14-.357-.14-.754 0-1.11a1.33 1.33 0 0 1 .285-.435c.12-.123.264-.218.424-.28.336-.13.7-.13 1.046 0 .16.063.304.16.424.28a1.34 1.34 0 0 1 .285.435c.14.357.14.754-.001 1.11z"/><path d="M177.9 39.562l-2.3 8.14h-.03l-2.467-8.14h-5.456l-1.868 3.322-1.978-3.322h-2.774l3.226 5.222-3.54 5.847h2.554l2.27-3.87 2.35 3.87h4.186v-7.675h.03q.087.482.166.825.08.343.15.635.072.292.156.555l.17.577 1.643 5.077h2.153l1.657-5.077q.182-.613.34-1.183a12.29 12.29 0 0 0 .273-1.281h.03v7.548h2.35V39.56zm-10.894 5.234l2.887-4.792v9.488z" fill="url(#A)"/></svg>