<svg xmlns="http://www.w3.org/2000/svg" width="242" height="113" fill="#00bf6f"><path d="M67.906 63.133l1.558-1.853c1.246 1.2 2.9 1.896 4.648 1.914 1.6 0 2.6-.738 2.6-1.853v-.04c0-1.05-.6-1.62-3.324-2.27-3.135-.756-4.917-1.683-4.917-4.4v-.042c0-2.523 2.1-4.27 5.03-4.27 1.945-.04 3.84.618 5.344 1.853l-1.388 1.978a6.68 6.68 0 0 0-4-1.513c-1.513 0-2.4.78-2.4 1.747v.042c0 1.135.673 1.64 3.5 2.315 3.113.756 4.735 1.9 4.735 4.312v.042c0 2.757-2.167 4.4-5.26 4.4a9.08 9.08 0 0 1-6.126-2.36zm13.1-1.9v-7.07h2.545v6.312c0 1.725.862 2.716 2.38 2.716a2.45 2.45 0 0 0 2.5-2.761v-6.267h2.545V65.28H88.43v-1.135a4.38 4.38 0 0 1-3.464 1.377c-2.508-.01-3.96-1.706-3.96-4.28zm12.697-7.07h2.545v1.853c.692-1.664 1.978-2.148 3.933-2.06v2.27h-.148c-2.23 0-3.782 1.5-3.782 4.833v4.214h-2.545zm7.396 0h2.734l2.988 7.73 3.026-7.73h2.67L107.97 65.37h-2.292zm11.412 5.594v-.042c-.07-1.493.466-2.952 1.5-4.042a5.53 5.53 0 0 1 3.938-1.745c3.536 0 5.325 2.776 5.325 5.976 0 .23-.023.46-.042.715h-8.166a3.1 3.1 0 0 0 3.2 2.821c1.152.01 2.253-.474 3.026-1.328l1.475 1.316a5.62 5.62 0 0 1-4.538 2.08 5.53 5.53 0 0 1-5.707-5.751zm8.226-.82c-.166-1.64-1.135-2.924-2.818-2.924a3.01 3.01 0 0 0-2.882 2.924zm16.017-8.393h2.76l4.482 7.5 4.482-7.5h2.736v14.727h-2.572V54.72l-4.652 7.492h-.076l-4.607-7.45v10.522h-2.545zm16.3 9.245v-.042a5.93 5.93 0 0 1 2.92-5.202c1.838-1.082 4.118-1.1 5.966-.02s2.977 3.047 2.958 5.18v.042a5.81 5.81 0 0 1-5.83 5.788h-.123c-1.524.04-3-.53-4.106-1.58a5.74 5.74 0 0 1-1.785-4.02l-.001-.146zm9.3 0v-.042c.04-.93-.3-1.835-.942-2.5a3.44 3.44 0 0 0-2.458-1.07c-.92.004-1.798.384-2.43 1.052s-.964 1.566-.917 2.484v.042c-.036.93.305 1.832.945 2.506s1.525 1.06 2.455 1.072a3.35 3.35 0 0 0 3.347-3.536zm16.782-9.877h2.545v9.172l4.607-4.917h3.094l-4.417 4.538 4.565 6.585h-2.946l-3.347-4.8-1.558 1.62v3.177h-2.543zm10.193 9.845v-.042c-.07-1.493.466-2.952 1.5-4.042a5.53 5.53 0 0 1 3.938-1.745c3.536 0 5.325 2.776 5.325 5.976 0 .23-.023.46-.042.715h-8.16a3.1 3.1 0 0 0 3.2 2.821 4.03 4.03 0 0 0 3.026-1.328l1.475 1.316a5.62 5.62 0 0 1-4.538 2.08 5.53 5.53 0 0 1-4.112-1.628c-1.084-1.09-1.664-2.586-1.6-4.123zm8.226-.82c-.166-1.64-1.135-2.924-2.818-2.924a3.01 3.01 0 0 0-2.882 2.924zm-65.35-4.774l-3.078 7.576-3.052-7.576h-2.648l4.376 10.85-2.284 5.628h2.65l6.687-16.478zm82.297.2c-.265.001-.525.07-.756.2a1.43 1.43 0 0 0-.575.564 1.6 1.6 0 0 0-.2.756 1.54 1.54 0 0 0 .2.756 1.43 1.43 0 0 0 .567.564 1.51 1.51 0 0 0 1.513 0 1.43 1.43 0 0 0 .563-.564 1.54 1.54 0 0 0 0-1.513 1.4 1.4 0 0 0-.571-.564 1.57 1.57 0 0 0-.756-.2m0-.3c.315.002.625.083.9.238a1.58 1.58 0 0 1 .685.673c.327.564.327 1.26 0 1.823a1.72 1.72 0 0 1-.677.677 1.84 1.84 0 0 1-.908.238 1.89 1.89 0 0 1-.911-.238 1.72 1.72 0 0 1-.677-.677c-.155-.275-.237-.585-.238-.9a1.81 1.81 0 0 1 .246-.915 1.67 1.67 0 0 1 .68-.673 1.89 1.89 0 0 1 .9-.238"/><path d="M213.728 54.877h.9a.87.87 0 0 1 .6.2.62.62 0 0 1 .17.442h0a.61.61 0 0 1-.484.62l.552.756h-.427l-.5-.715h-.45v.715h-.378zm.885 1c.257 0 .42-.136.42-.34h0c0-.22-.16-.34-.424-.34h-.522v.68zm-5.6-1.703l-3.075 7.576-3.056-7.576h-2.647l4.376 10.85-2.286 5.627h2.65l6.687-16.478zm-32.466 4.04v7.07h-2.545V58.97c-.01-1.725-.858-2.716-2.37-2.716a2.45 2.45 0 0 0-2.5 2.757v6.27h-2.57V54.174h2.545v1.132a4.38 4.38 0 0 1 3.472-1.377c2.503.01 3.968 1.693 3.968 4.284zm-118.572-1.33a4.45 4.45 0 0 0-1.055.128c-1.316-5.17-5.53-9.094-10.78-10.04a10.96 10.96 0 0 0-.685-.1h0a4.46 4.46 0 0 1 1.994-4.114l-.3-.756s-3.687 1.135-4.115 4.3c-.185-.86-1.9-1.933-2.753-2.137l-.424.685a2.96 2.96 0 0 1 1.4 2.122h0c-5.25.947-9.462 4.87-10.778 10.04a4.42 4.42 0 1 0 .555 8.393c.376.94.857 1.836 1.433 2.67l3.665-2.47-.03-.042a9.02 9.02 0 0 1-1.66-4.917 6.52 6.52 0 0 1 1.668-5.189c2.647-2.27 5.537-1.23 7.345.934h.488c1.808-2.163 4.694-3.192 7.345-.934a6.53 6.53 0 0 1 1.668 5.189c-.06 1.766-.637 3.476-1.66 4.917l-.03.042 3.665 2.47c.576-.834 1.057-1.73 1.433-2.67 1.652.646 3.53.24 4.768-1.03s1.596-3.158.908-4.793a4.41 4.41 0 0 0-4.06-2.702zm-28.64 5.72c-.72 0-1.303-.583-1.303-1.303s.583-1.303 1.303-1.303a1.31 1.31 0 0 1 .73.227 19.79 19.79 0 0 0 .14 2.046 1.3 1.3 0 0 1-.87.333zm28.725 0a1.3 1.3 0 0 1-.87-.333c.082-.68.13-1.362.14-2.046a1.3 1.3 0 1 1 .726 2.379h0z"/></svg>