<svg xmlns="http://www.w3.org/2000/svg" width="242" height="113"><path d="M89.205 103.83c12.39-.264 24.685-3.517 32.94-12.8s9.738-22.7 9.913-35.168c.175-12.5-.033-18.748-9.1-27.785-9.03-9-23.992-17.885-37.64-18.955s-22.466 4.943-31.183 13.6c-8.758 8.7-15.12 17.6-14 31.433C41.25 67.93 50.13 82.685 59.597 92.3c9.494 9.66 17.187 11.795 29.608 11.53z" fill="none" stroke="#262627"/><path d="M86.46 49.48v-2.7h14.346v2.7h-5.743v15.5h-2.86v-15.5zm29.713 2.395h-3.147l-4.464 9.6-4.2-9.6h-3.116l5.722 13.053-2.5 5.356h3.147zm11.757 6.55c.06-1.133-.27-2.253-.935-3.172a3.04 3.04 0 0 0-4.837 0 4.95 4.95 0 0 0-.935 3.172 5.08 5.08 0 0 0 .935 3.2 3.08 3.08 0 0 0 4.836 0c.662-.93.992-2.06.935-3.2m-3.042 6.76c-1.367.033-2.67-.584-3.5-1.664v6.76h-2.705V51.875h2.7v1.507a4.37 4.37 0 0 1 3.565-1.716c3.825 0 5.85 2.5 5.85 6.76 0 4.16-2.053 6.76-5.9 6.76zm11.17-8.268h6.37a3.08 3.08 0 0 0-3.173-2.86 3.19 3.19 0 0 0-3.198 2.86zm9.23 2.262h-9.282c0 2.055 1.2 3.614 3.25 3.614a3.78 3.78 0 0 0 3.432-2.21l2.314.9c-1.325 2.574-2.86 3.692-5.745 3.692-4.316 0-6.1-3.642-6.1-6.764s1.794-6.764 6.1-6.764c4.186 0 6.032 3.4 6.032 6.343v1.178zm2.208-4.915v-2.392h1.7v-.675c0-3.1 1.666-4.63 4.395-4.63a4.56 4.56 0 0 1 2.159.468l-.548 2.288a3.4 3.4 0 0 0-1.533-.364c-1.168 0-1.766.676-1.766 2.055v.858h2.9v2.4h-2.886v10.713h-2.7v-10.71h-1.7zm11.926 4.16a5.14 5.14 0 0 0 .935 3.094 3.14 3.14 0 0 0 2.653 1.274 3.06 3.06 0 0 0 2.626-1.274c.656-.895.995-1.984.962-3.094a4.91 4.91 0 0 0-.962-3.068 3.08 3.08 0 0 0-2.626-1.3c-1.044-.03-2.037.455-2.652 1.3-.635.895-.963 1.97-.935 3.068m-2.856 0a6.9 6.9 0 0 1 1.743-4.8 6.63 6.63 0 0 1 9.393 0 7.43 7.43 0 0 1 0 9.62c-1.243 1.248-2.932 1.95-4.693 1.95s-3.45-.702-4.693-1.95c-1.173-1.323-1.796-3.043-1.742-4.8zm18.165 6.553h-2.7v-13.1h2.7v2.184a4.56 4.56 0 0 1 3.875-2.393 4.41 4.41 0 0 1 1.661.312l-.47 2.47c-.464-.273-.995-.4-1.533-.393-1.055.048-2.005.65-2.5 1.583a7.94 7.94 0 0 0-1.041 4.472v4.86zm8.32-13.105h2.7v2.236c.78-1.467 2.3-2.4 3.952-2.444 1.692-.07 3.2 1.058 3.614 2.7a4.59 4.59 0 0 1 4.083-2.7c2.37 0 3.747 1.56 3.747 3.926v9.386h-2.7V56.2a1.87 1.87 0 0 0-.46-1.517c-.37-.412-.907-.637-1.46-.615-1.688 0-3.066 2.2-3.066 5.668v5.253h-2.7v-8.8a1.87 1.87 0 0 0-.46-1.517c-.37-.412-.908-.637-1.462-.614-1.744 0-3.07 2.208-3.07 5.953v4.966h-2.7v-13.1z" fill="#262627"/></svg>