<svg xmlns="http://www.w3.org/2000/svg" width="242" height="113"><g fill="#4e5af9"><path d="M191.393 38a21.11 21.11 0 0 0-1.43 3.653c-.388 1.313-.593 2.674-.6 4.043a16.08 16.08 0 0 0 .585 4.134l.863-.377a16.68 16.68 0 0 1-.486-3.833 13.64 13.64 0 0 1 .546-3.64c.32-1.24.76-2.446 1.313-3.6zm2.392 8.84a1.98 1.98 0 0 0 .65.65 2.34 2.34 0 0 0 1.2.286 2.61 2.61 0 0 0 1.946-.756c.627-.66.964-1.546.936-2.457.02-.68-.23-1.34-.7-1.833-.48-.44-1.117-.67-1.768-.637a2.12 2.12 0 0 0-1.08.26 2.3 2.3 0 0 0-.7.624l.6-4.836h-.942l-1.17 9.48h.936zm1.86.1c-.43.012-.85-.152-1.157-.455-.36-.376-.557-.88-.546-1.4a2.34 2.34 0 0 1 .676-1.638 1.78 1.78 0 0 1 1.274-.52 1.61 1.61 0 0 1 1.17.48 1.86 1.86 0 0 1 .494 1.312 2.55 2.55 0 0 1-.69 1.742c-.33.314-.767.487-1.222.482zm8.23-1.13a2.7 2.7 0 0 1-.7.832c-.306.207-.67.312-1.04.3-.396.022-.782-.123-1.066-.4a1.87 1.87 0 0 1-.48-1.43h4.2a2.81 2.81 0 0 0-.611-2.379 2.36 2.36 0 0 0-1.755-.637 2.49 2.49 0 0 0-1.885.754 3.25 3.25 0 0 0-.923 2.314 2.68 2.68 0 0 0 .712 1.937c.464.475 1.114.722 1.776.676a2.77 2.77 0 0 0 1.56-.416 3.79 3.79 0 0 0 1-1.118zm-3.133-1.478a2.06 2.06 0 0 1 .52-.95c.312-.313.742-.478 1.183-.455a1.39 1.39 0 0 1 .988.338 1.6 1.6 0 0 1 .455 1.066zm7.618-1.248l.1-.858h-.936l.234-1.95h-.936l-.234 1.95h-.572l-.1.858h.572l-.56 4.537h.936l.56-4.537zm5.057-.1a1.81 1.81 0 0 0-.715-.637 2.36 2.36 0 0 0-1.144-.26 2.65 2.65 0 0 0-1.937.7c-.63.634-.967 1.5-.936 2.392a2.69 2.69 0 0 0 .7 1.924 2.24 2.24 0 0 0 1.757.665 2.24 2.24 0 0 0 1.118-.273 2.27 2.27 0 0 0 .676-.637l-.1.754h.936l.663-5.395h-.936zm-1.78-.065a1.56 1.56 0 0 1 1.105.429c.346.342.53.814.507 1.3.018.64-.2 1.264-.6 1.755a1.74 1.74 0 0 1-1.335.533 1.51 1.51 0 0 1-1.092-.4 1.96 1.96 0 0 1-.563-1.424 2.43 2.43 0 0 1 .69-1.7 1.85 1.85 0 0 1 1.3-.503zm4.394 6.9a18.06 18.06 0 0 0 1.472-3.807 12.89 12.89 0 0 0 .572-4.017 14.3 14.3 0 0 0-.585-4l-.858.377c.33 1.158.5 2.358.48 3.562a13.66 13.66 0 0 1-.533 3.9 22.35 22.35 0 0 1-1.326 3.614zm-158.78.224c-4.055.8-6.978 4.35-6.965 8.48a8.71 8.71 0 0 0 7.875 8.665c4.465.43 8.526-2.598 9.387-7h6.435a15.04 15.04 0 0 1-29.968-1.05c-.31-7.862 5.494-14.636 13.312-15.53z"/><path d="M60.506 43.62c2.852.29 5.56 1.393 7.8 3.18l-4.543 4.543a8.29 8.29 0 0 0-3.255-1.363z" opacity=".75"/><path d="M70.576 49.07c1.8 2.234 2.94 4.942 3.256 7.8h-6.436c-.215-1.17-.68-2.28-1.363-3.256z" opacity=".5"/></g><path d="M86.313 65.037q-.184 0-.366-.01a4.94 4.94 0 0 1 .4-9.826 5.34 5.34 0 0 1 4.136 1.973V54.44a7 7 0 0 0-4.106-1.274h-.256c-2.5.022-4.798 1.385-6.015 3.57s-1.168 4.855.13 6.993a6.96 6.96 0 0 0 6.142 3.346c1.5.005 2.983-.475 4.2-1.37v-2.737a5.63 5.63 0 0 1-4.264 2.069zm12.064-11.873c-3.978 0-6.4 3.056-6.4 7 0 4.9 3.342 6.907 6.524 6.907 1.616.032 3.185-.548 4.392-1.623a7.92 7.92 0 0 0 1.623-2.133l-1.9-1.05c-.32.697-.786 1.317-1.37 1.815a4.02 4.02 0 0 1-2.706.954 4.23 4.23 0 0 1-4.2-4.488h10.283c.083-1.74-.35-3.468-1.24-4.965a5.91 5.91 0 0 0-4.995-2.417zm-3.888 5.47c.283-1.94 1.926-3.392 3.887-3.434 1.97.02 3.626 1.485 3.883 3.438zm18.43-5.47a4.66 4.66 0 0 0-3.787 1.846v-1.53h-2.292v13.2h2.292v-6.907a5.57 5.57 0 0 1 .954-3.565 2.89 2.89 0 0 1 2.325-1.02 2.59 2.59 0 0 1 2.165.955 3.9 3.9 0 0 1 .6 2.42v8.113h2.292v-8.18a5.9 5.9 0 0 0-.764-3.529 4.48 4.48 0 0 0-3.785-1.814zM125.353 65.2c-1.973 0-2.476-1.74-2.476-3.7v-5.934h2.3v-2.1h-2.3V48.7h-2.295v4.775h-1.4v2.1h1.4v5.858a6.01 6.01 0 0 0 1.477 4.448c.84.782 1.952 1.207 3.1 1.187a5.34 5.34 0 0 0 1.973-.369l-.314-1.793a3.39 3.39 0 0 1-1.465.293zm4.577-16.874c-.896.001-1.622.727-1.622 1.624a1.62 1.62 0 0 0 1.623 1.622c.896-.001 1.623-.727 1.623-1.623a1.63 1.63 0 0 0-1.624-1.623zm-1.147 5.156h2.292v13.2h-2.292zm18.497-.318a4.41 4.41 0 0 0-3.979 2.132c-.695-1.34-2.092-2.166-3.6-2.132-1.315-.027-2.552.622-3.278 1.72v-1.4h-2.292v13.2h2.295V59.5c0-1.592.286-4.3 2.9-4.3 2.42 0 2.387 2.737 2.387 3.66v7.83h2.292v-7.353c0-1.6.286-4.138 2.928-4.138 2.16 0 2.353 1.973 2.353 3.47v8.02h2.292v-8.37c-.001-1.875-.383-5.154-4.298-5.154zm12.95 0c-3.98 0-6.4 3.056-6.4 7 0 4.9 3.342 6.907 6.524 6.907 1.616.032 3.185-.548 4.392-1.623a7.91 7.91 0 0 0 1.623-2.133l-1.9-1.05a5.24 5.24 0 0 1-1.37 1.815 4.01 4.01 0 0 1-2.705.954 4.23 4.23 0 0 1-4.2-4.488h10.284c.083-1.74-.35-3.468-1.24-4.965a5.91 5.91 0 0 0-4.997-2.417zm-3.885 5.474c.282-1.94 1.923-3.393 3.883-3.437 1.97.018 3.627 1.484 3.884 3.438zm18.43-5.475a4.66 4.66 0 0 0-3.787 1.846v-1.53h-2.292v13.2h2.292v-6.907a5.57 5.57 0 0 1 .955-3.565 2.89 2.89 0 0 1 2.324-1.02 2.59 2.59 0 0 1 2.165.955 3.9 3.9 0 0 1 .6 2.42v8.113h2.292v-8.18a5.9 5.9 0 0 0-.764-3.529c-.883-1.194-2.3-1.873-3.785-1.814zm13.91 11.752a3.56 3.56 0 0 1-1.476.285c-1.972 0-2.47-1.737-2.47-3.686v-5.932h2.288v-2.1h-2.288V48.7h-2.292v4.773h-1.4v2.1h1.4v5.852a6.02 6.02 0 0 0 1.473 4.454 4.43 4.43 0 0 0 3.108 1.18c.675.002 1.345-.123 1.975-.367z"/></svg>