<svg xmlns="http://www.w3.org/2000/svg" width="20" height="20"><path d="M17.962 14.077a12.38 12.38 0 0 0-2.055-1.563 24.11 24.11 0 0 0-2.376-1.386c-.046-.02-.1-.013-.14.018l-1.152.95c-.242.208-.242.208-.44.143a7.55 7.55 0 0 1-2.375-1.635c-.7-.7-1.263-1.503-1.663-2.4-.065-.2-.065-.2.143-.44l.95-1.152c.03-.04.038-.094.018-.14-.416-.818-.88-1.612-1.386-2.378-.448-.737-.972-1.425-1.563-2.054-.037-.035-.1-.047-.14-.03-.694.24-1.364.543-2 .91a12.07 12.07 0 0 0-1.738 1.227c-.04.033-.056.084-.045.134a14.82 14.82 0 0 0 1.539 3.812c.917 1.774 2.124 3.382 3.572 4.758 1.392 1.46 3.013 2.68 4.8 3.613 1.193.685 2.476 1.2 3.81 1.532.05.01.1-.007.134-.045.46-.542.87-1.124 1.226-1.738.366-.636.67-1.306.91-2 .014-.047.002-.098-.03-.134z" fill="#4e5af9"/></svg>