<svg xmlns="http://www.w3.org/2000/svg" width="20" height="20"><path d="M10 1c-4.963 0-9 4.037-9 9s4.037 9 9 9 9-4.037 9-9-4.037-9-9-9m0-1a10 10 0 1 1 0 20 10 10 0 1 1 0-20zm2.972 5.816a3.35 3.35 0 0 0-1.024-1.184 2.48 2.48 0 0 0-1.216-.448V2.792h-.96v1.392a2.69 2.69 0 0 0-2.5 2.72 2.2 2.2 0 0 0 .736 1.744c.523.445 1.118.797 1.76 1.04v4.384a1.82 1.82 0 0 1-1.244-.592 2.41 2.41 0 0 1-.64-1.36l-1.152.32a4 4 0 0 0 .992 1.888 3.11 3.11 0 0 0 2.048.864v1.424h.96v-1.488c1.553-.27 2.672-1.64 2.624-3.216a2.68 2.68 0 0 0-.756-1.936 5.14 5.14 0 0 0-1.872-1.12V5.3a1.34 1.34 0 0 1 .688.336 2.79 2.79 0 0 1 .608.8zm-2.24 4.32a3.06 3.06 0 0 1 .9.56c.335.334.52.8.508 1.264a2.09 2.09 0 0 1-1.408 2.048zm-.96-1.712a2.95 2.95 0 0 1-.912-.576 1.26 1.26 0 0 1-.4-.96C8.425 6.1 8.992 5.414 9.772 5.3z" fill="#201f24"/><path fill="none" stroke="#201f24" d="M17.143 3L3 17.14"/></svg>