<svg xmlns="http://www.w3.org/2000/svg" width="40" height="40" xmlns:v="https://vecta.io/nano"><path d="M30.08 8H10.05A1.96 1.96 0 0 0 8 9.869v20.074A2.11 2.11 0 0 0 10.051 32h20.024A2 2 0 0 0 32 29.943V9.87A1.84 1.84 0 0 0 30.08 8zM15.44 28.005H12v-10.7h3.438zm-1.6-12.316h-.025a1.87 1.87 0 0 1-1.856-1.875 1.87 1.87 0 0 1 1.869-1.863 1.87 1.87 0 0 1 1.869 1.863 1.87 1.87 0 0 1-1.856 1.875zm14.166 12.316h-3.438V22.16c0-1.4-.5-2.357-1.744-2.357a1.88 1.88 0 0 0-1.763 1.269c-.092.272-.132.558-.12.844v6.09H17.5v-10.7h3.438V18.8a3.48 3.48 0 0 1 3.1-1.738c2.257 0 3.964 1.488 3.964 4.695z" fill="#c9c9ca"/></svg>