<svg xmlns="http://www.w3.org/2000/svg" width="40" height="40" xmlns:v="https://vecta.io/nano"><path d="M20 7.5c-7.042 0-12.5 5.153-12.5 12.113-.043 3.413 1.388 6.678 3.926 8.96a1 1 0 0 1 .337.711l.068 2.22a1 1 0 0 0 1.4.884l2.48-1.093a1 1 0 0 1 .667-.05c1.18.322 2.397.483 3.62.48 7.042 0 12.5-5.153 12.5-12.113S27.044 7.5 20 7.5zm7.505 9.322l-3.67 5.817a1.88 1.88 0 0 1-2.711.5l-2.92-2.19a.75.75 0 0 0-.9 0l-3.946 2.993c-.228.174-.548.16-.76-.035s-.254-.51-.1-.754h0l3.672-5.82a1.88 1.88 0 0 1 2.711-.5l2.92 2.188a.75.75 0 0 0 .9 0l3.944-3c.228-.172.547-.157.758.037s.253.5.1.752z" fill="#c9c9ca" fill-rule="evenodd"/></svg>