<svg xmlns="http://www.w3.org/2000/svg" width="242" height="130"><defs><radialGradient id="A" cx="-1.307" cy="-1.083" r="9.854" gradientTransform="matrix(1, 0, 0, -1, -0.001, 5.298)"><stop offset="0" stop-color="#fff"/><stop offset=".31" stop-color="#fcfcfc"/><stop offset=".45" stop-color="#f5f5f5"/><stop offset=".556" stop-color="#e8e8e8"/><stop offset=".645" stop-color="#d6d6d6"/><stop offset=".723" stop-color="#bfbfbf"/><stop offset=".794" stop-color="#a2a2a2"/><stop offset=".859" stop-color="#7f7f7f"/><stop offset=".919" stop-color="#575757"/><stop offset=".974" stop-color="#2b2b2b"/><stop offset="1" stop-color="#141414"/></radialGradient></defs><path d="M121.35 28c-15.108-.002-28.73 9.097-34.512 23.054S84.25 81.077 94.93 91.76s26.747 13.882 40.705 8.102 23.06-19.4 23.062-34.506C158.7 44.727 141.98 28.003 121.35 28zm0 72.836c-19.597.001-35.484-15.886-35.485-35.483s15.885-35.484 35.482-35.485 35.485 15.885 35.486 35.482v.005a35.48 35.48 0 0 1-35.483 35.481z" fill="#c9c9ca"/><path d="M156.835 65.35c0 19.597-15.887 35.484-35.484 35.484S85.867 84.948 85.867 65.35s15.887-35.484 35.484-35.484h0c19.597 0 35.484 15.887 35.484 35.484z" fill="#8f8e91"/><path d="M145.14 65.356c-.003 13.138-10.655 23.786-23.793 23.784S97.56 78.485 97.562 65.347s10.654-23.787 23.792-23.785h0a23.79 23.79 0 0 1 23.786 23.794zm-22.818-24.8l2.47-6.55v6.55h1.877v-9.38h-2.82l-2.567 6.716h.024l-2.566-6.716h-2.82v9.38h1.877v-6.55l2.47 6.55zm25.758 3.94l-3.206 4.676 5.036-2.478 1.365 1.64-7.926 3.98-1.6-1.94 3.073-4.633-.018-.024-5.113 2.188-1.615-1.928 5.345-7.077 1.366 1.64-3.35 4.5 5.178-2.3z" fill="#fff"/><path d="M104.4 43.152a2.39 2.39 0 0 0-3.015-.275 2.09 2.09 0 0 0 .012-1.4c-.228-.51-.58-.957-1.026-1.295-1.26-1.056-2.583-.154-3.53.976l-4.58 5.454 7.2 6.037 4.827-5.748c1.098-1.323 1.27-2.626.1-3.75zm-9.31 2.63l2.75-3.282a1.12 1.12 0 0 1 1.5.024c.44.32.537.937.217 1.377l-.05.063-2.718 3.24zm7.59.542l-2.866 3.416-1.8-1.508 2.89-3.443a1.18 1.18 0 0 1 1.775 1.536z" fill="url(#A)"/><path d="M99.014 65.354c.001-12.337 10.002-22.338 22.34-22.338s22.34 10.002 22.338 22.34-10.002 22.34-22.34 22.34-22.34-10.002-22.34-22.34z" fill="#fff"/><g fill="#8f8e91"><path d="M98.98 65.352h22.37V42.98a22.37 22.37 0 0 0-22.371 22.371z"/><path d="M121.35 65.352v22.372c12.356 0 22.372-10.016 22.372-22.372H121.35z"/></g></svg>