<svg xmlns="http://www.w3.org/2000/svg" width="242" height="130"><path d="M57.94 61.33c2 2 3.57 5.238 2.66 7.15-2.466 5.154-20.867 14.19-22.418 12.636C36.6 79.563 45.665 61.14 50.82 58.67c1.913-.915 5.154.67 7.122 2.66z" fill="#c9c9ca"/><path d="M67.696 59.14h0c-.215-1.234-1.14-2.223-2.356-2.522-2.245-.25-5.764 3.682-5.515 4.656s5.238 2.6 7.094 1.248c.97-.67 1.08-2.16.78-3.38zM60.77 48.198c1.663.446 3.325 1.607 3.547 3.325.36 3.13-5.182 8.1-6.484 7.732s-3.63-7.316-1.773-9.948c.97-1.33 3.05-1.524 4.7-1.108zM110.3 66.76l-1.635-.25c-1.58-.223-2.466-.75-2.466-1.663 0-1.053 1.192-1.718 2.937-1.718a7.22 7.22 0 0 1 3.215.942l.194.112a1.58 1.58 0 0 0 2.078-.67l.138-.25a1.6 1.6 0 0 0-.6-2.182l-.013-.008c-.028 0-.028-.028-.056-.028a10.68 10.68 0 0 0-4.932-1.33c-4.185 0-6.873 2-6.873 5.265 0 2.66 1.913 4.352 5.543 4.85l1.663.223c1.746.25 2.6.78 2.6 1.58s-.408 1.774-3.123 1.774a7.88 7.88 0 0 1-4.24-1.164 1.68 1.68 0 0 0-.8-.223c-.542.006-1.044.288-1.33.75l-.083.138a1.64 1.64 0 0 0-.194 1.246 1.56 1.56 0 0 0 .749.97 13.14 13.14 0 0 0 5.958 1.635c4.38 0 7.067-1.913 7.067-5.265-.117-2.656-2.026-4.184-5.797-4.734zm50.766 5.875a1.64 1.64 0 0 0-1.248-.558c-.327-.007-.647.1-.915.277-.842.543-1.82.84-2.822.856-2.66 0-4.517-2.08-4.517-4.932-.092-1.22.306-2.428 1.104-3.356a4.62 4.62 0 0 1 3.155-1.592l.258-.012c.985-.003 1.95.287 2.77.83.682.428 1.57.324 2.134-.25l.138-.166a1.8 1.8 0 0 0-.049-2.543l-.007-.007a1.5 1.5 0 0 0-.25-.194c-1.386-.9-3.005-1.35-4.652-1.322-4.73-.055-8.608 3.734-8.663 8.463s3.734 8.608 8.463 8.663q.1 0 .2 0a8.42 8.42 0 0 0 4.655-1.33c.832-.56 1.055-1.687.5-2.522-.056-.056-.112-.138-.166-.194zm-81.5-18.678c-.612.001-1.198.246-1.63.68s-.673 1.02-.67 1.633v.07a2.25 2.25 0 0 0 2.154 2.352h.177a2.35 2.35 0 0 0 2.117-1.054 2.34 2.34 0 0 0 .125-2.36 2.35 2.35 0 0 0-1.993-1.272h-.25v-.056zm.72 5.903H78.9a1.23 1.23 0 0 0-1.22 1.22v14.1a1.23 1.23 0 0 0 1.22 1.22h1.386a1.23 1.23 0 0 0 1.22-1.22v-14.1a1.23 1.23 0 0 0-1.22-1.22zm45.25 13.274c-1.834-.005-3.32-1.5-3.325-3.325v-6.374h3.348a1.23 1.23 0 0 0 1.22-1.22h0v-1.108a1.23 1.23 0 0 0-1.22-1.22h-3.37v-3.66a1.23 1.23 0 0 0-1.227-1.219h-1.47a1.23 1.23 0 0 0-1.22 1.22v13.36a7.11 7.11 0 0 0 6.927 7.26h.056a1.54 1.54 0 0 0 1.525-1.521v-.97c-.007-.68-.564-1.228-1.245-1.223zm-33.39-13.412a7.43 7.43 0 0 0-7.62 7.233v8.23a1.23 1.23 0 0 0 1.22 1.22h1.386a1.23 1.23 0 0 0 1.22-1.22h0v-7.588c0-2.55 1.524-4.213 3.768-4.213s3.768 1.7 3.768 4.213v7.588a1.23 1.23 0 0 0 1.22 1.22h1.386a1.23 1.23 0 0 0 1.22-1.22v-8.2c-.1-4.092-3.474-7.34-7.566-7.26zm100.677.198a15.6 15.6 0 0 0-2.55-.166h-.194a7.31 7.31 0 0 0-7.316 7.3v8.133a1.23 1.23 0 0 0 1.22 1.22h1.386a1.23 1.23 0 0 0 1.22-1.22v-7.983a3.65 3.65 0 0 1 3.436-3.824h.25a5.52 5.52 0 0 1 1.164.138h.335c.78-.002 1.457-.54 1.635-1.3l.25-1a1.16 1.16 0 0 0-.138-.86 1.17 1.17 0 0 0-.698-.439zm10.223 3.515a1.23 1.23 0 0 0 1.22-1.22h0v-1.108a1.23 1.23 0 0 0-1.22-1.22h-3.35v-3.66a1.23 1.23 0 0 0-1.228-1.219H197a1.23 1.23 0 0 0-1.22 1.22v13.36a7.11 7.11 0 0 0 6.927 7.26h.056a1.54 1.54 0 0 0 1.533-1.52h0v-.97c-.01-.68-.567-1.227-1.248-1.22-1.834-.005-3.32-1.5-3.325-3.325v-6.377zm-26.632-2.383h0a8.36 8.36 0 0 0-4.655-1.33h-.145a8.42 8.42 0 0 0-4.655 1.33h0a8.86 8.86 0 0 0 .335 14.687c1.236.723 2.642 1.105 4.074 1.108 1.9.05 3.702-.753 4.932-2.2v.58a1.23 1.23 0 0 0 1.224 1.224h1.413a1.23 1.23 0 0 0 1.22-1.22v-6.927a8.18 8.18 0 0 0-3.743-7.264zm-3.187 11.915a5.62 5.62 0 0 1-1.33.25h-.36a5.62 5.62 0 0 1-1.33-.25 4.73 4.73 0 0 1-2.993-4.651 4.61 4.61 0 0 1 4.046-4.9h.942c2.434.3 4.206 2.462 4.046 4.9a4.78 4.78 0 0 1-3.016 4.655zm-31.614-11.915h0a8.36 8.36 0 0 0-4.654-1.327h-.166a8.42 8.42 0 0 0-4.655 1.33h0a8.9 8.9 0 0 0 .388 14.687c1.236.723 2.642 1.105 4.074 1.108a6.18 6.18 0 0 0 4.91-2.189v.58a1.23 1.23 0 0 0 1.22 1.22h1.386a1.23 1.23 0 0 0 1.213-1.226v-6.92c.15-2.9-1.268-5.68-3.716-7.264zm-3.187 11.915a5.62 5.62 0 0 1-1.33.25h-.36a5.62 5.62 0 0 1-1.33-.25c-1.902-.735-3.112-2.615-2.994-4.65a4.61 4.61 0 0 1 4.046-4.9h.97c2.434.3 4.206 2.462 4.046 4.9a4.88 4.88 0 0 1-3.049 4.655z" fill="#8f8e91"/></svg>