<svg xmlns="http://www.w3.org/2000/svg" width="64" height="64"><defs><linearGradient id="A" x1="1.065" y1=".329" x2=".257" y2=".817"><stop offset="0" stop-color="#0052cc"/><stop offset=".318" stop-color="#0052cc"/><stop offset="1" stop-color="#2684ff"/></linearGradient><linearGradient id="B" x1="-.037" y1=".626" x2=".69" y2=".141"><stop offset="0" stop-color="#0052cc"/><stop offset=".302" stop-color="#0052cc"/><stop offset="1" stop-color="#2684ff"/></linearGradient></defs><path d="M32 0c17.673 0 32 14.327 32 32S49.673 64 32 64 0 49.673 0 32 14.327 0 32 0z" fill="#fff"/><path d="M49.577 31.207l-17.08-17.08-17.08 17.08c-.558.56-.558 1.466 0 2.026l17.08 17.08 17.08-17.07c.56-.558.564-1.465.007-2.026l-.007-.007zm-17.08 6.363l-5.35-5.35 5.35-5.35 5.348 5.35z" fill="#2684ff"/><path d="M32.498 26.87c-3.504-3.502-3.522-9.177-.04-12.7l-11.706 11.7 6.37 6.37z" fill="url(#A)"/><path d="M37.86 32.205l-5.363 5.365a9.01 9.01 0 0 1 0 12.738l11.738-11.732z" fill="url(#B)"/></svg>