<svg xmlns="http://www.w3.org/2000/svg" xmlns:xlink="http://www.w3.org/1999/xlink" width="242" height="130"><style><![CDATA[.B{fill:#fff}.C{stroke:#050304}.D{fill:none}.E{stroke-width:.012}.F{fill:#8f8e91}]]></style><g class="F"><path d="M105.174 72.737c0-.353-.23-.614-.7-.716v-.228l1.37.035 1.3-.035v.228a.71.71 0 0 0-.665.716v4.48c0 1.418.78 2.22 2.408 2.22 1.4 0 2.5-.63 2.5-2.115v-4.6c0-.333-.207-.6-.734-.7v-.228l1.153.035 1.154-.035v.228c-.508.12-.733.348-.733.7v4.352c0 1.955-1.14 3.078-3.6 3.078-2.284 0-3.468-1.036-3.468-2.875zm9.8 7.063c.53-.1.742-.37.742-.7v-6.2a.85.85 0 0 0-.756-.892V71.8l.953.032a6.83 6.83 0 0 0 .752-.03l5.37 6.314V72.72c0-.33-.207-.6-.734-.7v-.228l1.13.035 1.15-.035v.228c-.512.12-.76.35-.76.7v7.432h-.323a2.85 2.85 0 0 1-1.175-.9l-4.8-5.594v5.456c0 .33.192.595.716.7v.23c-.193 0-.884-.036-1.13-.036l-1.132.036zm42.37-1.668h.227a1.92 1.92 0 0 0 .76 1.126 2.76 2.76 0 0 0 1.48.4c1.08 0 1.76-.536 1.76-1.382 0-.876-.877-1.332-1.928-1.857-.782-.4-2.317-1.036-2.317-2.52 0-1.383 1.055-2.244 2.742-2.244 1.114 0 1.636.272 2.383.237l-.014 1.678h-.222a2.04 2.04 0 0 0-2.182-1.333c-1.1 0-1.5.63-1.5 1.268 0 .916.9 1.378 1.9 1.83 1.14.5 2.383 1.15 2.383 2.58 0 1.355-1.06 2.335-3 2.335a12.33 12.33 0 0 1-2.449-.4zm24.327-1.848v2.8a.77.77 0 0 0 .69.715v.23c-.266 0-1.14-.036-1.4-.036l-1.347.036v-.23a.79.79 0 0 0 .711-.715v-2.677m.085.215l-2.187-3.508a2.24 2.24 0 0 0-1.075-1.094v-.23l1.338.035 1.4-.035v.227c-.28.05-.414.2-.414.4a1.43 1.43 0 0 0 .254.633l1.612 2.673 1.554-2.672c.142-.213.234-.455.267-.7 0-.16-.113-.292-.377-.326v-.227l1 .035 1.072-.035v.207c-.584.3-1.052.784-1.332 1.377l-1.988 3.322m-41.736-4.9h5.125a1.78 1.78 0 0 0 .595-.087h.23l-.036 1.666h-.227a1.21 1.21 0 0 0-1.39-.944h-2.225v2.9h1.715a3.82 3.82 0 0 0 .685-.052.75.75 0 0 0 .633-.628h.23l-.017.993.017 1.046h-.23c-.065-.326-.3-.586-.633-.67a3.45 3.45 0 0 0-.685-.063h-1.715v3.4h2.42a1.48 1.48 0 0 0 1.627-1.064l.227.053-.22 1.716c-.715-.06-1.433-.083-2.15-.07h-2.56l-1.414.036V79.8c.462-.088.73-.316.73-.76v-6.3c0-.4-.207-.634-.725-.725zm-13.098.995c0-.423-.252-.655-.746-.76V71.8l1.424.034 1.4-.034v.226c-.5.1-.75.317-.75.76v6.254c0 .423.253.653.75.757v.23c-.278 0-1.155-.036-1.4-.036l-1.424.036v-.23c.5-.094.747-.3.747-.757zm38.89 0c0-.423-.255-.655-.748-.76V71.8l1.423.034 1.4-.034v.226c-.5.1-.748.317-.748.76v6.254c0 .423.253.653.748.757v.23c-.276 0-1.152-.036-1.4-.036l-1.423.036v-.23c.5-.094.748-.3.748-.757zm7.127-.96c-2.8 0-3.26-.052-3.833-.088v1.7h.23c.075-.576.594-1 1.172-.932h1.76v6.542c0 .44-.24.663-.748.757v.23l1.43-.036 1.4.036v-.23c-.5-.1-.75-.335-.75-.757v-6.54h1.75a1.08 1.08 0 0 1 1.175.932h.227v-1.7c-.57.035-1.02.088-3.833.088"/><path d="M150.294 75.686a8.05 8.05 0 0 0 1.03.052c1.542 0 2.028-.887 2.028-1.672 0-1.1-.742-1.8-2.1-1.8a5.89 5.89 0 0 0-.965.088zm0 3.357c0 .423.268.652.764.757v.23c-.275 0-1.174-.036-1.43-.036l-1.375.036v-.23c.46-.088.73-.3.73-.757v-6.32c0-.388-.207-.633-.725-.725v-.223l1.4.034 2-.067c1.968 0 3.067.814 3.067 2.212 0 1.1-.816 1.84-2.072 2.143a2.51 2.51 0 0 1 .573.5c.347.414 1.286 1.76 1.675 2.226s.886 1 1.42 1.022v.184a5.27 5.27 0 0 1-.979.1c-.68.01-1.324-.312-1.722-.864-.45-.546-1.2-1.68-1.657-2.252a1.87 1.87 0 0 0-1.27-.754l-.378-.055zm-19.53-6.227c-.154-.404-.502-.702-.925-.792v-.23l1.528.036 1.4-.036v.226c-.266.05-.57.2-.57.47a2.93 2.93 0 0 0 .345.96l2.123 4.83 2-4.838a2.92 2.92 0 0 0 .273-.924c0-.256-.235-.433-.57-.5v-.225l1.125.036 1.243-.036v.232a1.56 1.56 0 0 0-1.088 1.065l-2.956 6.973h-.67zm7.58-21.983c-.294-.764-.954-1.328-1.754-1.5v-.44l2.808.066 2.732-.066v.428c-.5.1-1.08.378-1.08.9a5.75 5.75 0 0 0 .654 1.814l4.025 9.15 3.8-9.167a5.43 5.43 0 0 0 .518-1.75c0-.487-.45-.818-1.082-.95V48.9l2.118.066 2.363-.066v.414a2.99 2.99 0 0 0-2.06 2.04l-5.6 13.22h-1.267zM84.14 64.057c.73-.167 1.243-.5 1.243-1.328V50.617c0-.8-.48-1.125-1.243-1.325v-.43l2.44.065 2.578-.065v.43c-.73.166-1.272.5-1.272 1.325v5.06H96.9v-5.06c0-.83-.48-1.16-1.243-1.325v-.43l2.546.065 2.47-.065v.43c-.73.166-1.273.5-1.273 1.325V62.73c0 .8.5 1.13 1.273 1.328v.4c-.377 0-2.072-.033-2.47-.033l-2.546.033v-.4c.725-.167 1.243-.5 1.243-1.328v-5.725h-9.024v5.724c0 .83.508 1.13 1.272 1.328v.4c-.38 0-2.115-.033-2.578-.033l-2.44.033zm108.332-.797a16.38 16.38 0 0 0 2.433.167c4.66 0 7.1-2.806 7.1-6.72 0-4.06-2.56-6.913-6.92-6.913a19.53 19.53 0 0 0-2.6.164zm-3.952.8c.932-.167 1.45-.54 1.45-1.393v-12.05c0-.83-.5-1.16-1.414-1.325v-.426l2.693.065 4.523-.166c5.55 0 8.92 3.1 8.92 7.814 0 4.582-3.506 7.976-9.23 7.976-1.65 0-3.608-.13-4.373-.13-.465 0-2.048.066-2.568.066zm-62.833-7.794c.647.072 1.297.105 1.948.1 2.92 0 3.833-1.68 3.833-3.165 0-2.108-1.4-3.4-3.96-3.4a11.57 11.57 0 0 0-1.823.164zm0 6.353c0 .8.5 1.243 1.444 1.438v.43c-.518 0-2.22-.066-2.708-.066l-2.6.066v-.43c.87-.167 1.38-.6 1.38-1.438V50.66c0-.735-.4-1.2-1.38-1.367v-.426l2.63.065 3.782-.127c3.73 0 5.8 1.545 5.8 4.185 0 2.082-1.554 3.483-3.93 4.062a4.75 4.75 0 0 1 1.082.948c.66.775 2.477 3.377 3.2 4.268s1.678 1.9 2.686 1.935v.35a10.05 10.05 0 0 1-1.847.194c-1.292.024-2.513-.588-3.267-1.637l-3.18-4.315a3.54 3.54 0 0 0-2.4-1.43l-.725-.1zm49.213-6.353a16.58 16.58 0 0 0 1.951.1c2.92 0 3.833-1.68 3.833-3.165 0-2.108-1.4-3.4-3.957-3.4a11.43 11.43 0 0 0-1.828.164zm0 6.353c0 .8.5 1.243 1.45 1.438v.43c-.518 0-2.217-.066-2.7-.066l-2.6.066v-.43c.867-.167 1.38-.6 1.38-1.438V50.66c0-.735-.4-1.2-1.378-1.367v-.426l2.63.065 3.777-.127c3.74 0 5.8 1.545 5.8 4.185 0 2.082-1.547 3.483-3.928 4.062.407.258.772.578 1.08.948.665.775 2.486 3.377 3.2 4.268s1.68 1.9 2.683 1.935v.35c-.606.122-1.22.187-1.84.194a3.94 3.94 0 0 1-3.271-1.637l-3.182-4.315c-.57-.784-1.434-1.3-2.394-1.428l-.725-.1zm-61.894-4.4l-2.486-5.8-2.314 5.8zm-9.944 5.836c.886-.2 1.6-.863 1.9-1.727l5-12.025a13.44 13.44 0 0 0 .46-1.52h1.4a14.23 14.23 0 0 0 .458 1.524l5.283 12.06a2.54 2.54 0 0 0 1.83 1.69v.4c-.572 0-2.35-.033-2.753-.033l-2.672.033v-.4c.77-.2 1.012-.58 1.012-.958a2.91 2.91 0 0 0-.294-1.06l-1.14-2.6h-5.82l-1.036 2.6a3.2 3.2 0 0 0-.255.993c0 .434.227.78 1.1 1.012v.4c-.518 0-1.88-.033-2.2-.033l-2.26.033zm59.458-5.836l-2.486-5.8-2.313 5.8zm-9.953 5.837a2.63 2.63 0 0 0 1.889-1.727l5-12.026c.184-.497.34-1.005.463-1.52h1.4a14.22 14.22 0 0 0 .455 1.524l5.284 12.06a2.54 2.54 0 0 0 1.831 1.694v.4c-.57 0-2.35-.033-2.756-.033l-2.667.033v-.4c.774-.2 1.013-.58 1.013-.958-.028-.37-.126-.73-.3-1.06l-1.14-2.6h-5.82l-1.036 2.6c-.137.315-.223.65-.254.993 0 .434.227.78 1.1 1.012v.4c-.518 0-1.88-.033-2.2-.033l-2.26.033z"/></g><path d="M38 44h34.846v13.16c0 6.03-2.245 18.822-17.293 28.34 0 0-16.3-6.8-17.553-28.34z" fill="#c9c9ca"/><g class="B"><use xlink:href="#B"/><use xlink:href="#C"/><use xlink:href="#D"/></g><use xlink:href="#B" fill="#b8b7c1"/><path d="M64.375 60.916s-.31 1-1.693-.027l-4.744-.115a.52.52 0 0 1-.671-.294.5.5 0 0 1-.034-.156 10.54 10.54 0 0 0 .056-1.412c0 0 .028-.367-.594-.367 0 0-.96.114-.988-.734 0 0-.168-.9 1.158-.874 0 0 .424.2.452-.34l-.028-3.953s.115-.338-.537-.395c0 0-.932.2-1.045-.423 0 0-.055-.932.567-.99 0 0 .76.057.9-.14 0 0 .17.112.14-.564l.03-1.16s.08-.31.564-.28c.33.032.662.022.99-.03.092-.117.177-.24.254-.367 0 0 .452-.028.537.085 0 0 .677.452 3.247.28 0 0 .4 0 .48.114 0 0 .482.367.763-.027.562-.07 1.13-.1 1.694-.056a2.9 2.9 0 0 0 2.344-.426l.31.056s.395.648.676.453c0 0 .847-.083.988.085.212.48.262 1.015.142 1.526 0 0-.17.48.65.48 0 0 .932-.17.817.7 0 0 .254.99-1.3.848-.102.14-.16.308-.17.48 0 0-.027 3.217-.056 3.585 0 0-.028.51.648.48 0 0 .905-.058.932.76 0 0 .11 1.073-1.188.874 0 0-.395.06-.454.31l-.054 1.412s.027.706-.76.537c-.113 0-4.4.086-4.773-.027.005.004-.195-.023-.25.088z" class="F"/><path d="M59.04 49.283l.056.71-.083 8.158c.04.37-.135.733-.45.932 0 0-.143.055-.17-.34l.055-8.468s.057-1.047.593-.99" class="B"/><path d="M59.036 49.283l.055.71-.083 8.16c.04.372-.135.734-.452.932 0 0-.143.056-.17-.34l.057-8.47s.064-1.05.594-.993z" class="C D E"/><path d="M58.108 59.165l.03-8.1c-.027-.138.027.116.027.116a4.4 4.4 0 0 1 .283-1.952s-.115-.478-.763.115l-.028 1.156s0 .65-.6.622a1.56 1.56 0 0 0-.989.282s-.17.622.48.5c0 0 1.017 0 1.074.42l-.057 4.265c.073.174.046.374-.072.522s-.306.22-.492.188c0 0-.963-.06-.932.532 0 0 .2.508 1.017.34a.68.68 0 0 1 .564.679v1.07s-.057.426.5.453h4.4s.225.027.225-.255c0 0-.027-.226-.366-.226l-3.67-.057s-.594.2-.65-.677m.846-.016s-.114.395.3.3h2.9l.8.17s.818-.2 0-.65c0 0-2.6.026-2.822-.03l-.653-.17s-.28-.113-.532.365" class="B"/><path d="M58.954 59.15s-.114.4.31.31h2.9l.79.17s.82-.2 0-.653c0 0-2.6.026-2.823-.028l-.652-.17s-.28-.108-.535.37z" class="C D E"/><path d="M63.782 59.547s-.537 0-.5.708a.6.6 0 0 0 .622.535c.302-.056.504-.344.453-.647 0 0-.3-.705-.566-.594m.397-.282s.254-.28.425-.28c0 0 2.823.253 3.3-.085 0 0 .426-.084.54 0 0 0 .423.34.423.537 0 0-.028.256-.537.1l-3.36.03s-.877.2-.8-.3" class="B"/><path d="M64.177 59.266s.254-.282.425-.282c0 0 2.824.253 3.3-.085 0 0 .426-.084.54 0 0 0 .423.338.423.538 0 0-.027.256-.537.11l-3.36.03s-.878.196-.8-.313z" class="C D E"/><g class="B"><path d="M64.544 60.177s0-.228.4-.228l3.95-.028s.37.2.37-.48l.157-6.467.014-3.048s-.088-.425-.2-.5c0 0 0-.45.48-.28 0 0 .424.028.3.68l.03.984s-.085.427.675.3c0 0 .76.115.8.395 0 0 .226.568-.676.5h-.653a.47.47 0 0 0-.2.51l-.084 4.095s-.057.7.622.68c0 0 .7-.03.846.2 0 0 .483.705-.564.648a2.19 2.19 0 0 0-.8.085 4.33 4.33 0 0 0-.2 1.469s.058.8-.537.7c0 0-3.926.056-4.292-.027 0 0-.395.115-.452-.2m-5.067-11.14l-.085 9.066s-.027.42.678.506a4 4 0 0 0 1.014 0s.54-.03 1.92.03c0 0 .34.342.37-.085l.114-8.866s-.03-.648-.5-.677a10.56 10.56 0 0 1-2.344 0l-.847-.224s-.34.028-.3.252"/><path d="M63.924 49.48l-.056 4.4-.056 3.588-.115 1.243s.17.254.3.085c.48-.123.974-.17 1.468-.14 0 0 1.8.168 2.175-.116 0 0 .283.14.366-.3l.06-8.045a8.46 8.46 0 0 0 .052-1.243s-.025-.254-.506-.03c0 0 .055.227-2.625.14 0 0-1.016-.028-1.074.426m4.5-.11l-.027 8.92s.225.793.6.7a2.33 2.33 0 0 0 .083-.454l.115-8.5s-.284-1.353-.76-.677"/></g><path d="M68.412 49.366l-.027 8.922s.226.793.593.71c.043-.148.07-.3.083-.454l.114-8.5s-.284-1.355-.763-.68z" class="C D E"/><path d="M64.946 52.04c-.084-.226.48-.254.48-.254l.283.056c.136-.013.273.007.4.058a.32.32 0 0 1 .048.244c-.018.084-.067.16-.14.207l-.05.028-.113.37c-.03.3 0 2.994 0 2.994a2.14 2.14 0 0 0 .282.393c0 .256-.3.2-.3.2l-.817.028c-.255-.028-.17-.3-.17-.3.282-.14.368-.65.368-.65v-2.8zm-3.776.392l.028 1.47a.53.53 0 0 0 .846-.17c.7-.676 0-1.3-.112-1.467s-.68-.03-.68-.03zm-.028 2.232l-.056.875.252.423c.17.226-.112.4-.112.4l-.9-.085c-.168-.087 0-.368 0-.368.15-.128.242-.312.255-.5l-.028-1.638.017-1.2c0-.142-.226-.394-.226-.394-.2-.028-.14-.282-.14-.282.056-.142.535-.058.535-.058h1.187c1.13.368.96 1.187.96 1.187.008.514-.308.978-.8 1.158l-.06.452.82 1.3a.24.24 0 0 1 .114.228c-.114.3-.567 0-.567 0l-1.015-1.583c-.085-.114-.255.085-.255.085" class="F"/><use xlink:href="#C" fill="#88888f"/><path d="M55.26 65.6a.53.53 0 0 0 .254-.224 2.41 2.41 0 0 0 .677-.142l1.865.142c.897.088 1.802-.06 2.626-.426a1.44 1.44 0 0 1 .482.086s.394.085.5.252l1.075-.028s.622.2.562.595v.508s-.113 1.017.17 1.073h.82s.677.31.594.706c.01.336-.233.626-.565.677a3.41 3.41 0 0 1-.79.141c-.122.166-.2.36-.23.565l-.084 3.7s-.057.393.537.338c0 0 .874-.084 1.13.4 0 0 .227.818-.226.96l-.34.17-.735.115s-.31.028-.337.56v.99s.027.677-.51.677l-.8.057c-.177.113-.398.134-.593.056l-4.972.027-.567.115s-.622.566-1.128.14l-.4-.31a1.44 1.44 0 0 1-.394.03c-.114-.03-5.31.057-5.31.057s-1.1.114-1.186-.255c-.06-.535-.09-1.073-.085-1.61 0 0 0-.422-.255-.45 0 0-1.1-.056-1.13-.17 0 0-.593-.425-.424-.846.13-.337.434-.576.792-.622 0 0 .9.145.9-.113a1.53 1.53 0 0 0 .062-.45l.028-3.587s.084-.425-.284-.425a.91.91 0 0 1-.644-.056s-.677.028-.818-.51a.82.82 0 0 1 .056-.622c.257-.406.76-.58 1.214-.424 0 0 .51.143.566-.224l-.028-1.357s-.114-.366.593-.565c0 0 .9.255 1.186-.2 0 0 .31-.622.562-.2.588.396 1.303.558 2.005.456.864-.086 1.732-.116 2.6-.088 0 0 .622.088.8.285z" stroke-width=".01" class="C F"/><g class="B"><path d="M56 76.73a1.04 1.04 0 0 1 .567-.113c.226.056 3.53-.028 3.53-.028s1.44.112 1.667-.088l.337-.112a.67.67 0 0 0 .142-.394l.028-1 .086-.28s-.03-.282 0-7.823a1.18 1.18 0 0 0-.257-.959s0-.224.113-.2.058.03.058.03.508-.144.6.054a1.74 1.74 0 0 1 .029 1.072s-.057.82.37.82c.143.114.334.146.506.084 0 0 .733.086.733.3a.43.43 0 0 1-.106.3.42.42 0 0 1-.286.137.41.41 0 0 1-.117-.01l-.68.055a.53.53 0 0 0-.394.622c.058.537-.028 4.378-.028 4.378s0 .454.708.426c0 0 .874-.03.874.224a.41.41 0 0 1-.02.414c-.08.124-.226.193-.374.18 0 0-1.186-.03-1.1.3a8.34 8.34 0 0 1-.143.932s.115.65-.028.764c0 0-.084.366-.845.3 0 0-4.855-.028-5.62.028 0 0-.453-.056-.34-.452m-.884-.527c.267.044.467.267.48.537 0 .45.028.705-.256.76a.53.53 0 0 1-.4-.032.52.52 0 0 1-.26-.306c-.006-.018-.01-.037-.014-.056-.124-.372.076-.774.447-.9h0"/><path d="M55.68 75.97s.508-.34.705-.282a25.1 25.1 0 0 0 3.361.029c.79-.142.31-.03.31-.03s.68 0 .874-.256c.124-.028.25.03.31.143l.422.454s.032.28-.45.25l-4.743.028s-.875.14-.8-.338"/></g><path d="M55.678 75.97s.508-.34.705-.283a25.12 25.12 0 0 0 3.362.03c.8-.143.31-.03.31-.03s.68 0 .875-.257c.124-.028.252.03.31.144l.422.455s.03.28-.45.25l-4.744.03c-.001 0-.877.14-.792-.34z" class="C D E"/><path d="M48.988 65.945s.2 0 .17.34L49.1 74.8c.04.358-.1.71-.394.932 0 0-.256.31-.256-.17l.115-8.7c.013-.354.165-.69.423-.932" class="B"/><path d="M49 65.944s.2 0 .17.34l-.06 8.528c.04.358-.1.71-.395.932 0 0-.257.31-.257-.17l.115-8.7c.014-.354.167-.688.426-.93z" class="C D E"/><path d="M48.537 66.002c-.14.238-.246.495-.3.764l-.028 1.888V70c.028.142-.028 3.7-.028 3.7v2.424s-.057.68.45.507l5.283-.026s.45.084.283.3c0 0 0 .2-.3.14a38.6 38.6 0 0 1-4.459.141s-1.412.083-1.5-.083c0 0-.225-.03-.225-.848a5.84 5.84 0 0 0-.055-.9s.055-.4-.65-.482c0 0-.988.17-1.016-.423 0 0 .14-.424 1.1-.37 0 0 .705.114.566-.453l.084-4.176s.087-.738-.395-.767a2.53 2.53 0 0 0-.594.029s-.818 0-.76-.477a1.04 1.04 0 0 1 1.1-.4.55.55 0 0 0 .648-.592s-.028-1.44.3-1.5c0 0 .708.026.5.225m.852 9.368a1.45 1.45 0 0 0 1.046.4l3.833.055s.426.03.4.254c0 0-.06.34-.567.226l-4.63-.056-.5.03s-.34-.06.2-.708z" class="B"/><path d="M49.38 75.346a1.44 1.44 0 0 0 1.047.4l3.833.056s.426.03.4.254c0 0-.06.34-.566.228l-4.633-.056-.5.03s-.338-.058.2-.71z" class="C D E"/><path d="M61.24 74.977c.13.27.303.52.51.74 0 0 .31.364.227-.285l.056-8.133c-.054-.24-.054-.492 0-.733l-.338-.622s-.368-.282-.368.17l-.056 8.67z" class="B"/><path d="M61.24 74.98c.132.27.304.52.51.74 0 0 .31.365.227-.286l.056-8.135c-.054-.24-.054-.5 0-.73l-.34-.622s-.37-.282-.37.17l-.056 8.67z" class="C D E"/><path d="M54.972 71.11a8.69 8.69 0 0 1-.058 1.323c-.046.358.115 2.008-.028 2.854 0 0-.026.283-.622.03 0 0-3.613.083-3.73-.03 0 0-.988.03-1.073-.48l.057-4.012v-2.314l.03-2.175c.016-.228-.003-.458-.057-.68 0 0 0-.282.48-.114 0 0 .167.31 1.1.173a5.24 5.24 0 0 0 1.325.027c.6-.058 1.207-.058 1.808 0 .343-.06.67.168.732.51l-.028 1.75.17.565.2-.14.084-.425.035-1.866a.66.66 0 0 1 .567-.4c.27-.04.547-.05.82-.027.682.093 1.37.112 2.057.058a2.54 2.54 0 0 0 1.779-.366s.34.028.34.252a23.4 23.4 0 0 0 0 2.853l-.088 4.714.058 1.412s.056.622-.932.68c0 0 .622.085-3.278-.027a3.1 3.1 0 0 0-1.3.281s-.14-.028-.14-.394c.064-.874.064-1.753 0-2.627l-.055-1.44z" class="B"/><path d="M52.436 69.1c.042.8.042 1.58 0 2.37l-.027.453a1.03 1.03 0 0 0 .282.424s.142.394-.2.367a7.7 7.7 0 0 0-.874-.03s-.4 0 0-.506a1.19 1.19 0 0 0 .112-.708l.058-2.5s.056-.3-.142-.4l-.34.03-.422.395s-.086.426-.284-.027v-.228l.256-.677.17-.03a1.9 1.9 0 0 0 .479.228h1.332l.48-.228s.2.03.143.283c0 0 .083.652-.284.734-.163-.078-.286-.222-.338-.395 0 0-.368-.2-.4.453m6.233-.76a1.01 1.01 0 0 0-1.1.918.96.96 0 0 0 0 .154s-.116.792 1.07 1.3c0 0 .876.422.817.957 0 0-.113.96-1.044.48 0 0-.45-.227-.42-.48 0 0-.144-.3-.3-.254 0 0-.2.055-.1.988 0 0 0 .368.424 0l.223.058a.99.99 0 0 0 1.4-.126l.013-.017a1.14 1.14 0 0 0 .2-1.439 2.55 2.55 0 0 0-1.015-.845c-.338-.153-.6-.425-.76-.764a.6.6 0 0 1 .672-.516.61.61 0 0 1 .286.119c.126.16.28.294.452.4 0 0 .227 0 .17-.5l-.053-.42s-.057-.3-.454 0c0 0-.368.14-.453 0m-3.9 1.263l-.228.932.17.285.622.026c.17 0 .2-.14.2-.283a8.49 8.49 0 0 0-.31-.987l-.143-.17zm.45-1.865a.67.67 0 0 1 .226.426c.42 1.202.768 2.428 1.045 3.67.103.2.236.36.395.507.48.17 0 .3 0 .3a2.55 2.55 0 0 1-.845-.026c-.34-.06-.2-.17-.2-.17.143-.14.03-.708.03-.708a1.94 1.94 0 0 0-.281-.591c-.113-.057-.3.2-.3.2s-.3.114-.34 0-.226-.222-.226-.222c-.34 0-.48.842-.48.842.2.706 0 .593 0 .593-.17.228-.706.06-.706.06-.254-.06-.083-.257-.083-.257.193-.05.344-.2.393-.395.142-.2 1.044-3.867 1.044-3.867.087-.17.142-.5.34-.368" class="F"/><use xlink:href="#D" fill="#88888f"/><path d="M47.578 60.916s-.31 1-1.695-.028l-4.744-.114a.52.52 0 0 1-.706-.452 10.35 10.35 0 0 0 .056-1.411c0 0 .03-.368-.593-.368 0 0-.958.115-.986-.732 0 0-.17-.907 1.157-.876 0 0 .422.2.45-.34l-.03-3.955s.115-.337-.536-.393c0 0-.932.2-1.044-.426 0 0-.058-.932.564-.987 0 0 .76.057.9-.14 0 0 .17.11.14-.568l.03-1.157s.084-.31.562-.28a4.01 4.01 0 0 0 .99-.029c.093-.116.177-.24.252-.367 0 0 .454-.027.54.084 0 0 .675.454 3.25.283 0 0 .393 0 .48.114 0 0 .48.367.76-.03a9.37 9.37 0 0 1 1.7-.055 2.9 2.9 0 0 0 2.342-.424l.31.058s.395.646.68.45c0 0 .845-.084.99.085.21.48.26 1.016.14 1.526 0 0-.17.48.65.48 0 0 .932-.17.82.7 0 0 .255.99-1.3.848a.89.89 0 0 0-.171.481l-.055 3.585s-.028.507.648.48c0 0 .9-.06.932.762 0 0 .112 1.07-1.186.872 0 0-.395.06-.453.31l-.056 1.41s.03.708-.763.54c-.113 0-4.4.083-4.77-.028.003.003-.197-.024-.25.087z" stroke-width=".01" class="C F"/><path d="M42.24 49.283l.057.7-.086 8.16a.97.97 0 0 1-.452.932s-.14.058-.17-.338l.06-8.467s.056-1.045.593-.99" class="B"/><path d="M42.243 49.283l.057.7-.087 8.163a.97.97 0 0 1-.453.932s-.14.057-.17-.338l.056-8.47s.057-1.042.596-.986z" class="C D E"/><path d="M41.3 59.165l.028-8.1c-.027-.138.027.115.027.115a4.41 4.41 0 0 1 .287-1.95s-.114-.48-.763.112l-.028 1.162s0 .65-.595.622a1.57 1.57 0 0 0-.99.283s-.17.622.48.5c0 0 1.018 0 1.074.42l-.056 4.265a.52.52 0 0 1-.566.705s-.96-.054-.932.54c0 0 .2.5 1.018.338.328.057.567.342.567.675v1.07s-.06.425.5.45h4.406s.226.028.226-.255c0 0-.028-.223-.366-.223l-3.67-.057s-.6.2-.652-.677m.777.052s-.112.4.3.3h2.9l.8.17s.82-.2 0-.65c0 0-2.6.03-2.824-.027l-.648-.17s-.283-.112-.537.368" class="B"/><path d="M42.07 59.22s-.112.4.31.31h2.9l.79.17s.82-.2 0-.65c0 0-2.6.03-2.825-.028l-.65-.168c0-.001-.284-.114-.538.365z" class="C D E"/><path d="M46.902 59.62s-.538 0-.5.7a.61.61 0 0 0 .622.54.57.57 0 0 0 .454-.649s-.3-.708-.565-.6m.382-.287s.253-.282.425-.282c0 0 2.823.255 3.3-.083 0 0 .425-.085.536 0 0 0 .424.338.424.536 0 0-.028.257-.535.115l-3.36.027s-.876.2-.8-.3" class="B"/><path d="M47.298 59.334s.254-.283.425-.283c0 0 2.823.256 3.3-.083 0 0 .426-.085.537 0 0 0 .424.338.424.537 0 0-.027.257-.535.114l-3.362.028c-.002 0-.878.197-.79-.313z" class="C D E"/><g class="B"><path d="M47.748 60.177s0-.225.393-.225l3.956-.03s.366.2.366-.48l.157-6.468.01-3.047s-.084-.423-.2-.5c0 0 0-.452.482-.28 0 0 .42.027.3.675l.028 1s-.084.424.68.3c0 0 .76.113.8.395 0 0 .228.567-.674.5h-.648a.47.47 0 0 0-.2.51l-.084 4.093s-.06.705.622.68c0 0 .705-.03.845.2 0 0 .482.706-.564.65-.266-.02-.534.007-.8.084a4.46 4.46 0 0 0-.2 1.47s.056.8-.537.705c0 0-3.925.055-4.3-.028 0 0-.4.114-.453-.2M42.66 49.027l-.083 9.064s-.028.42.677.506a3.97 3.97 0 0 0 1.016 0s.536-.027 1.92.03c0 0 .34.338.367-.084l.114-8.866s-.027-.648-.5-.677a10.8 10.8 0 0 1-2.342 0l-.845-.226s-.34.027-.3.255"/><use xlink:href="#E"/></g><g class="C D E"><use xlink:href="#E"/><path d="M51.615 49.366l-.026 8.923s.227.792.595.71c.044-.148.072-.3.084-.455l.115-8.5s-.286-1.356-.768-.677z"/></g><path d="M47.128 49.443l-.06 4.406-.053 3.588-.115 1.243s.168.258.31.087a4.87 4.87 0 0 1 1.469-.141s1.808.17 2.175-.113c0 0 .282.14.368-.31l.056-8.047a8.17 8.17 0 0 0 .056-1.243c0 0-.028-.257-.506-.032 0 0 .055.228-2.626.144 0 0-1.017-.03-1.073.422" class="B"/><path d="M46.256 52.054l-.256.54c-.236 1.122-.556 2.225-.956 3.3 0 0-.057.567-.538.114l-1.158-3.585-.368-.25s-.223-.3.17-.338l1.044.028s.338.28-.113.6a14.5 14.5 0 0 0 .648 2.175s.17.65.367.17l.566-2-.17-.593s-.17-.282.085-.3c0 0 .593-.056.676.17m1.64.43l-.03 2.993-.083.226s-.283.366-.086.395c0 0-.252.17 1.807.2 0 0 .792.14.594-.876 0 0-.084-.367-.37.17 0 0-.084.45-1.1.3a.67.67 0 0 1-.227-.423v-1.247s-.03-.3.45-.28c0 0 .537.337.622.195a.87.87 0 0 0 0-.733s-.255-.027-.282.086c0 0-.17.337-.65.14a1.18 1.18 0 0 1-.084-.818s-.056-.706.425-.648c0 0 .565.112.622.283 0 0 .14.34.284-.056l-.143-.482s-.083-.2-.225-.14c0 0-.96.14-1.074.027l-.762.086c-.06.17.03.355.2.414l.026.008c.054.04.085.104.085.17" class="F"/><defs ><path id="B" d="M64.375 60.915s-.31 1-1.693-.027l-4.743-.115a.52.52 0 0 1-.671-.294c-.02-.05-.03-.102-.034-.155.05-.47.068-.94.056-1.412 0 0 .028-.367-.595-.367 0 0-.958.113-.987-.735 0 0-.168-.9 1.158-.873 0 0 .424.2.452-.34l-.028-3.952s.114-.338-.537-.395c0 0-.932.2-1.044-.423 0 0-.056-.932.567-.99 0 0 .76.058.9-.14 0 0 .17.112.14-.562l.03-1.16s.082-.31.562-.28a3.96 3.96 0 0 0 .99-.03c.092-.117.176-.24.253-.368 0 0 .453-.027.537.086 0 0 .678.452 3.247.28 0 0 .4 0 .48.114 0 0 .482.367.763-.028.562-.07 1.13-.1 1.694-.056.805.2 1.658.046 2.342-.425l.31.057s.395.647.677.452c0 0 .847-.084.988.085a2.4 2.4 0 0 1 .141 1.526s-.168.48.65.48c0 0 .932-.17.818.7 0 0 .254.99-1.3.848a.89.89 0 0 0-.171.48l-.056 3.586s-.027.51.648.48c0 0 .9-.058.932.76 0 0 .112 1.073-1.188.874 0 0-.395.058-.454.31l-.053 1.412s.027.705-.762.536c-.113 0-4.4.087-4.772-.026 0 0-.2-.028-.255.083"/><path id="C" d="M55.26 65.634c.107-.044.196-.123.254-.223a2.41 2.41 0 0 0 .677-.142l1.865.142c.897.087 1.802-.06 2.625-.428a1.44 1.44 0 0 1 .482.086s.393.086.506.253l1.074-.028s.622.2.564.6v.507s-.114 1.017.17 1.074h.82s.68.31.593.7c.01.335-.232.625-.564.677a3.48 3.48 0 0 1-.791.142 1.22 1.22 0 0 0-.228.564l-.083 3.7s-.058.395.537.34c0 0 .873-.085 1.13.4 0 0 .226.817-.226.958l-.338.168-.735.117s-.31.026-.338.56v.987s.03.68-.51.68l-.8.057c-.177.112-.397.132-.59.054 0 0-4.8.087-4.972.03l-.572.113s-.622.565-1.13.14l-.395-.31a1.36 1.36 0 0 1-.394.028c-.114-.028-5.31.058-5.31.058s-1.1.115-1.185-.255c-.06-.535-.09-1.073-.085-1.61 0 0 0-.422-.254-.45 0 0-1.1-.057-1.13-.17 0 0-.594-.422-.425-.844a.98.98 0 0 1 .791-.622s.9.143.9-.112a1.54 1.54 0 0 0 .058-.451l.027-3.587s.084-.424-.283-.424c-.216.062-.446.04-.648-.057 0 0-.68.028-.82-.51a.83.83 0 0 1 .055-.622c.258-.405.76-.58 1.215-.422 0 0 .51.142.565-.224l-.023-1.354s-.115-.366.593-.562c0 0 .9.253 1.185-.2 0 0 .31-.622.562-.2a2.86 2.86 0 0 0 2.006.455 19.96 19.96 0 0 1 2.6-.089c0 0 .622.09.8.284z"/><path id="D" d="M47.578 60.915s-.31 1-1.695-.028l-4.743-.114c-.128.05-.27.048-.396-.007s-.225-.157-.275-.285c-.02-.05-.032-.104-.035-.158.05-.47.068-.94.055-1.41 0 0 .03-.37-.59-.37 0 0-.958.115-.986-.732 0 0-.17-.906 1.156-.875 0 0 .422.2.452-.34l-.03-3.954s.115-.336-.535-.393c0 0-.932.2-1.043-.426 0 0-.058-.932.562-.988 0 0 .762.058.9-.138 0 0 .17.11.14-.57l.028-1.156s.085-.31.562-.282a4.02 4.02 0 0 0 .991-.029c.092-.117.176-.24.25-.368 0 0 .455-.027.54.084 0 0 .676.455 3.25.284 0 0 .393 0 .48.114 0 0 .48.367.76-.03a9.28 9.28 0 0 1 1.7-.056 2.89 2.89 0 0 0 2.342-.423l.31.058s.395.647.68.45c0 0 .845-.085.988.085.213.48.262 1.016.14 1.526 0 0-.168.48.65.48 0 0 .932-.168.82.7 0 0 .255.99-1.3.848a.89.89 0 0 0-.171.48l-.055 3.586s-.027.5.65.48c0 0 .9-.06.932.762 0 0 .113 1.072-1.185.873 0 0-.4.06-.454.31l-.055 1.41s.028.706-.764.538c-.113 0-4.4.084-4.77-.027 0 0-.2-.028-.253.083"/><path id="E" d="M51.615 49.366l-.026 8.923s.227.792.595.71c.044-.148.072-.3.084-.455l.115-8.5s-.283-1.356-.766-.677"/></defs></svg>