<svg xmlns="http://www.w3.org/2000/svg" width="64" height="64"><path d="M32 0c17.673 0 32 14.327 32 32S49.673 64 32 64 0 49.673 0 32 14.327 0 32 0z" fill="#199cd8"/><path d="M30.775 23.607a6 6 0 0 1 4.338-1.859 6.06 6.06 0 0 1 5.278 3.123 7.3 7.3 0 0 1 2.983-.633 7.43 7.43 0 0 1 5.897 11.954 7.43 7.43 0 0 1-7.35 2.757 5.4 5.4 0 0 1-7.064 2.214c-.99 2.32-3.29 3.8-5.81 3.74s-4.748-1.653-5.623-4.017c-2.76.548-5.512-.978-6.51-3.608s.05-5.597 2.48-7.018c-1.318-3.08-.137-6.66 2.755-8.35s6.59-.963 8.627 1.698" fill="#fff"/></svg>