<svg xmlns="http://www.w3.org/2000/svg" width="242" height="130" fill="#8f8e91"><path d="M41.383 42.38c0-.407-1.1-1.452-1.452-1.452H39V40h5.518l5.692 14.288h.116L56.3 40h4.937v.93h-.93c-.348 0-1.452 1.045-1.452 1.452v14.23c0 .407 1.1 1.452 1.452 1.452h.93v.93H53.93v-.93h.93c.348 0 1.452-1.045 1.452-1.452V42.788l-6.908 16.495-6.86-16.783v14.053c0 .407 1.1 1.452 1.452 1.452h.93v.93h-5.924V58h.93c.348 0 1.452-1.045 1.452-1.452zm27.82 8.48c.348-1.917 0-3.6-2.1-3.6-2.44 0-3.66 1.975-3.66 4.82 0 2.73 1.742 4.995 4.53 4.995 1.635.168 3.197-.716 3.895-2.204h.755c-.813 2.672-2.44 4.356-5.518 4.356-3.427 0-5.634-2.9-5.634-6.4 0-3.95 2.614-6.563 5.866-6.563a5.56 5.56 0 0 1 4.356 1.742l-1.8 2.788zm24.8-7.085a1.54 1.54 0 0 0 1.568-1.626c.022-.422-.136-.834-.435-1.133a1.49 1.49 0 0 0-1.133-.435 1.54 1.54 0 0 0-1.626 1.568c-.02.437.144.863.454 1.172a1.56 1.56 0 0 0 1.172.454zM111.428 58c-.348 0-1.336-.87-1.336-1.278v-6.848a3.34 3.34 0 0 0-3.429-3.485c-2.207 0-3.37 1.278-4.82 2.788l-.465-2.556H97.5v.93h.755c.348 0 1.336.93 1.336 1.278v7.84c0 .407-.987 1.278-1.336 1.278h-1.5c-.348 0-1.336-.87-1.336-1.278V46.62h-4.414v.93h.755c.348 0 1.336.93 1.336 1.278v7.84c0 .407-.987 1.278-1.336 1.278h-1.394a6.94 6.94 0 0 1-2.265-1.568l-6.617-8.77 4.588-4.937c.7-.714 1.534-1.303 2.44-1.742h.93V40h-6.856v.93h.93c.348 0 1.452 1.278 1.162 1.626l-6.8 7.55V42.38c0-.407 1.1-1.452 1.452-1.452h.93V40h-7.372v.93h.93c.348 0 1.452 1.045 1.452 1.452v14.23c0 .407-1.1 1.452-1.452 1.452h-.93v.93h7.376v-.93h-.93c-.348 0-1.452-1.045-1.452-1.452v-4.995l1.917-2.1 6.563 9.467h17.6v-.93h-.7c-.348 0-1.336-.87-1.336-1.278v-6.33c0-.813 2.265-2.556 4.008-2.556a1.89 1.89 0 0 1 1.975 2.091v6.737c0 .407-.987 1.278-1.336 1.278h-.7v.93h6.273V58zm2.265-3.363a4.47 4.47 0 0 0 4.3 3.6c1.5 0 2.38-.523 2.38-1.684 0-1.394-1.22-1.86-2.323-2.323l-2.556-1.1c-1.5-.7-2.614-1.684-2.614-3.37 0-2.207 1.336-3.485 3.717-3.485 1.336 0 2.1.64 3.02.64.348 0 .58-.058.7-.348h.7v3.775h-.755a3.94 3.94 0 0 0-3.717-3.194c-1.452 0-2.1.64-2.1 1.626 0 1.045.755 1.452 1.975 1.975l2.672 1.1a3.89 3.89 0 0 1 2.846 3.543c0 2.323-1.626 3.717-3.95 3.717-1.568 0-2.5-.755-3.543-.755a1.02 1.02 0 0 0-.929.407h-.58v-4.3h.755v.174zm9.003-1.86c0-3.66 2.5-6.505 5.634-6.447a4.26 4.26 0 0 1 4.472 4.3l.058.87-8.2.64a4.69 4.69 0 0 0 4.472 4.937c1.617.156 3.156-.73 3.833-2.207h.755c-.813 2.672-2.323 4.356-5.343 4.356-3.427-.002-5.692-2.964-5.692-6.45zm8.073-1.975c.232-1.742-.058-3.485-2.5-3.485-2.556 0-3.543 2.1-3.66 4.008zm4.24-1.858c-.386-.6-.928-1.08-1.568-1.394h-.523v-.93h6.5v.93h-.755c-.348 0-1.1.87-1.1 1.336l2.846 6.563 2.788-6.563a1.83 1.83 0 0 0-1.045-1.336h-.755v-.93h4.937v.93h-.58c-.3 0-1.162.93-1.452 1.336l-4.183 9.467-3.078 6.8-1.102-.532 3.253-6.737zM75.593 68.75c.086 1.575 1.156 2.926 2.67 3.37 2.44 2.614 5.4 5.4 7.957 7.725a7.22 7.22 0 0 0 .987-4.008c0-1.742-1.162-2.788-3.02-2.846v-.93h6.737V73h-.755a3.96 3.96 0 0 0-1.684 2.033 9.78 9.78 0 0 1-1.622 5.285 44.4 44.4 0 0 0 3.833 3.078h1.162v.93h-2.095a6.4 6.4 0 0 1-4.7-1.917 8.38 8.38 0 0 1-6.215 2.265 5.78 5.78 0 0 1-5.985-5.575 6.96 6.96 0 0 1 3.02-5.75 5.8 5.8 0 0 1-1.5-3.95c0-2.73 1.742-4.24 4.53-4.24 1.742 0 2.672.58 3.485.58.407 0 .7 0 .87-.348h.813v4.467h-.8c-.415-2.14-2.237-3.722-4.414-3.833-2.037.004-3.256.992-3.256 2.733zm-.813 9.06c0 2.73 2.9 5.285 5.576 5.285a6.71 6.71 0 0 0 4.124-1.278 97.07 97.07 0 0 1-8.189-8.015 5.17 5.17 0 0 0-1.51 4.01zm36.474-5.75c0-1.975-2.207-5.924-5.75-5.924-3.253 0-5.227 1.8-5.576 6.1a33.4 33.4 0 0 0 .058 4.821 6.28 6.28 0 0 0 6.447 6.04c3.253 0 4.88-1.394 6.1-3.9h.987a7.73 7.73 0 0 1-7.667 5.4c-5.46 0-8.944-4.472-8.944-9.874s3.194-9.758 8.48-9.758c2.033 0 3.3.813 4.763.813.452.038.9-.16 1.162-.523h.7v6.737l-.755.058zm3.543 6.1a6.11 6.11 0 1 1 12.2 0 6.11 6.11 0 1 1-12.2 0zm9.758 2.033a16.79 16.79 0 0 0 0-4.182 3.35 3.35 0 0 0-3.6-3.311 3.42 3.42 0 0 0-2.48.873 3.41 3.41 0 0 0-1.12 2.38c-.174 1.4-.174 2.793 0 4.182.3 1.917 1.336 3.3 3.6 3.3 2.322.058 3.367-1.336 3.6-3.252zm22.42 1.857c0 .407.93 1.278 1.278 1.278h.58v.93h-6.157v-.93h.7c.348 0 1.278-.87 1.278-1.278v-6.8a1.78 1.78 0 0 0-1.917-2.033c-1.626 0-3.6 1.568-3.6 2.38v6.452c0 .407.93 1.278 1.278 1.278h.7v.93h-6.28v-.93h.7c.348 0 1.278-.87 1.278-1.278v-6.8a1.82 1.82 0 0 0-1.975-2.033c-1.626 0-3.6 1.626-3.6 2.5v6.4c0 .407.93 1.278 1.278 1.278h.7v.93h-6.28v-.93h.7c.348 0 1.278-.87 1.278-1.278v-7.9c0-.407-.93-1.278-1.278-1.278h-.7V72h3.775l.523 2.38c1.394-1.5 2.323-2.614 4.472-2.614a3.02 3.02 0 0 1 3.253 2.614c1.5-1.5 2.5-2.556 4.53-2.556a3.27 3.27 0 0 1 2.46.993 3.26 3.26 0 0 1 .91 2.492v6.74zm5.516-10.048l.407 2.5c.756-1.784 2.535-2.916 4.472-2.846 3.02 0 4.82 2.5 4.82 6.273s-2.1 6.62-5.053 6.62a4.19 4.19 0 0 1-4.182-2.439v5.866c0 .407.987 1.278 1.278 1.278h.813v.93h-6.5v-.93h.813c.348 0 1.278-.87 1.278-1.278V74.2c0-.407-.93-1.278-1.278-1.278h-.818v-.93zm.407 4.472v3.253a3.52 3.52 0 0 0 3.543 3.543c2.1 0 3.078-1.336 3.37-3.252.174-1.213.174-2.446 0-3.66-.232-1.975-1.336-3.194-3.078-3.194-2.1-.06-3.253 1.4-3.834 3.3zm36 6.912c-.348 0-1.336-.87-1.336-1.278v-6.853a3.34 3.34 0 0 0-3.427-3.485c-2.207 0-3.37 1.278-4.82 2.788l-.465-2.5h-3.9v.93h.755c.348 0 1.336.93 1.336 1.278v7.783c0 .407-.987 1.278-1.336 1.278h-1.5c-.348 0-1.336-.87-1.336-1.278v-6.68c0-2.44-1.975-3.66-4.588-3.66a6.31 6.31 0 0 0-4.937 1.917l1.626 2.5h.87c-.93-2.1-.232-3.485 1.86-3.485 2.207 0 2.9.987 2.9 2.73v1.5l-3.194.64c-1.742.348-4.008 1.22-4.008 3.66a3.22 3.22 0 0 0 3.136 3.369c1.8 0 3.136-1.452 4.124-2.73l.3 2.5h10.454v-.93h-.7c-.35 0-1.336-.87-1.336-1.278v-6.336c0-.813 2.265-2.556 4.008-2.556a1.89 1.89 0 0 1 1.975 2.091v6.737c0 .407-.987 1.278-1.336 1.278h-.7v.93h6.273v-.93h-.7zm-18.295-2.674a4.16 4.16 0 0 1-3.02 2.149 1.92 1.92 0 0 1-1.975-1.975c-.078-1.224.816-2.296 2.035-2.437l2.962-.755v3.018zm19.806-6.387c-.386-.6-.928-1.08-1.568-1.394h-.523V72h6.5v.93h-.755c-.35 0-1.1.87-1.1 1.336l2.846 6.563 2.788-6.563a1.83 1.83 0 0 0-1.045-1.336h-.755V72h4.937v.93h-.58c-.3 0-1.162.93-1.452 1.336l-4.183 9.467-3.078 6.8-1.1-.523 3.253-6.737z"/></svg>