<svg xmlns="http://www.w3.org/2000/svg" width="60" height="60" xmlns:v="https://vecta.io/nano"><path d="M34.4 23.732c-.727-1.48-2.16-2.484-3.8-2.66V18.58h-1.124v2.492a4.51 4.51 0 0 0-4.4 4.648c-.007.75.197 1.488.588 2.128.56.924 1.316 1.484 3.108 2.324l.7.336v8.68a4.49 4.49 0 0 1-3.416-1.6c-.428-.54-.767-1.142-1.004-1.788l-1.064.5c.263.753.67 1.447 1.2 2.044 1.055 1.274 2.634 1.997 4.288 1.964V43H30.6v-2.776a5.53 5.53 0 0 0 4.76-5.376c.034-1.474-.725-2.852-1.988-3.612a16.63 16.63 0 0 0-2.772-1.484v-7.56a4.04 4.04 0 0 1 2.912 2.3zm-3.8 7.336l1.652.868c1.115.556 1.82 1.694 1.82 2.94a4.31 4.31 0 0 1-3.472 4.224zm-1.12-1.876c-2.044-.84-3.108-1.848-3.108-3.528-.08-1.81 1.3-3.35 3.108-3.472z" fill="#201f24"/><path d="M30 0C13.43 0 0 13.43 0 30s13.43 30 30 30 30-13.43 30-30S46.57 0 30 0zm0 44.694c-8.115 0-14.694-6.58-14.694-14.694S21.885 15.306 30 15.306 44.694 21.885 44.694 30c0 3.897-1.548 7.635-4.304 10.4s-6.493 4.304-10.4 4.304z" fill="#ffba00"/><path d="M50.924 8.5L8.498 50.926" fill="none" stroke="#201f24"/></svg>