<svg xmlns="http://www.w3.org/2000/svg" width="64" height="64"><circle cx="32" cy="32" r="32" fill="#fff"/><path d="M22.746 36.23a3.36 3.36 0 1 1-3.36-3.363h3.36zm1.68 0a3.36 3.36 0 1 1 6.721 0v8.408a3.36 3.36 0 1 1-6.721 0z" fill="#e01e5a"/><path d="M27.786 22.726c-1.36.001-2.588-.817-3.1-2.074s-.234-2.704.727-3.666 2.408-1.25 3.665-.73 2.077 1.747 2.077 3.107v3.363zm.001 1.707c1.857 0 3.363 1.506 3.363 3.363s-1.506 3.363-3.363 3.363H19.36c-1.857 0-3.363-1.506-3.363-3.363s1.506-3.363 3.363-3.363z" fill="#36c5f0"/><path d="M41.254 27.796a3.36 3.36 0 1 1 3.36 3.363h-3.36zm-1.68.004a3.36 3.36 0 1 1-6.721 0v-8.437a3.36 3.36 0 1 1 6.721 0z" fill="#2eb67d"/><path d="M36.213 41.274c1.36-.001 2.588.817 3.1 2.074s.234 2.704-.727 3.666-2.408 1.25-3.665.73-2.077-1.747-2.077-3.107v-3.363zm0-1.682c-1.857 0-3.363-1.506-3.363-3.363s1.506-3.363 3.363-3.363h8.426c1.857 0 3.363 1.506 3.363 3.363s-1.506 3.363-3.363 3.363z" fill="#ecb22e"/></svg>