<svg xmlns="http://www.w3.org/2000/svg" width="242" height="130"><path d="M39 49h35.8v32.1H39zm19.443 22.312V59.004h-4.35V74.27s7.177.13 10.482 0a5.87 5.87 0 0 0 5.785-4.7 18.91 18.91 0 0 0 .13-9.352c-.347-2.044-1.807-3.723-3.784-4.35-1.045-.31-2.13-.47-3.22-.478-6.7-.044-20.878 0-20.878 0v2.784h6.133v16.093h4.263v-16.1h9.265c.865-.104 1.736.14 2.422.678s1.13 1.327 1.232 2.192c.412 1.856.5 3.768.26 5.654a13.91 13.91 0 0 1-.7 2.958 2.56 2.56 0 0 1-2.088 1.7c-1.827-.044-4.958-.044-4.958-.044z" fill="#c9c9ca"/><path d="M100.503 68.53v-9.7h4.435v1.438a3.61 3.61 0 0 1 3.262-1.7 3.23 3.23 0 0 1 3.22 1.566 3.8 3.8 0 0 1 3.784-1.566 2.67 2.67 0 0 1 2.827 2.914l.044 5.96v1.087h-4.736v-6.05c-.043-.6-.348-.914-.87-.914-.48.044-.783.3-.783.957v6h-4.747V63.13a5.29 5.29 0 0 0-.043-.827.72.72 0 0 0-.783-.74.78.78 0 0 0-.827.74 4.7 4.7 0 0 0-.044.783v5.48l-4.738-.038zm-17.53.043l1.6-4.524 2.87-8.177c.13-.348.26-.478.652-.478h6.48l4.7 13.136H94.46c-.348 0-.522-.087-.6-.435a15.96 15.96 0 0 0-.653-2.044c-.083-.195-.267-.33-.478-.348-1.174-.044-2.35 0-3.523-.044-.3 0-.435.087-.478.392l-.6 2.088c-.043.13-.217.348-.348.348l-4.787.086zm6.568-6.046h2.914l-1.392-4.176h-.13l-1.392 4.176zm101.518 6.045h-4.35v-1.566c-.053.03-.113.046-.174.044a3.18 3.18 0 0 1-3.393 1.783c-1.447-.005-2.756-.855-3.35-2.175-.817-1.784-.88-3.823-.174-5.654a3.92 3.92 0 0 1 6.7-1V54.48h4.74zm-4.48-5l-.3-1.48a.96.96 0 0 0-1-.652 1 1 0 0 0-.957.609 4.2 4.2 0 0 0 0 2.914 1 1 0 0 0 1 .653c.444.02.843-.27.957-.7.15-.436.25-.887.3-1.346zm-13.3-1.262c-.034-.675-.586-1.207-1.26-1.218a6.57 6.57 0 0 0-3.87.478c-.174.044-.3.13-.48.174-.048.006-.096-.01-.13-.043v-2.35a.49.49 0 0 1 .3-.348 12.83 12.83 0 0 1 7.133-.043 3.35 3.35 0 0 1 2.653 3.479v6.1h-4.393V67.3h-.13c-1.174 1.522-2.784 1.7-4.524 1.26a2.49 2.49 0 0 1-2.13-2.218 3.1 3.1 0 0 1 1.48-3.35c.9-.483 1.927-.737 2.958-.74l2.392.044zm0 1.87l-2 .348c-.478.13-.6.565-.565 1.088a.88.88 0 0 0 .826.739c1.13.087 1.87-.74 1.74-2.174zm-42.755.6h-6.568a1.23 1.23 0 0 0 1.044 1.348c1.188.3 2.43.275 3.6-.044l1.088-.3V68.1c0 .087-.174.217-.26.26-2.187.608-4.5.653-6.7.13a4.56 4.56 0 0 1-3.48-4.393 5.63 5.63 0 0 1 .044-1.479 4.12 4.12 0 0 1 2.827-3.567 9.07 9.07 0 0 1 4.567-.348c1.683.214 3.045 1.47 3.392 3.13a19.9 19.9 0 0 1 .437 2.956zm-4.175-2.1a2.11 2.11 0 0 0-.609-1.74.98.98 0 0 0-1.218 0 1.97 1.97 0 0 0-.652 1.74zm77.116 2.045h-6.437a1.21 1.21 0 0 0 .288.934c.223.257.545.407.886.414a13.09 13.09 0 0 0 2.61.087 17.55 17.55 0 0 0 1.957-.39v2.436c-2.48.522-5 .914-7.48 0a4.32 4.32 0 0 1-2.915-4c-.058-.668-.028-1.34.087-2 .163-1.407 1.105-2.602 2.436-3.088a8.32 8.32 0 0 1 5.437-.392c1.87.48 2.957 2 3.175 4.263l-.042 1.737zm-6.524-2.088h2.48c-.043-.7 0-1.435-.7-1.74a1.39 1.39 0 0 0-1.174.043 1.64 1.64 0 0 0-.605 1.698zM154.22 58.8h2.13v2.783h-2.092v3.175a.96.96 0 0 0 .343.695c.207.173.476.253.744.22.3 0 .6-.087 1-.087v2.566a.32.32 0 0 1-.26.26 8.73 8.73 0 0 1-3.958.348 2.81 2.81 0 0 1-2.566-2.653 35.13 35.13 0 0 1-.087-3.7v-.783h-1.653V58.83h1.653v-1.914a.63.63 0 0 1 .3-.479l4.045-1.26a2.96 2.96 0 0 1 .39-.087v3.7zm-14.267-.188c0 .13.044.217.044.348v3.566l-.522-.087a2.55 2.55 0 0 0-3 2.567v3.523h-4.7v-9.7h4.393v1.957c.87-1.522 1.914-2.523 3.784-2.175zm22.53 9.918h-4.7v-9.743h4.35v1.957c.044.044.087.044.087.087.74-1.522 1.783-2.6 3.7-2.218v3.87c-.174-.044-.348-.044-.48-.087-.75-.134-1.518.078-2.092.576s-.893 1.23-.866 2v3.567zm-15.964 0h-4.654v-9.746h4.654zm-4.697-10.875V54.48h4.65v3.175z" fill="#8f8e91"/></svg>