<svg xmlns="http://www.w3.org/2000/svg" width="242" height="130" fill-rule="evenodd"><path d="M159.63 71.827c1.572-1.093.234-3.026-1.542-2.16-24.758 12.087-49.457 12.192-74.593.18-4-1.912-3.584 1.16-1.937 2.234 28.3 18.47 53.994 16.493 78.07-.255" fill="#c9c9ca"/><path d="M68.853 49.007l1.807-.034a7.9 7.9 0 0 1 5.421 1.941 6.47 6.47 0 0 1 1.807 5.087 6.3 6.3 0 0 1-3.514 5.689 10.05 10.05 0 0 1-5.555.837zm25.787 8.635a29.34 29.34 0 0 0-3.732-8.234c-1.653 2.54-2.912 5.316-3.733 8.234zm-5.773-12.017h4.284c4.16 4.6 6.706 11.3 7.564 20.18h-4.652q-.18-2.315-.565-4.45h-9.184a43.94 43.94 0 0 0-.559 4.451h-4.518c1.05-9.054 3.545-15.854 7.63-20.18zm12.617 20.18h4.418V52.052c4.187 3.69 7.297 8.442 9 13.756h3.95V45.625h-4.418v9.738a43.29 43.29 0 0 0-9.236-9.738h-3.713zm39.732 0h4.418V52.052a30.91 30.91 0 0 1 9 13.756h3.95V45.625h-4.418v9.738a43.28 43.28 0 0 0-9.238-9.738h-3.715zm-11.2-20.808c5.626 0 10.188 4.822 10.188 10.77s-4.562 10.77-10.188 10.77-10.187-4.822-10.187-10.77S124.4 45 130.015 45zm0 3.992c3.352 0 6.072 3.035 6.072 6.778s-2.72 6.778-6.072 6.778-6.07-3.036-6.07-6.778 2.717-6.776 6.07-6.776zm44.13 4.9h-10.01c.268-2.712 2.468-4.827 5.19-4.987 2.632.016 4.697 1.834 4.82 4.99zm3.782 8.1l-4.25-1.038c-1.076 1.11-2.57 1.72-4.117 1.673-3.284-.06-4.916-2-5.522-5.188h14.058c.2-1.15.267-2.317.2-3.48a10.8 10.8 0 0 0-2.276-6.224c-1.42-1.794-3.67-2.734-6.693-2.71-2.647-.064-5.195 1.01-7 2.946-1.726 1.833-2.76 4.628-2.71 8.266.046 3.456.926 6.028 3.08 8.133a8.37 8.37 0 0 0 6.158 2.242 10.82 10.82 0 0 0 9.072-4.615zM64.002 45.5s.47 1.272.47 5.89l-.066 10.14c0 2.94-.168 4.552-.168 4.552a26.2 26.2 0 0 0 5.321.469 14.39 14.39 0 0 0 8.769-2.845c2.556-2.076 3.973-5.245 3.815-8.534 0-4.384-1.874-6.794-4.35-8.367s-6.26-1.874-9.17-1.74a43.85 43.85 0 0 0-4.621.437z" fill="#8f8e91"/></svg>