<svg xmlns="http://www.w3.org/2000/svg" width="242" height="130"><path d="M110.48 48.8v17.985a1.89 1.89 0 0 1-1.887 1.845 1.89 1.89 0 0 1-1.888-1.845V48.8H94.474v21.095c0 3.8 1.272 8.6 7.166 10.174 5.874 1.554 9.245-1.7 9.245-1.7-.323 2.14-2.3 3.714-5.55 4.037a17.12 17.12 0 0 1-7.145-1.227V92.36a25.5 25.5 0 0 0 12.334.747c7.49-1.433 12.212-7.69 12.212-16.048V48.718H110.48m46.808 15.826v-3.492h3.8V48.84h-4.16a16.34 16.34 0 0 0-32.3 3.492v28.524c2.94.48 5.945-.336 8.236-2.24 2.7-2.22 3.936-5.914 3.936-9.366v-1.07h6.177V55.945h-6.174V52.25a4.16 4.16 0 0 1 4.159-4.159 4.16 4.16 0 0 1 4.159 4.159v12.253a16.36 16.36 0 0 0 16.331 16.351V68.662a4.13 4.13 0 0 1-4.163-4.118zM80 36.95h12.374v33.206c0 5.268 2.382 8.377 4.32 9.71-2.02 1.756-8.135 3.33-12.758-.464-2.7-2.22-3.936-5.915-3.936-9.366z" fill="#8f8e91"/></svg>