<svg xmlns="http://www.w3.org/2000/svg" width="242" height="130"><path d="M55.174 55.145c.052.052 0-10.983 0-10.983H91.31v10.983" fill="#c9c9ca"/><path d="M55.174 55.145l-.057.06.057.023c.024 0 .046-.01.062-.028l.018-.033.006-.04c.015-.2.02-1.4.02-2.938l-.022-8.025h-.08v.08h36.135v-.08h-.077v10.983h.08v-.08H55.174v.082l-.057.06.057-.06v-.082.163h36.22V44.08h-36.3v.882l.018 7.228-.005 2.1-.007.622v.204l.037.005-.035-.01v.005l.037.005-.035-.01.072.02-.065-.038-.007.017.072.02-.065-.038.07.04-.052-.06-.017.02.07.04-.052-.06.052.062v-.08l-.052.02.052.062.056-.058-.056-.023v.08l.056-.058-.024-.023h-.033z" fill="#8f8e91"/><path d="M82.257 46.9h.984c.72-.164.984-.582 1.723-.582.532 0 .782.353 1.173.353.33 0 .837-.377 1.393-.377s.85.342 1.223.5c.395.12.8.167 1.22.134v.8c0 .275.38.17.38.63 0 .483-.5.388-.5.583l-.018 1.795c.025.224.477.253.477.594 0 .506-.5.33-.47.73.024.294 0 .918 0 .918l-7.525.046a5.03 5.03 0 0 1 .145-.946c.018-.26-.562-.418-.562-.853 0-.3.348-.283.378-.565v-1.8c-.018-.235-.543-.353-.525-.688.022-.4.5-.35.5-.618l.006-.665m-16.347 6.605c.087.395.452.666.856.635a4.19 4.19 0 0 0 2.224-1.012c.464-.227.77-.685.806-1.2l-.073.235s.684-.683 2.37-.14c.468.15 2.474 1.277 2.908 1.46 1.1.686 2.433.948 3.72.735a2.86 2.86 0 0 0 2.42-3.639c-.5-2.294-.343-2.457-.154-3.193-.073-.035-1.906-.447-1.857 2.1-.794.083-1.8.683-1.15 2.26a1.5 1.5 0 0 1 1.124-.824c.312 0 .64.448.66.777.05.8-.757 1.153-1.76 1-.508-.083-.976-.646-1.676-1.153.122-.06.234-.47.234-.636 0-.406-.348-.594-.586-.73a1.74 1.74 0 0 0 .146-.471c0-.324-.458-.3-.635-.423.073-.1.073-.04.073-.2 0-.47.073-.73-.88-.706.08-.465-.018-.765-.342-.895l-.7-.094c-.44-.082 0-.23-.407-.62-.362-.35-.958 0-.958 0a.57.57 0 0 0-.177-.428c-.117-.11-.276-.167-.437-.153a1.51 1.51 0 0 0-.611.094l-.293.236c-.367 0-.46-.33-.88-.33s-.592.33-.757.54c-.287-.135-.324-.377-.7-.377-.226 0-.293.24-.4.353-.25.276-.233.563-.624.7l-.145-.256-.013-.048c-.575.276-1.87 3.23-1.87 3.837 0 .577.5.324.5.942 0 .365-.537.63-.537.94 0 .394.458.588.855.588m-9.636-6.475h.983c.72-.165.984-.583 1.723-.583.53 0 .782.353 1.173.353.33 0 .837-.376 1.393-.376s.85.34 1.222.5a3.28 3.28 0 0 0 1.222.134v.8c0 .275.38.17.38.63 0 .482-.5.388-.5.583l-.018 1.8c.024.224.476.253.476.594 0 .506-.5.33-.47.73.024.295 0 .918 0 .918-.972 0-7.087.006-7.393-.006l.012-.895c.018-.26-.562-.418-.562-.853 0-.3.35-.283.38-.565v-1.794c-.018-.235-.544-.353-.525-.7.022-.4.5-.35.5-.618l.006-.665" fill="#fff"/><g fill="#8f8e91"><path d="M104.173 70.927v-9.214a38.21 38.21 0 0 0 5.067.346c7.486 0 11.633-3.052 11.633-8.523 0-4.55-3.686-9.386-12.785-9.386H96.053v.98c2.764 0 3.743 1.2 3.743 5.24v20.673c0 4.377-1.44 5.125-3.743 5.125v.98h11.864v-.98c-2.766 0-3.744-1.154-3.744-5.24zm0-25.5h4.1c6.046 0 8 4.722 8 8.234 0 4.492-3.1 7.14-8 7.14-1.388.08-2.777-.116-4.1-.576zm25.572 30.74c-2.764 0-8.234-2.3-8.12-11.46h14.973c.288-4.722-4.088-8.523-8.8-8.523-5.758 0-10.25 4.838-10.25 11s4.607 10.6 11 10.6c3.57 0 5.932-1.2 8.408-4.376v-1.5c-2.943 3.284-4.383 4.258-7.2 4.258zm-2.48-18.774c2.592 0 5.644 1.842 5.47 6.334H121.62c.23-3.798 2.247-6.334 5.644-6.334zm56.375 15.32V63.5c0-4.895-3.513-7.313-6.9-7.313-2.6 0-4.952 1.325-7.37 4.1v-4.1h-.98l-6.335.634v.98c2.765 0 3.4.518 3.4 2.994v11.46c0 3.645-.68 3.9-3.314 3.915-2.85-.006-3.423-.816-3.423-3.455V63.5c0-4.895-3.512-7.313-6.9-7.313-2.6 0-4.952 1.325-7.37 4.1v-4.1h-.98l-6.334.634v.98c2.764 0 3.4.518 3.4 2.994v11.46c0 3.685-.692 3.915-3.4 3.915v.98h10.768v-.98c-3.052 0-3.455-.806-3.455-3.915v-9.96c2.015-2.707 3.8-3.973 5.816-3.973a4.37 4.37 0 0 1 4.549 4.664V73.64c0 1.9-.75 2.533-3.513 2.533v.98h21.537v-.98c-3.052 0-3.456-.806-3.456-3.915v-9.963c2.016-2.707 3.8-3.973 5.817-3.973a4.37 4.37 0 0 1 4.549 4.66v10.654c0 1.9-.748 2.533-3.512 2.533v.98h10.882v-.98c-2.88 0-3.455-.806-3.455-3.455zM99.2 80.44c.307.032.53.124.56.36a2.49 2.49 0 0 1 .039.353v1.816c0 1.045-.47 1.646-1.365 1.646-.973 0-1.22-.7-1.22-1.613v-1.914c0-.608-.026-.575.562-.647v-.17H96.03v.17c.588.072.562.04.562.647v1.947c0 1.182.43 1.888 1.823 1.888a1.71 1.71 0 0 0 1.738-1.928v-1.842c.005-.118.018-.236.04-.353.033-.235.248-.327.562-.36v-.17H99.2zm4.65 1.007c.333.025.5.1.53.277a1.94 1.94 0 0 1 .03.272v2.072h-.01l-2.283-2.752h-.917v.13a.71.71 0 0 1 .585.342v2.375a1.88 1.88 0 0 1-.031.271c-.025.182-.2.253-.433.277v.13h1.235v-.13c-.333-.024-.5-.1-.53-.277a2 2 0 0 1-.03-.271v-2.228l2.454 2.908h.172v-2.848a1.94 1.94 0 0 1 .03-.272c.025-.182.2-.252.434-.277v-.13h-1.235zm2.263 0c.454.055.434.03.434.5v2.268c0 .47.02.444-.434.5v.13h1.356v-.13c-.453-.055-.434-.03-.434-.5v-2.268c0-.47-.02-.443.434-.5v-.13h-1.356zm4.537 0c.343 0 .474.157.348.474l-.942 2.318-.75-2.228c-.166-.483.036-.564.313-.564v-.13h-1.37v.13c.242 0 .4.157.584.7l.958 2.7h.258l1.275-3.094c.056-.183.227-.306.418-.3v-.13h-1.1zm3.442 3.237c-.453 0-.65-.035-.65-.463v-1.137h.423c.338 0 .453.177.464.474h.13v-1.074h-.13c-.01.313-.146.44-.464.44h-.423v-1.44h.685c.363 0 .464.277.515.65h.13v-.812h-2.253v.13c.453.055.434.03.434.5v2.268c0 .47.02.444-.434.5v.13H115l.15-.908h-.13c-.237.534-.2.74-.928.74zm4.1-.732l-.494-.75a1.08 1.08 0 0 0 .705-1.029.9.9 0 0 0-1.018-.857h-1.467v.13c.454.055.434.03.434.5v2.268c0 .47.02.444-.434.5v.13h1.356v-.13c-.454-.055-.434-.03-.434-.5v-.93h.474c.6 1.013.77 1.563 1.07 1.563h.52v-.063a3.42 3.42 0 0 1-.71-.832zm-.933-.83h-.418v-1.644h.388c.368 0 .67.192.67.74-.003.566-.208.903-.643.903zm3.805-.222c-.5-.378-.858-.6-.858-.943a.5.5 0 0 1 .555-.524.63.63 0 0 1 .635.635h.13v-.66l-.035-.055a2.41 2.41 0 0 0-.705-.1c-.58 0-1.084.358-1.084.8a1.03 1.03 0 0 0 .61.928c.756.5.932.766.932 1.094a.61.61 0 0 1-.2.457c-.132.12-.288.186-.46.183a.78.78 0 0 1-.811-.781h-.132v.726c-.003.03.01.057.036.07a2.36 2.36 0 0 0 .861.16c.605 0 1.22-.333 1.22-.932.001-.415-.17-.672-.704-1.07zm1.6-1.453c.454.055.434.03.434.5v2.268c0 .47.02.444-.434.5v.13h1.356v-.13c-.453-.055-.432-.03-.432-.5v-2.268c0-.47-.02-.443.432-.5v-.13h-1.356zm2.21-.13l-.136.77h.127c.166-.333.267-.6.706-.6h.453v2.737c0 .47.02.444-.434.5v.13h1.357v-.13c-.454-.055-.434-.03-.434-.5v-2.737h.453c.44 0 .54.277.706.6h.127l-.136-.77zm5.59.13c.3 0 .46.146.288.453l-.7 1.265-.6-1.265c-.126-.262-.16-.453.222-.453v-.13h-1.278v.13c.232 0 .372.126.54.453l.777 1.538v.776c0 .47.02.444-.434.5v.13h1.356v-.13c-.453-.055-.434-.03-.434-.5v-.564a.87.87 0 0 1 .061-.368l.84-1.527c.136-.242.272-.307.413-.307v-.13h-1.04zm5.163.053c-1.1 0-1.83 1.28-1.83 2.137 0 .614.228 1.287 1.064 1.287 1.248 0 1.823-1.53 1.823-2.247 0-.6-.188-1.177-1.058-1.177zm-.685 3.227c-.483 0-.543-.613-.543-.953 0-.85.464-2.117 1.17-2.117.1 0 .515.026.515.706 0 1.135-.398 2.364-1.147 2.364zm3.494-3.147h-.614l-.058.274h.62l-.935 4.62h.294a39.16 39.16 0 0 0 1.215-4.619h.856l.156-.137.026-.137h-.96l.07-.314c.157-.7.45-.974.843-.974a.68.68 0 0 1 .575.379l.163-.08.08-.43a1.12 1.12 0 0 0-.562-.118 1.87 1.87 0 0 0-1.769 1.537zm6.035-1.3h-1.7v.17c.588.072.562.04.562.647v2.94c0 .607.026.575-.562.647v.17h1.757v-.17c-.588-.072-.56-.04-.56-.647V80.48h.4a.94.94 0 0 1 1.084 1.072c.04.33-.072.66-.307.893a1.08 1.08 0 0 1-.893.307v.13c1 .06 1.85-.45 1.85-1.4.003-.8-.533-1.22-1.618-1.22z"/><path d="M148.576 84.684c-.453 0-.65-.035-.65-.463v-1.137h.423c.338 0 .454.177.464.474h.13v-1.074h-.13c-.01.313-.146.44-.464.44h-.423v-1.44h.685c.363 0 .463.277.514.65h.13v-.812h-2.253v.13c.454.055.434.03.434.5v2.268c0 .47.02.444-.434.5v.13h2.48l.152-.908h-.13c-.23.534-.196.74-.928.74zm4.46-3.237c.334.025.5.1.53.277a2 2 0 0 1 .03.272v2.072h-.01l-2.283-2.752h-.917v.13c.24.007.46.136.584.342v2.375c-.003.1-.013.182-.03.27-.025.182-.192.253-.433.277v.13h1.234v-.13c-.333-.024-.5-.1-.53-.277a1.94 1.94 0 0 1-.03-.271v-2.228l2.455 2.908h.17v-2.848a1.88 1.88 0 0 1 .031-.272c.025-.182.2-.252.433-.277v-.13h-1.235zm4.52 0c.334.025.5.1.53.277a2.06 2.06 0 0 1 .03.272v2.072h-.01l-2.284-2.752h-.917v.13c.24.007.46.136.584.342v2.375c-.003.1-.013.182-.03.27-.025.182-.2.253-.432.277v.13h1.23v-.13c-.333-.024-.5-.1-.53-.277a2.05 2.05 0 0 1-.03-.271v-2.228l2.454 2.908h.17v-2.848a1.88 1.88 0 0 1 .031-.272c.024-.182.2-.252.433-.277v-.13h-1.23zm3.546 1.453c-.5-.378-.857-.6-.857-.943a.5.5 0 0 1 .555-.524.63.63 0 0 1 .452.183.62.62 0 0 1 .183.452h.13v-.66l-.035-.055a2.35 2.35 0 0 0-.706-.1c-.58 0-1.083.358-1.083.8a1.03 1.03 0 0 0 .609.928c.757.5.933.766.933 1.094a.61.61 0 0 1-.2.457c-.132.12-.288.186-.46.183a.78.78 0 0 1-.811-.781h-.13v.726c-.003.028.01.056.035.07a2.37 2.37 0 0 0 .863.16c.605 0 1.22-.333 1.22-.932.002-.415-.173-.672-.708-1.07zm3.565-1.453c.3 0 .458.146.287.453l-.7 1.265-.6-1.265c-.127-.262-.16-.453.222-.453v-.13h-1.285v.13c.232 0 .373.126.54.453l.776 1.538v.776c0 .47.02.444-.434.5v.13h1.356v-.13c-.453-.055-.433-.03-.433-.5v-.564a.87.87 0 0 1 .06-.368l.842-1.527c.135-.242.27-.307.413-.307v-.13h-1.04zm3.433 3.237c-.448 0-.645-.035-.645-.388v-2.35c0-.47-.02-.443.434-.5v-.13h-1.357v.13c.455.055.434.03.434.5v2.268c0 .47.02.444-.434.5v.13h2.475l.152-.907h-.127c-.23.538-.2.745-.932.745zm4.937-3.368h-1.1v.13c.344 0 .475.157.348.474l-.942 2.318L170.59 82c-.166-.483.036-.564.313-.564v-.13h-1.37v.13c.242 0 .4.157.584.7l.958 2.7h.257l1.276-3.094c.056-.183.227-.306.418-.3zm2.84 2.954l-1.028-3.014h-.283l-1.224 3.205c-.063.147-.204.245-.363.252v.13h.917v-.13a.25.25 0 0 1-.233-.107c-.053-.077-.06-.174-.02-.256l.23-.675h1.285l.217.65c.08.22.05.388-.267.388v.13h1.174v-.13c-.215 0-.3-.16-.407-.443zm-1.926-.786l.6-1.64h.01l.536 1.64zm5.616-2.037c.333.025.5.1.53.277a1.9 1.9 0 0 1 .03.272v2.072h-.01l-2.284-2.752h-.917v.13a.71.71 0 0 1 .584.342v2.375c-.004.1-.014.18-.03.27-.025.182-.2.253-.434.277v.13h1.236v-.13c-.333-.024-.5-.1-.53-.277a1.77 1.77 0 0 1-.03-.27v-2.228l2.454 2.908h.17v-2.848a2 2 0 0 1 .03-.272c.025-.182.2-.252.434-.277v-.13h-1.236zm2.066 0c.453.055.434.03.434.5v2.268c0 .47.02.444-.434.5v.13h1.355v-.13c-.453-.055-.434-.03-.434-.5v-2.268c0-.47-.02-.443.434-.5v-.13h-1.355zm5.027 2.823l-1.03-3.014h-.283l-1.225 3.205a.42.42 0 0 1-.363.252v.13h.918v-.13c-.1.01-.18-.032-.233-.107s-.06-.173-.02-.256l.232-.675h1.286l.216.65c.08.22.05.388-.266.388v.13h1.174v-.13c-.216 0-.292-.16-.407-.443zm-1.925-.786l.6-1.64h.01l.534 1.64zM82.06 48.698a.68.68 0 0 1 .107.1l.036.074v1.776a.21.21 0 0 1-.052.119 2.06 2.06 0 0 1-.187.156.38.38 0 0 0-.139.3.74.74 0 0 0 .31.548l.187.172c.036.03.06.075.066.122v.007a1.41 1.41 0 0 1-.07.328 2.53 2.53 0 0 0-.073.621v.08h.315l7.372-.047v-.08l.01-.552-.01-.376v-.03a.16.16 0 0 1 .05-.13c.046-.048.144-.084.242-.157a.47.47 0 0 0 .18-.406.4.4 0 0 0-.089-.256 1.07 1.07 0 0 0-.262-.21c-.034-.02-.066-.047-.094-.075l-.032-.062.018-1.796a.24.24 0 0 1 .08-.048.88.88 0 0 0 .254-.144c.103-.098.158-.237.15-.38a.56.56 0 0 0-.07-.295.67.67 0 0 0-.223-.2l-.064-.058c-.015-.023-.023-.05-.02-.078l-.005-.5.005-.3v-.085h-.216c-.358.025-.717-.018-1.058-.127-.182-.093-.36-.195-.53-.306-.22-.13-.47-.2-.725-.2a2.24 2.24 0 0 0-.81.194 1.98 1.98 0 0 1-.582.182 1.13 1.13 0 0 1-.5-.168 1.45 1.45 0 0 0-.676-.185 1.87 1.87 0 0 0-.9.238 3.43 3.43 0 0 1-.829.344H82.18l-.01.068v.118l-.008.564c0 .036-.017.07-.046.092-.05.046-.15.088-.246.16-.12.083-.194.217-.2.362v.02a.41.41 0 0 0 .1.259 1.64 1.64 0 0 0 .291.243zm3.96 3h-.007V51.3h.01zm.754-5.15a2.07 2.07 0 0 1 .751-.182 1.26 1.26 0 0 1 .645.18c.176.114.358.22.545.314.108.043.22.074.335.092v4.67a11.83 11.83 0 0 1-1.654-.142 7.46 7.46 0 0 0-1.2-.326h-.02v-4.418a2.36 2.36 0 0 0 .604-.186zm-3.52.42a3.52 3.52 0 0 0 .873-.36 1.71 1.71 0 0 1 .832-.221 1.29 1.29 0 0 1 .6.168c.143.08.297.14.458.173v4.5l-.01-.03-.01-.018-.018-.02-.05-.017h-.01a7.46 7.46 0 0 0-1.2.326c-.524.1-1.055.134-1.586.132v-1.448l-.005-3.2h.1zm-1.415 1.208a.29.29 0 0 1 .067-.18.93.93 0 0 1 .235-.166.49.49 0 0 0 .126-.1c.04-.05.063-.1.062-.174l.008-.564.636-.02v3.192l-.006 1.783h2.716a.23.23 0 0 0-.008.057.29.29 0 0 0 .135.233.54.54 0 0 0 .573 0 .29.29 0 0 0 .134-.233c0-.02-.003-.038-.008-.057h1.56l1.074-.012.074-.007v-.074l-.006-4.875.624.024h.048v.2l.005.5c-.002.078.028.154.083.2.072.07.15.1.2.153.07.07.105.168.094.267a.35.35 0 0 1-.06.22c-.06.068-.138.118-.225.146a.6.6 0 0 0-.127.068.19.19 0 0 0-.076.148h0l-.018 1.805a.3.3 0 0 0 .113.192c.08.07.177.117.25.177a.27.27 0 0 1 .115.216.35.35 0 0 1-.058.218.73.73 0 0 1-.226.162c-.05.03-.095.068-.13.115-.04.06-.06.13-.058.2v.043c.008.094.01.227.01.362l-.008.468-7.36.047a2.21 2.21 0 0 1 .064-.5 1.47 1.47 0 0 0 .077-.359v-.018a.35.35 0 0 0-.11-.233c-.088-.095-.205-.18-.3-.277a.48.48 0 0 1-.156-.332.2.2 0 0 1 .039-.127 1 1 0 0 1 .177-.151c.1-.066.15-.167.162-.278v-1.8c-.01-.082-.05-.157-.114-.2-.085-.082-.194-.15-.277-.224-.077-.054-.126-.14-.135-.232zM65.244 52.8a.59.59 0 0 0 .318.512 1.09 1.09 0 0 0 .275.112l-.006.05v.03a.91.91 0 0 0 .317.505.97.97 0 0 0 .618.19 4.25 4.25 0 0 0 2.27-1.027h0c.2-.137.402-.302.568-.5.13-.156.216-.344.252-.544a1.8 1.8 0 0 1 1.035-.267 3.86 3.86 0 0 1 1.176.2 15.4 15.4 0 0 1 1.454.712l1.447.745c.144.06.475.27.952.46a5.05 5.05 0 0 0 1.881.364 5.36 5.36 0 0 0 .93-.083h0a3.71 3.71 0 0 0 1.289-.485 2.62 2.62 0 0 0 1.3-2.348 4.26 4.26 0 0 0-.1-.9 11.14 11.14 0 0 1-.333-2.163 3.4 3.4 0 0 1 .178-.992l.017-.065-.06-.03-.053-.017c-.114-.025-.23-.038-.346-.037a1.45 1.45 0 0 0-1.006.377 2.29 2.29 0 0 0-.57 1.747v.03a1.8 1.8 0 0 0-.881.36 1.29 1.29 0 0 0-.481 1.043 2.51 2.51 0 0 0 .219.957l.058.14.085-.126a2.6 2.6 0 0 1 .462-.545c.162-.15.373-.236.594-.243a.52.52 0 0 1 .376.234.9.9 0 0 1 .2.466v.063c.008.26-.118.504-.333.65a1.54 1.54 0 0 1-.881.23 2.81 2.81 0 0 1-.452-.038 1.7 1.7 0 0 1-.729-.4l-.837-.68.036-.053a1.47 1.47 0 0 0 .156-.575c0-.2-.082-.4-.228-.525-.102-.094-.216-.175-.34-.24a1.32 1.32 0 0 0 .127-.436.33.33 0 0 0-.1-.243c-.1-.077-.2-.13-.316-.156l-.173-.053.024-.077v-.26a1.06 1.06 0 0 0-.021-.246.4.4 0 0 0-.236-.281c-.2-.068-.4-.097-.6-.085h-.026a1.67 1.67 0 0 0 .018-.2.83.83 0 0 0-.1-.426.63.63 0 0 0-.319-.264h-.01l-.715-.1a.33.33 0 0 1-.142-.047c-.007-.008-.007 0-.008-.035v-.08a.58.58 0 0 0-.218-.437.65.65 0 0 0-.466-.178 1.23 1.23 0 0 0-.478.111.63.63 0 0 0-.173-.344.7.7 0 0 0-.511-.193 1.56 1.56 0 0 0-.649.1h-.007l-.274.22a.65.65 0 0 1-.349-.148.84.84 0 0 0-.506-.179c-.198-.002-.4.075-.53.214a2.07 2.07 0 0 0-.25.3 1.92 1.92 0 0 1-.243-.2.64.64 0 0 0-.443-.156.38.38 0 0 0-.308.166c-.063.084-.106.173-.144.214h0a2.33 2.33 0 0 0-.267.414.57.57 0 0 1-.26.238 2.01 2.01 0 0 1-.084-.253l-.037.01-.02-.072-.1.043a1.87 1.87 0 0 0-.569.662 13.93 13.93 0 0 0-.9 1.8l-.32.858a2.25 2.25 0 0 0-.127.58c-.007.124.026.246.093.35a1.31 1.31 0 0 0 .278.236.41.41 0 0 1 .131.356.74.74 0 0 1-.248.436.86.86 0 0 0-.277.53zm12.752-.06a2.96 2.96 0 0 0 .479.041 1.7 1.7 0 0 0 .975-.259.92.92 0 0 0 .4-.782v-.073a1.05 1.05 0 0 0-.238-.558.7.7 0 0 0-.5-.3 1.08 1.08 0 0 0-.7.281 2.46 2.46 0 0 0-.4.455c-.095-.24-.148-.496-.155-.755-.013-.355.143-.695.42-.917a1.67 1.67 0 0 1 .868-.337l.075-.008v-.175a2.13 2.13 0 0 1 .519-1.628c.245-.222.565-.34.895-.332a1.53 1.53 0 0 1 .236.018l.027.005a3.21 3.21 0 0 0-.162.953c.04.743.152 1.48.337 2.2a4.1 4.1 0 0 1 .1.87c.032.905-.438 1.755-1.222 2.2a3.6 3.6 0 0 1-.847.374l-.28.07-.1.018a5.18 5.18 0 0 1-.905.081 4.87 4.87 0 0 1-1.82-.353c-.466-.185-.778-.385-.948-.458h0c-.208-.087-.82-.416-1.435-.74a15.27 15.27 0 0 0-1.48-.723 4.02 4.02 0 0 0-1.226-.212 2.11 2.11 0 0 0-.988.215v-.053l-.026-.07c-.023-.024-.052-.04-.084-.05-.124-.023-.25-.033-.376-.03H69.3l.025-.014.028-.018.016-.014c.213-.082.42-.18.617-.293a1.59 1.59 0 0 0 .3-.221c.083-.07.135-.168.144-.276-.002-.077-.036-.15-.093-.2a7.17 7.17 0 0 1-.622-.748c.1-.088.178-.197.23-.318.026-.052.066-.096.114-.128.075-.04.16-.06.245-.054.183.005.36.06.516.155a1.13 1.13 0 0 0 .56.174.95.95 0 0 0 .44-.15.91.91 0 0 1 .441-.132.63.63 0 0 1 .431.239.91.91 0 0 1 .229.595.81.81 0 0 1-.007.11l-.017.128.123-.04.027-.008a1.35 1.35 0 0 1 .337-.045.71.71 0 0 1 .468.148c.176.176.262.423.236.67v.2l.112-.038a1.16 1.16 0 0 1 .372-.073.38.38 0 0 1 .259.082.62.62 0 0 1 .166.355l.074.45a.35.35 0 0 0 .178.225c.116.063.24.084.322.14s.14.122.143.33c0 .048-.004.097-.01.145l.162.02a1.2 1.2 0 0 0 .01-.165c.008-.13-.03-.26-.105-.368-.095-.1-.216-.168-.35-.2a.48.48 0 0 1-.129-.064c-.032-.025-.055-.06-.064-.1-.038-.15-.045-.392-.115-.6-.032-.1-.094-.208-.178-.285-.103-.083-.233-.126-.365-.12a1.25 1.25 0 0 0-.317.053c.02-.285-.087-.564-.3-.764-.163-.128-.367-.194-.574-.186a1.39 1.39 0 0 0-.3.032 1.09 1.09 0 0 0-.27-.714c-.135-.17-.336-.277-.553-.294a1.07 1.07 0 0 0-.516.151.82.82 0 0 1-.363.132.97.97 0 0 1-.484-.156 1.2 1.2 0 0 0-.592-.174.62.62 0 0 0-.331.078.64.64 0 0 0-.22.282.47.47 0 0 1-.147.185 1.27 1.27 0 0 0-.963-.38 1.01 1.01 0 0 0-.528.226c.06-.1.094-.216.1-.333a2.74 2.74 0 0 0-.37-1.234l-.042-.08a.29.29 0 0 1 .083-.124 3.03 3.03 0 0 1 1.317-.455c.502-.1 1-.138 1.52-.147h.143c.994.043 1.945.42 2.7 1.067a7.37 7.37 0 0 1 .714.7 1.79 1.79 0 0 0 .442.41h0a.52.52 0 0 1 .058.057c.23.252.852 1.128 1.545 1.893l-.01.01-.123.06.1.08c.345.25.636.516.907.733a1.84 1.84 0 0 0 .779.432zm-8.714-1.1l-.014.04.014-.04zm5.426-2.175h0zm-6.885-2.35a2.14 2.14 0 0 1 .25-.39h0c.06-.07.1-.157.15-.222.04-.06.106-.1.18-.1a.47.47 0 0 1 .339.119c.1.1.212.183.335.25l.06.028.04-.052c.082-.12.174-.235.274-.34a.58.58 0 0 1 .419-.169c.15.002.298.055.415.15a.78.78 0 0 0 .465.179h.03l.307-.246a1.47 1.47 0 0 1 .569-.084.54.54 0 0 1 .4.145.49.49 0 0 1 .136.354v.142l.123-.072.01-.005a1.15 1.15 0 0 1 .5-.139.49.49 0 0 1 .353.132c.16.157.165.242.168.32v.08a.2.2 0 0 0 .063.157.46.46 0 0 0 .22.085h0l.7.092a.46.46 0 0 1 .234.193.67.67 0 0 1 .078.343 1.6 1.6 0 0 1-.025.266l-.017.1h.214a.94.94 0 0 1 .6.117.23.23 0 0 1 .07.124.9.9 0 0 1 .017.207v.25l-.012.013-.044.054-.05.067.068.048a1.95 1.95 0 0 0 .4.147.41.41 0 0 1 .147.083c.034.033.052.08.05.127a1.77 1.77 0 0 1-.142.444l-.022.064.06.034a1.73 1.73 0 0 1 .366.251.55.55 0 0 1 .18.408 1.29 1.29 0 0 1-.067.332l-.026.07-1.025-1.245-.37-.472q-.073-.1-.126-.147a.34.34 0 0 0-.1-.083h0c-.147-.104-.278-.23-.388-.37a4.9 4.9 0 0 0-3.524-1.824h-.152a10 10 0 0 0-1.8.2 4.04 4.04 0 0 0-.861.263c-.106.047-.205.1-.292.186a.57.57 0 0 0-.06.073l-.206-.417a.74.74 0 0 0 .322-.316zm-1.88 4.733c.007-.13-.025-.26-.092-.37-.08-.097-.174-.18-.28-.245-.096-.08-.145-.202-.13-.326a3.12 3.12 0 0 1 .207-.789c.23-.63.5-1.24.8-1.834.136-.263.287-.517.453-.762a1.73 1.73 0 0 1 .281-.329l.1.16c.1.266.26.532.4.805a2.61 2.61 0 0 1 .352 1.16c-.03.2-.125.385-.27.528a5.47 5.47 0 0 1-.42.425l.1.126c.135-.1.346-.3.572-.48a1.25 1.25 0 0 1 .608-.328c.34-.02.67.12.893.374.214.288.444.564.688.827.026.02.04.05.043.084-.01.063-.044.12-.095.16-.27.212-.575.38-.9.492l.01.06-.013-.013-.018-.025c-.01.007-.067.037-.117.066l-.073.047-.033.03a.1.1 0 0 0-.026.068l.03.068.045.025a.9.9 0 0 0 .2.02l.364.008c.034 0 .062.005.086.01l-.067.215.043.026a1.15 1.15 0 0 1-.2.438 2.68 2.68 0 0 1-.536.46h0c-.6.54-1.368.9-2.176 1a.82.82 0 0 1-.518-.157.71.71 0 0 1-.23-.348l.188-.066-.005-.03a2.9 2.9 0 0 0 1.364-.221h0a5.08 5.08 0 0 0 .649-.406c.212-.14.388-.33.512-.552l-.15-.064a1.48 1.48 0 0 1-.46.485 4.9 4.9 0 0 1-.626.393 2.83 2.83 0 0 1-1.331.2v.032c-.18 0-.356-.046-.514-.132a.43.43 0 0 1-.239-.372c0-.106.1-.246.248-.4.16-.14.263-.33.292-.54zm.82.214h.482l.023-.02c.13-.112.3-.22.44-.323.066-.047.127-.1.183-.158.053-.05.085-.12.1-.193-.002-.04-.02-.08-.048-.1a1.33 1.33 0 0 0-.376-.231l-.263-.113-.014-.005h-.016a.53.53 0 0 0-.283.1.43.43 0 0 0-.189.355.84.84 0 0 0 .03.252c.013.032.022.066.024.1a.88.88 0 0 1-.051.233z"/><path d="M56.347 48.73a.69.69 0 0 1 .106.1l.037.074v1.776a.21.21 0 0 1-.052.119 2.01 2.01 0 0 1-.187.156c-.1.073-.14.184-.14.3a.74.74 0 0 0 .31.548l.187.172c.036.03.06.075.066.122v.006l-.01.222v.28l-.007.4v.08h.08l3.422.008h4.052v-.078l.01-.552-.01-.376v-.03a.16.16 0 0 1 .05-.13c.046-.048.144-.084.242-.157a.47.47 0 0 0 .18-.406.4.4 0 0 0-.089-.256 1.09 1.09 0 0 0-.262-.21.5.5 0 0 1-.094-.075l-.032-.06.018-1.797a.26.26 0 0 1 .082-.048.88.88 0 0 0 .254-.144.49.49 0 0 0 .15-.38.56.56 0 0 0-.07-.295.66.66 0 0 0-.223-.2l-.064-.058c-.015-.023-.022-.05-.02-.077l-.005-.5.005-.3v-.085h-.212a2.83 2.83 0 0 1-1.063-.127h0c-.182-.093-.36-.195-.53-.306-.22-.13-.47-.2-.724-.2a2.23 2.23 0 0 0-.811.194 1.96 1.96 0 0 1-.582.183c-.178-.016-.35-.073-.5-.168a1.44 1.44 0 0 0-.675-.185 1.87 1.87 0 0 0-.905.238 3.43 3.43 0 0 1-.829.345h-.972v.08h-.08v.1l-.008.564c0 .036-.017.07-.046.092-.05.046-.15.088-.246.16a.46.46 0 0 0-.2.362v.02a.41.41 0 0 0 .1.259 3.04 3.04 0 0 0 .298.238zm4.715-2.15a2.05 2.05 0 0 1 .75-.182c.227.001.45.063.645.18a6.01 6.01 0 0 0 .545.313h0c.108.043.22.074.335.092v4.67a12.05 12.05 0 0 1-1.654-.142 7.21 7.21 0 0 0-1.2-.326h-.02v-4.418c.207-.035.4-.098.6-.186zm-3.52.422a3.45 3.45 0 0 0 .873-.36 1.7 1.7 0 0 1 .832-.221 1.28 1.28 0 0 1 .6.168 1.59 1.59 0 0 0 .457.173v4.968H60.3v-.446l-.064-.01.06.022-.073-.027.078-.016v-.012l-.01-.018-.018-.02-.05-.017a7.11 7.11 0 0 0-1.21.326 9.17 9.17 0 0 1-1.587.132v-1.448l-.005-3.2h.1zM56.127 48.2c.001-.066.025-.13.067-.18a.92.92 0 0 1 .235-.165.48.48 0 0 0 .126-.1.27.27 0 0 0 .062-.174l.008-.564.636-.02v3.2l-.005 1.783h2.716a.23.23 0 0 0-.008.057c.003.095.054.182.134.233a.54.54 0 0 0 .573 0 .29.29 0 0 0 .134-.233c0-.02-.003-.038-.008-.057h1.56l1.074-.012.074-.007v-.075l-.007-4.875a6.19 6.19 0 0 0 .628.024h.044v.2l.005.5c-.002.078.027.154.082.2.072.07.15.1.2.153.07.07.105.168.094.267a.35.35 0 0 1-.06.219.51.51 0 0 1-.224.146.6.6 0 0 0-.127.068.19.19 0 0 0-.076.148h0l-.018 1.805a.3.3 0 0 0 .113.192c.08.068.177.117.25.177a.27.27 0 0 1 .115.216.35.35 0 0 1-.058.217.72.72 0 0 1-.226.161.43.43 0 0 0-.13.115c-.04.06-.06.13-.058.2v.043c.008.094.01.227.01.362l-.008.468H60.16c-1.522 0-2.97 0-3.335-.006v-.6l.01-.2v-.018a.35.35 0 0 0-.109-.233c-.088-.095-.206-.18-.3-.276a.48.48 0 0 1-.156-.332.2.2 0 0 1 .039-.127 1.03 1.03 0 0 1 .177-.152.4.4 0 0 0 .162-.278v-1.8c-.01-.08-.052-.156-.114-.2-.085-.082-.194-.15-.277-.224a.32.32 0 0 1-.134-.232zm11.44 5.015h0zM55 62.163v.066c0 7.453 3.825 13.082 7.908 16.848a30.67 30.67 0 0 0 5.888 4.26c.734.4 1.493.772 2.273 1.085a5.01 5.01 0 0 0 1.418.389h.035c.5-.048 1.012-.173 1.485-.37 3.884-1.585 7.416-3.922 10.393-6.878 3.76-3.716 6.98-8.847 7.088-15.32h0V44H55v18.163zm6.387 7.858c-.05-1.287.7-2.474 1.865-3a3.16 3.16 0 0 1 3.48.607c.928.893 1.22 2.26.738 3.455a3.16 3.16 0 0 1-2.928 1.977 3.1 3.1 0 0 1-3.155-3.038zm8.674-7.3c-.048-1.287.7-2.474 1.865-3s2.552-.285 3.48.608 1.22 2.26.738 3.454-1.64 1.976-2.928 1.976a3.1 3.1 0 0 1-3.155-3.039zM81.4 73.06a3.04 3.04 0 0 1-2.926-3.115 3.04 3.04 0 0 1 3.079-2.964 3.04 3.04 0 0 1 3.002 3.042 3.1 3.1 0 0 1-3.155 3.038zm-5.12 10a21.07 21.07 0 0 1-2.384 1.069 4.9 4.9 0 0 1-1.373.352H72.5a4.81 4.81 0 0 1-1.31-.367c-3.108-1.344-5.948-3.237-8.384-5.6L73.24 67.977l10 10.246-.678.6a33.45 33.45 0 0 1-6.274 4.245zM88.867 71.1L73.23 56.056l-15.907 15.04a20.56 20.56 0 0 1-2-8.866V55.3h35.84v6.94a19.6 19.6 0 0 1-2.297 8.857zm2.3-26.775v10.8h-35.84V44.318z"/></g></svg>