<svg xmlns="http://www.w3.org/2000/svg" width="280" height="130"><path d="M125.147 46.536v26.047c-.05 1.474-1.258 2.644-2.734 2.644s-2.685-1.17-2.733-2.644V46.536h-17.717v30.552c0 5.5 1.842 12.455 10.38 14.736 8.508 2.25 13.4-2.456 13.4-2.456-.468 3.1-3.333 5.38-8.04 5.847a24.8 24.8 0 0 1-10.35-1.784v16.2c5.776 1.82 11.91 2.19 17.864 1.082 10.847-2.078 17.683-11.14 17.683-23.245V46.42h-17.742m67.8 22.922v-5.058h5.5V46.595h-6.023c-2.58-11.807-13.645-19.772-25.662-18.473s-21.122 11.445-21.12 23.53v41.31a14.9 14.9 0 0 0 11.928-3.245c3.918-3.216 5.7-8.566 5.7-13.566v-1.55h8.946v-17.72h-8.946v-5.348c.042-3.296 2.726-5.945 6.022-5.945s5.98 2.65 6.023 5.945v17.748c.004 13.066 10.587 23.662 23.653 23.682v-17.66c-1.6.01-3.12-.613-4.248-1.732s-1.768-2.642-1.773-4.232zM81 29.374h17.922V77.47c0 7.63 3.45 12.133 6.257 14.063-2.924 2.544-11.783 4.824-18.478-.672-3.918-3.216-5.7-8.566-5.7-13.566z" fill="#ff00c1"/></svg>