<svg xmlns="http://www.w3.org/2000/svg" width="31" height="31.6"><path d="M30.818 13.365l-.16-.676h-14.7v6.223h8.783c-.912 4.33-5.144 6.6-8.6 6.6-2.57-.022-5.04-1.006-6.922-2.758a9.88 9.88 0 0 1-2.948-6.975 10.19 10.19 0 0 1 2.895-6.967c1.856-1.755 4.322-2.72 6.876-2.7a8.97 8.97 0 0 1 5.85 2.279l4.422-4.4C23.454 1.44 19.746.01 15.9 0A15.6 15.6 0 0 0 0 15.8c-.023 4.08 1.525 8.01 4.323 10.98 3.15 3.146 7.44 4.885 11.89 4.82A14.67 14.67 0 0 0 26.9 27.11c2.713-2.984 4.18-6.894 4.1-10.926.012-.943-.048-1.885-.182-2.82z" fill="#4e5af9"/></svg>