<svg xmlns="http://www.w3.org/2000/svg" width="48" height="48"><circle cx="24.443" cy="24" r="17" fill="#4e5af9"/><path d="M28.717 18.372a4.59 4.59 0 0 0-1.408-1.628c-.493-.35-1.07-.563-1.672-.616v-1.914h-1.32v1.914a3.7 3.7 0 0 0-3.432 3.74c-.043.912.33 1.794 1.012 2.4a8.23 8.23 0 0 0 2.42 1.432v6.028a2.5 2.5 0 0 1-1.716-.818c-.485-.514-.793-1.17-.88-1.87l-1.584.44a5.5 5.5 0 0 0 1.364 2.6c.76.728 1.764 1.15 2.816 1.184v1.958h1.32v-2.046c2.135-.37 3.672-2.256 3.606-4.422.028-1-.344-1.95-1.032-2.662-.738-.69-1.616-1.216-2.574-1.54v-4.884a1.84 1.84 0 0 1 .946.462 3.83 3.83 0 0 1 .836 1.1zm-3.08 5.94a4.21 4.21 0 0 1 1.232.77c.462.46.715 1.087.7 1.738.044 1.26-.74 2.403-1.932 2.816zm-1.32-2.354a4.06 4.06 0 0 1-1.254-.792 1.73 1.73 0 0 1-.55-1.32 2.11 2.11 0 0 1 1.8-2.178z" fill="#fff"/><path d="M40.035 43.535v-5h5m-42-30h5v-5" fill="none" stroke="#4e5af9"/></svg>