<svg xmlns="http://www.w3.org/2000/svg" width="48" height="48" xmlns:v="https://vecta.io/nano"><g fill="none" stroke="#4e5af9" stroke-miterlimit="10"><path d="M24 10.455l14.003 8.085m-28.01-.003l14.003 8.085M38 18.537l-14.003 8.085M24 42.793v-16.17"/><path d="M23.996 10.458L10 18.538m14-8.08L18.006 7 4.008 15.08l6 3.458M24 10.457L30 7h.006l14.006 8.08h-.008l-6 3.458M24 26.627l6 3.458h.006l14.006-8.08h-.008l-6-3.458"/><path d="M24 26.627l-5.995 3.458-13.998-8.08 6-3.458M10 25.46l-.006 9.248 14 8.085 14-8.085V25.47"/></g><path d="M23.99 10.455L9.984 18.537l14 8.085 14-8.083z" fill="#4e5af9"/></svg>