<svg xmlns="http://www.w3.org/2000/svg" width="48" height="48"><defs><clipPath id="A"><path d="M18,0A18,18,0,0,1,36,18H0A18,18,0,0,1,18,0Z" transform="translate(531 175)" fill="#4e5af9"/></clipPath></defs><path d="M47.066 34.13h-24.44" fill="none" stroke="#4e5af9"/><path d="M23 24c9.94 0 18 8.06 18 18H5c0-9.94 8.06-18 18-18zm0-17.3a7.01 7.01 0 0 0-7 7 7.01 7.01 0 0 0 7 7 7.01 7.01 0 0 0 7-7 7.01 7.01 0 0 0-7-7m0-1a8 8 0 1 1 0 16 8 8 0 0 1 0-16z" fill="#4e5af9"/><g transform="translate(-526 -151)" clip-path="url(#A)"><path d="M574.37 185.13h-25.74" fill="none" stroke="#fff"/></g></svg>