<svg xmlns="http://www.w3.org/2000/svg" width="48" height="48" fill="#4e5af9"><path d="M24 24.234c7.732 0 14 6.268 14 14H10c0-7.732 6.268-14 14-14zM24 10c3.436 0 6.222 2.786 6.222 6.222S27.435 22.444 24 22.444s-6.222-2.786-6.222-6.222h0A6.22 6.22 0 0 1 23.999 10zm13 5c2.454 0 4.444 2 4.444 4.444A4.46 4.46 0 0 1 37 23.888a4.46 4.46 0 0 1-4.444-4.444h0c0-1.18.468-2.3 1.302-3.142A4.45 4.45 0 0 1 37 15zm-27 0c2.454 0 4.444 2 4.444 4.444A4.46 4.46 0 0 1 10 23.888a4.46 4.46 0 0 1-4.444-4.444h0c0-1.18.468-2.3 1.302-3.142A4.45 4.45 0 0 1 10 15zm29.698 20.167h7.3a10 10 0 0 0-10-10 10.17 10.17 0 0 0-3.117.5 16 16 0 0 1 5.817 9.5zm-25.9-9.245a9.99 9.99 0 0 0-13.8 9.245h8.3c.712-3.624 2.655-6.9 5.5-9.245z"/></svg>