<svg xmlns="http://www.w3.org/2000/svg" width="242" height="113"><path d="M38.423 54.925h0l-1.012-.253c-1.85-.515-2.725-.982-2.725-2.043 0-1.108.837-1.663 2.55-1.663a5.85 5.85 0 0 1 3.977 1.53 4.56 4.56 0 0 0 1.25-3.033v-.45a12.35 12.35 0 0 0-5.14-1.117c-4.207 0-6.524 1.814-6.524 4.814a5.05 5.05 0 0 0 3.927 5.332l.35.086c3.037.72 4.487 1.616 4.487 3.1 0 1.4-1.187 2.344-3.076 2.344a3.71 3.71 0 0 1-3.706-2.384c-1.297.64-2.295 1.76-2.782 3.122 1.2 1.5 3.228 2.336 6.088 2.336 4.83 0 7.364-2.027 7.364-5.543.001-3.2-1.8-5.24-5.028-6.176zM56.3 57.14c0 3.53-2.088 6.413-4.534 6.413-2.534 0-2.734-2.6-2.734-8.345v-7.314a14.59 14.59 0 0 0-3.889 1.971v6.62c0 7.276 1.236 10.135 5.5 10.135a6.57 6.57 0 0 0 5.666-2.756v2.344c1.282.275 2.607.275 3.9 0V47.894a12.43 12.43 0 0 0-3.889 1.678zm10.3-5.564l-.3-3.682a14.78 14.78 0 0 0-4.073 1.869l.837 3.143v12.9a8.23 8.23 0 0 0 1.89.214 9.03 9.03 0 0 0 2-.214v-7.04c0-4.948.877-6.833 4.86-6.833h.36c.916-.665 1.315-1.964 1.394-3.856h-.2c-3.786 0-5.898.95-6.767 3.508zM88 47.894l-4.774 12.2-5.164-12.2a4.9 4.9 0 0 0-3.65 1.568l7.53 16.406a8.03 8.03 0 0 0 1.243.142 7.54 7.54 0 0 0 1.164-.142l7.5-16.644c-1.122-.8-2.457-1.273-3.84-1.33zm12.016 0c-5.308 0-8.256 3.365-8.256 9.574 0 6.28 2.66 9.272 8.176 9.272a10.45 10.45 0 0 0 6.224-1.734 3.63 3.63 0 0 0-1.554-2.676 7.7 7.7 0 0 1-4.256 1.346c-3.02 0-4.622-1.885-4.7-5.614h8.582a13.35 13.35 0 0 0 3.37-.436h0V56.32c-.004-5.392-2.814-8.425-7.587-8.425zm-4.24 7.554c.335-2.906 1.85-4.482 4.112-4.482 2.1 0 3.53 1.5 3.825 4.086zm25.184-7.554L116.3 59.17l-5.143-11.275c-1.413-.015-2.775.532-3.785 1.52l6.973 13.944-4.145 8.813a4.31 4.31 0 0 0 3.467 1.757l11-24.75a5.81 5.81 0 0 0-3.707-1.284z" fill="#e79e2e" fill-rule="evenodd"/><path d="M139.6 47.102a4.22 4.22 0 0 0-3.73 1.988c-1.238-.604-2.6-.912-3.976-.9-4.3 0-7.06 2.447-7.06 6.47-.106 1.417.365 2.817 1.307 3.882a5.26 5.26 0 0 0 3.693 1.77c-.126.473-.198.96-.215 1.45a5.43 5.43 0 0 0 .176 1.3c-3.674.554-5.555 2.4-5.555 5.582 0 3.334 2.9 5.3 8.05 5.3 5.85 0 8.95-2.075 8.95-5.5 0-3.35-2.758-5.242-8.265-5.48-.185-.4-.275-.835-.263-1.274.036-.434.124-.862.263-1.275 3.96-.246 6.112-2.55 6.112-5.812a6.02 6.02 0 0 0-1.063-3.642c.75-.592 1.703-.868 2.654-.768.28 0 .637.04 1.116.07a4.78 4.78 0 0 0 .318-1.5 3.06 3.06 0 0 0-.279-1.22 6.58 6.58 0 0 0-2.231-.42zm-2.407 21.317h0c0 1.765-1.506 2.44-5.012 2.44-2.63 0-3.985-.864-3.985-2.44 0-1.694 1.107-2.407 3.387-2.407 3.84 0 5.6.753 5.6 2.408zm-5.6-10.943a2.65 2.65 0 0 1-2.86-2.9c0-2.13 1.067-3.326 3.035-3.326a3.19 3.19 0 0 1 2.484.9 3.18 3.18 0 0 1 .95 2.465c0 1.815-1.443 2.86-3.6 2.86zm72.46-9.582c-5.012 0-7.9 3.032-7.9 9.375 0 6.445 2.774 9.374 7.9 9.374S212 63.64 212 57.27s-2.853-9.375-7.946-9.375zm4.056 9.375c0 4.26-1.243 6.3-4.056 6.3s-4.008-2-4.008-6.3c0-4.26 1.283-6.3 4.008-6.3s4.057 2.082 4.057 6.3zm-41.375-5.836c-.275-1.354-1.003-2.575-2.064-3.46h-12.544a5.51 5.51 0 0 0 1.9 3.706l7.308-.2-10.208 11.22a5.41 5.41 0 0 0 2.5 3.388h11.754c1.192-.927 2.032-2.232 2.383-3.7h0l-11.117.158zm21.828-3.538c-2.614 0-4.48.966-5.555 2.827a4.63 4.63 0 0 0-4.574-2.827c-2.062-.035-3.992 1.014-5.084 2.763v-2.764c-1.583.28-3.12.78-4.567 1.48l.677 3.318v13.1c.606.146 1.227.217 1.85.214a11.89 11.89 0 0 0 2.04-.214v-7.914c0-4.418 1.76-6.912 3.992-6.912 2.016 0 2.48 1.647 2.48 5.384v9.446a8.41 8.41 0 0 0 1.9.214 8.83 8.83 0 0 0 1.985-.214v-7.4c0-4.98 1.163-7.435 3.65-7.435 2.2 0 2.822 1.766 2.822 5.7v9.12a8.43 8.43 0 0 0 1.9.214c.667.003 1.333-.068 1.984-.214v-9.32c.008-6.1-1.482-8.575-5.498-8.575zM146.915 40a8.86 8.86 0 0 0-2.916 2.74 6.93 6.93 0 0 0 2.917 2.7 8.69 8.69 0 0 0 2.883-2.7h0c-.793-1.075-1.77-2.003-2.884-2.74zm-2.16 13.024v12.772a7.29 7.29 0 0 0 1.849.214 9.13 9.13 0 0 0 2.04-.214V47.894a21.88 21.88 0 0 0-4.566 1.52z" fill="#56a9c0"/></svg>