<svg xmlns="http://www.w3.org/2000/svg" width="20" height="20"><circle cx="10" cy="10" r="9.5" fill="none" stroke="#201f24"/><path d="M12.972 5.816c-.243-.47-.594-.876-1.024-1.184a2.48 2.48 0 0 0-1.216-.448V2.792h-.96v1.392a2.69 2.69 0 0 0-2.5 2.72c-.03.663.24 1.304.736 1.744.523.445 1.118.797 1.76 1.04v4.384a1.82 1.82 0 0 1-1.244-.592 2.41 2.41 0 0 1-.64-1.36l-1.152.32a4 4 0 0 0 .992 1.888 3.11 3.11 0 0 0 2.048.864v1.424h.96v-1.488c1.553-.27 2.672-1.64 2.624-3.216a2.68 2.68 0 0 0-.756-1.936c-.537-.503-1.175-.885-1.872-1.12V5.3a1.34 1.34 0 0 1 .688.336c.25.228.456.5.608.8zm-2.24 4.32a3.06 3.06 0 0 1 .9.56c.335.334.52.79.508 1.264a2.09 2.09 0 0 1-1.408 2.048zm-.96-1.712a2.95 2.95 0 0 1-.912-.576 1.26 1.26 0 0 1-.4-.96C8.425 6.1 8.992 5.414 9.772 5.3z" fill="#201f24"/></svg>